<svg width="1044" height="720" viewBox="0 0 1044 720" fill="none" xmlns="http://www.w3.org/2000/svg">
<rect width="497" height="351" fill="white" transform="translate(26 18) scale(2)"/>
<rect width="406" height="214" fill="black" fill-opacity="0" transform="translate(110 118) scale(2)"/>
<rect width="406" height="214" fill="black" fill-opacity="0" transform="translate(110 118) scale(2)"/>
<rect x="111" y="119" width="810" height="426" rx="3" stroke="black" stroke-width="2"/>
<path d="M135.402 145.547H128.254L126.648 150H124.328L130.844 132.938H132.812L139.34 150H137.031L135.402 145.547ZM128.934 143.695H134.734L131.828 135.715L128.934 143.695Z" fill="black"/>
<rect width="55" height="18" fill="black" fill-opacity="0" transform="translate(138 86) scale(2)"/>
<mask id="path-3-inside-1" fill="white">
<path d="M138 94C138 89.5817 141.582 86 146 86H240C244.418 86 248 89.5817 248 94V120C248 121.105 247.105 122 246 122H140C138.895 122 138 121.105 138 120V94Z"/>
</mask>
<path d="M138 94C138 89.5817 141.582 86 146 86H240C244.418 86 248 89.5817 248 94V120C248 121.105 247.105 122 246 122H140C138.895 122 138 121.105 138 120V94Z" stroke="black" stroke-width="4" mask="url(#path-3-inside-1)"/>
<path d="M155.184 104.44L159.637 95.8738H162.191L156.309 106.573V112.936H154.059V106.573L148.176 95.8738H150.754L155.184 104.44Z" fill="black"/>
<path d="M703.973 225.32V232.738C703.98 234.012 704.184 234.953 704.582 235.562C704.988 236.172 705.645 236.477 706.551 236.477C708.105 236.477 709.125 235.883 709.609 234.695V225.32H711.789V238H709.832L709.727 236.652C709 237.707 707.973 238.234 706.645 238.234C705.496 238.234 704.605 237.949 703.973 237.379V242.875H701.805V225.32H703.973Z" fill="black"/>
<rect width="18" height="17" fill="black" fill-opacity="0" transform="translate(860 284) scale(2)"/>
<circle cx="886" cy="290" r="6" fill="black"/>
<rect width="1.28163" height="13.5479" fill="black" fill-opacity="0" transform="translate(888.152 287.579) scale(-2 2) rotate(-55.9936)"/>
<path d="M863.819 301.507C863.322 301.266 863.116 300.667 863.358 300.17L867.298 292.079C867.54 291.582 868.138 291.376 868.635 291.618C869.131 291.859 869.338 292.458 869.096 292.954L865.594 300.147L872.786 303.649C873.283 303.891 873.489 304.49 873.248 304.986C873.006 305.483 872.407 305.689 871.911 305.448L863.819 301.507ZM887.551 286.009C884.928 289.943 882.265 292.786 878.679 295.176C875.116 297.55 870.686 299.448 864.583 301.554L863.931 299.663C869.99 297.572 874.225 295.741 877.57 293.512C880.892 291.297 883.379 288.662 885.886 284.899L887.551 286.009Z" fill="black"/>
<rect width="96.2428" height="52.6913" fill="black" fill-opacity="0" transform="translate(568 387.217) scale(2) rotate(-27.6132)"/>
<rect width="65" height="15" fill="black" fill-opacity="0" transform="translate(600.39 397.359) scale(2) rotate(-27.6132)"/>
<rect width="7" height="15" fill="black" fill-opacity="0" transform="translate(703.178 343.593) scale(2) rotate(-27.6132)"/>
<path d="M719.047 356.47L717.577 346.58L719.539 345.553L721.171 358.255L723.741 363.167L721.809 364.177L719.202 359.193L709.727 350.686L711.689 349.66L719.047 356.47Z" fill="black"/>
<rect width="5" height="96.2428" fill="black" fill-opacity="0" transform="translate(568 387.217) scale(2 -2) rotate(-62.3868)"/>
<path d="M744.065 305.059C745.06 305.539 745.477 306.735 744.998 307.73L737.18 323.943C736.7 324.938 735.505 325.356 734.51 324.876C733.515 324.397 733.097 323.201 733.577 322.206L740.526 307.794L726.114 300.845C725.119 300.365 724.701 299.17 725.181 298.175C725.66 297.18 726.856 296.762 727.851 297.242L744.065 305.059ZM571.341 394.553C619.122 354.018 658.176 334.448 742.536 304.973L743.856 308.749C659.726 338.143 621.184 357.514 573.929 397.603L571.341 394.553Z" fill="black"/>
<rect width="62" height="46" fill="black" fill-opacity="0" transform="translate(178 188) scale(2)"/>
<rect x="179" y="189" width="122" height="90" rx="8" stroke="black" stroke-width="2"/>
<path d="M193.98 220V202.938H199.559C201.41 202.938 202.801 203.32 203.73 204.086C204.668 204.852 205.137 205.984 205.137 207.484C205.137 208.281 204.91 208.988 204.457 209.605C204.004 210.215 203.387 210.688 202.605 211.023C203.527 211.281 204.254 211.773 204.785 212.5C205.324 213.219 205.594 214.078 205.594 215.078C205.594 216.609 205.098 217.812 204.105 218.688C203.113 219.562 201.711 220 199.898 220H193.98ZM196.23 212.02V218.16H199.945C200.992 218.16 201.816 217.891 202.418 217.352C203.027 216.805 203.332 216.055 203.332 215.102C203.332 213.047 202.215 212.02 199.98 212.02H196.23ZM196.23 210.215H199.629C200.613 210.215 201.398 209.969 201.984 209.477C202.578 208.984 202.875 208.316 202.875 207.473C202.875 206.535 202.602 205.855 202.055 205.434C201.508 205.004 200.676 204.789 199.559 204.789H196.23V210.215Z" fill="black"/>
<rect width="62" height="46" fill="black" fill-opacity="0" transform="translate(178 380) scale(2)"/>
<rect x="179" y="381" width="122" height="90" rx="8" stroke="black" stroke-width="2"/>
<path d="M206.531 406.586C206.32 408.391 205.652 409.785 204.527 410.77C203.41 411.746 201.922 412.234 200.062 412.234C198.047 412.234 196.43 411.512 195.211 410.066C194 408.621 193.395 406.688 193.395 404.266V402.625C193.395 401.039 193.676 399.645 194.238 398.441C194.809 397.238 195.613 396.316 196.652 395.676C197.691 395.027 198.895 394.703 200.262 394.703C202.074 394.703 203.527 395.211 204.621 396.227C205.715 397.234 206.352 398.633 206.531 400.422H204.27C204.074 399.062 203.648 398.078 202.992 397.469C202.344 396.859 201.434 396.555 200.262 396.555C198.824 396.555 197.695 397.086 196.875 398.148C196.062 399.211 195.656 400.723 195.656 402.684V404.336C195.656 406.188 196.043 407.66 196.816 408.754C197.59 409.848 198.672 410.395 200.062 410.395C201.312 410.395 202.27 410.113 202.934 409.551C203.605 408.98 204.051 407.992 204.27 406.586H206.531Z" fill="black"/>
<rect width="18" height="17" fill="black" fill-opacity="0" transform="translate(294 176) scale(2)"/>
<circle cx="320" cy="182" r="6" fill="black"/>
<rect width="1.28163" height="13.5479" fill="black" fill-opacity="0" transform="translate(322.152 179.579) scale(-2 2) rotate(-55.9936)"/>
<path d="M297.819 193.507C297.322 193.266 297.116 192.667 297.358 192.17L301.298 184.079C301.54 183.582 302.138 183.376 302.635 183.618C303.131 183.859 303.338 184.458 303.096 184.954L299.594 192.147L306.786 195.649C307.283 195.891 307.489 196.49 307.248 196.986C307.006 197.483 306.407 197.689 305.911 197.448L297.819 193.507ZM321.551 178.009C318.928 181.943 316.265 184.786 312.679 187.176C309.116 189.55 304.686 191.448 298.583 193.554L297.931 191.663C303.99 189.572 308.225 187.741 311.57 185.512C314.892 183.297 317.379 180.662 319.886 176.899L321.551 178.009Z" fill="black"/>
<rect width="1.08841e-05" height="214" fill="black" fill-opacity="0" transform="translate(428 118) scale(2)"/>
<line y1="-0.5" x2="214.002" y2="-0.5" transform="matrix(0.00934561 1.99998 -2 -8.7422e-08 428 118)" stroke="black" stroke-miterlimit="16" stroke-dasharray="5 5"/>
<rect width="46" height="50" fill="black" fill-opacity="0" transform="translate(262 280) scale(2)"/>
<rect width="65" height="15" fill="black" fill-opacity="0" transform="translate(282 314) scale(2)"/>
<rect width="41" height="15" fill="black" fill-opacity="0" transform="translate(326 314) scale(2)"/>
<path d="M358.129 318.281H355.891V337.875H358.129V339.656H353.711V316.5H358.129V318.281ZM362.371 336H360.203V323.32H362.371V336ZM360.027 319.957C360.027 319.605 360.133 319.309 360.344 319.066C360.562 318.824 360.883 318.703 361.305 318.703C361.727 318.703 362.047 318.824 362.266 319.066C362.484 319.309 362.594 319.605 362.594 319.957C362.594 320.309 362.484 320.602 362.266 320.836C362.047 321.07 361.727 321.188 361.305 321.188C360.883 321.188 360.562 321.07 360.344 320.836C360.133 320.602 360.027 320.309 360.027 319.957ZM367.902 323.32L367.973 324.914C368.941 323.695 370.207 323.086 371.77 323.086C374.449 323.086 375.801 324.598 375.824 327.621V336H373.656V327.609C373.648 326.695 373.438 326.02 373.023 325.582C372.617 325.145 371.98 324.926 371.113 324.926C370.41 324.926 369.793 325.113 369.262 325.488C368.73 325.863 368.316 326.355 368.02 326.965V336H365.852V323.32H367.902ZM397.984 333.762C397.406 334.59 396.598 335.211 395.559 335.625C394.527 336.031 393.324 336.234 391.949 336.234C390.559 336.234 389.324 335.91 388.246 335.262C387.168 334.605 386.332 333.676 385.738 332.473C385.152 331.27 384.852 329.875 384.836 328.289V326.801C384.836 324.23 385.434 322.238 386.629 320.824C387.832 319.41 389.52 318.703 391.691 318.703C393.473 318.703 394.906 319.16 395.992 320.074C397.078 320.98 397.742 322.27 397.984 323.941H395.734C395.312 321.684 393.969 320.555 391.703 320.555C390.195 320.555 389.051 321.086 388.27 322.148C387.496 323.203 387.105 324.734 387.098 326.742V328.137C387.098 330.051 387.535 331.574 388.41 332.707C389.285 333.832 390.469 334.395 391.961 334.395C392.805 334.395 393.543 334.301 394.176 334.113C394.809 333.926 395.332 333.609 395.746 333.164V329.332H391.797V327.504H397.984V333.762ZM399.871 316.5H404.301V339.656H399.871V337.875H402.133V318.281H399.871V316.5Z" fill="black"/>
<line x1="343.06" y1="339.658" x2="351.06" y2="317.658" stroke="black"/>
<path d="M334.863 318.703C336.371 318.703 337.582 319.133 338.496 319.992C339.418 320.844 339.879 321.949 339.879 323.309C339.879 324.02 339.688 324.672 339.305 325.266C338.922 325.859 338.387 326.336 337.699 326.695C338.66 327.047 339.395 327.605 339.902 328.371C340.418 329.129 340.676 330.016 340.676 331.031C340.676 332.633 340.188 333.902 339.211 334.84C338.242 335.77 336.957 336.234 335.355 336.234C333.941 336.234 332.766 335.863 331.828 335.121V340.5H329.648V323.426C329.648 322.582 329.887 321.793 330.363 321.059C330.84 320.324 331.48 319.75 332.285 319.336C333.098 318.914 333.957 318.703 334.863 318.703ZM337.711 323.262C337.711 322.465 337.445 321.805 336.914 321.281C336.383 320.75 335.699 320.484 334.863 320.484C334.02 320.484 333.305 320.762 332.719 321.316C332.133 321.871 331.836 322.566 331.828 323.402V333.117C332.172 333.523 332.625 333.852 333.188 334.102C333.75 334.344 334.398 334.465 335.133 334.465C336.18 334.465 337.004 334.152 337.605 333.527C338.207 332.902 338.508 332.086 338.508 331.078C338.508 330.156 338.234 329.375 337.688 328.734C337.141 328.086 336.441 327.75 335.59 327.727H333.832V325.945H334.828C335.766 325.945 336.48 325.715 336.973 325.254C337.465 324.785 337.711 324.121 337.711 323.262Z" fill="black"/>
<rect width="5" height="50" fill="black" fill-opacity="0" transform="translate(272 380) scale(2) rotate(-180)"/>
<path d="M262.976 278.254C262.012 277.715 260.794 278.06 260.254 279.024L251.468 294.734C250.929 295.698 251.274 296.917 252.238 297.456C253.202 297.995 254.42 297.65 254.96 296.686L262.769 282.722L276.734 290.532C277.698 291.071 278.917 290.726 279.456 289.762C279.995 288.798 279.65 287.58 278.686 287.04L262.976 278.254ZM263.835 380.796C270.768 364.808 274.091 351 273.998 335.346C273.905 319.751 270.42 302.437 263.925 279.456L260.075 280.544C266.545 303.433 269.909 320.328 269.998 335.37C270.087 350.354 266.928 363.61 260.165 379.204L263.835 380.796Z" fill="black"/>
<rect width="43" height="50" fill="black" fill-opacity="0" transform="translate(130 280) scale(2)"/>
<rect width="65" height="15" fill="black" fill-opacity="0" transform="translate(56 314) scale(2)"/>
<rect width="7" height="15" fill="black" fill-opacity="0" transform="translate(172 314) scale(2)"/>
<path d="M184.219 323.32V332.66C184.234 333.754 184.547 334.301 185.156 334.301C185.305 334.301 185.438 334.281 185.555 334.242L185.824 335.848C185.449 336.113 184.973 336.246 184.395 336.246C183.246 336.246 182.523 335.602 182.227 334.312C181.391 335.602 180.156 336.246 178.523 336.246C177.023 336.246 175.828 335.695 174.938 334.594C174.047 333.484 173.602 331.977 173.602 330.07V329.895C173.602 327.832 174.043 326.184 174.926 324.949C175.809 323.707 177.016 323.086 178.547 323.086C180.133 323.086 181.344 323.715 182.18 324.973L182.379 323.32H184.219ZM175.77 330.141C175.77 331.508 176.055 332.574 176.625 333.34C177.195 334.098 178.008 334.477 179.062 334.477C180.414 334.477 181.41 333.75 182.051 332.297V327.07C181.387 325.602 180.398 324.867 179.086 324.867C178.039 324.867 177.223 325.312 176.637 326.203C176.059 327.086 175.77 328.398 175.77 330.141Z" fill="black"/>
<rect width="5" height="50" fill="black" fill-opacity="0" transform="translate(198 280) scale(2)"/>
<path d="M207.024 381.746C207.988 382.285 209.206 381.94 209.746 380.976L218.532 365.266C219.071 364.302 218.726 363.083 217.762 362.544C216.798 362.005 215.58 362.35 215.04 363.314L207.231 377.278L193.266 369.468C192.302 368.929 191.083 369.274 190.544 370.238C190.005 371.202 190.35 372.42 191.314 372.96L207.024 381.746ZM206.165 279.204C199.232 295.192 195.909 309 196.002 324.654C196.095 340.249 199.58 357.563 206.075 380.544L209.925 379.456C203.455 356.567 200.091 339.672 200.002 324.63C199.913 309.646 203.072 296.39 209.835 280.796L206.165 279.204Z" fill="black"/>
<rect width="62" height="46" fill="black" fill-opacity="0" transform="translate(458 190) scale(2)"/>
<rect x="459" y="191" width="122" height="90" rx="8" stroke="black" stroke-width="2"/>
<path d="M483.625 214.113H476.23V220.16H484.82V222H473.98V204.938H484.703V206.789H476.23V212.273H483.625V214.113Z" fill="black"/>
<rect width="62" height="46" fill="black" fill-opacity="0" transform="translate(742 292) scale(2)"/>
<rect x="743" y="293" width="122" height="90" rx="8" stroke="black" stroke-width="2"/>
<path d="M767.391 316.465H760.23V324H757.98V306.938H768.551V308.789H760.23V314.625H767.391V316.465Z" fill="black"/>
<rect width="62" height="46" fill="black" fill-opacity="0" transform="translate(536 394) scale(2)"/>
<rect x="537" y="395" width="122" height="90" rx="8" stroke="black" stroke-width="2"/>
<path d="M564.578 423.762C564 424.59 563.191 425.211 562.152 425.625C561.121 426.031 559.918 426.234 558.543 426.234C557.152 426.234 555.918 425.91 554.84 425.262C553.762 424.605 552.926 423.676 552.332 422.473C551.746 421.27 551.445 419.875 551.43 418.289V416.801C551.43 414.23 552.027 412.238 553.223 410.824C554.426 409.41 556.113 408.703 558.285 408.703C560.066 408.703 561.5 409.16 562.586 410.074C563.672 410.98 564.336 412.27 564.578 413.941H562.328C561.906 411.684 560.562 410.555 558.297 410.555C556.789 410.555 555.645 411.086 554.863 412.148C554.09 413.203 553.699 414.734 553.691 416.742V418.137C553.691 420.051 554.129 421.574 555.004 422.707C555.879 423.832 557.062 424.395 558.555 424.395C559.398 424.395 560.137 424.301 560.77 424.113C561.402 423.926 561.926 423.609 562.34 423.164V419.332H558.391V417.504H564.578V423.762Z" fill="black"/>
<rect width="23" height="23" fill="black" fill-opacity="0" transform="translate(844 144) scale(2)"/>
<circle cx="867" cy="167" r="22" stroke="black" stroke-width="2"/>
<path d="M873.539 176H871.277V168.113H862.676V176H860.426V158.938H862.676V166.273H871.277V158.938H873.539V176Z" fill="black"/>
<rect width="54" height="62" fill="black" fill-opacity="0" transform="translate(416 319.899) scale(2) rotate(-23.9834)"/>
<rect width="65" height="15" fill="black" fill-opacity="0" transform="translate(387.187 383.064) scale(2) rotate(-23.9834)"/>
<rect width="7" height="15" fill="black" fill-opacity="0" transform="translate(493.172 335.913) scale(2) rotate(-23.9834)"/>
<path d="M498.807 341.209C498.375 340.238 498.394 339.31 498.865 338.426C499.339 337.531 500.2 336.806 501.449 336.25C502.442 335.808 503.503 335.571 504.634 335.538L505.375 337.261C504.11 337.319 503.035 337.545 502.15 337.939C501.536 338.212 501.104 338.558 500.854 338.977C500.612 339.393 500.589 339.822 500.786 340.265C501.129 341.036 502.211 341.345 504.033 341.193C505.859 341.03 507.354 341.267 508.518 341.904C509.686 342.53 510.599 343.535 511.257 344.918L511.443 345.335C511.929 346.428 512.155 347.503 512.121 348.561C512.084 349.612 511.779 350.551 511.207 351.379C510.638 352.196 509.837 352.835 508.802 353.295C507.217 354 505.72 354.038 504.311 353.408C502.906 352.767 501.819 351.583 501.051 349.856L500.989 349.717C500.465 348.539 500.329 347.33 500.581 346.089C500.833 344.848 501.417 343.874 502.334 343.167L502.299 343.119C501.469 343.155 500.749 343.008 500.142 342.68C499.541 342.349 499.096 341.858 498.807 341.209ZM503.091 349.051C503.65 350.307 504.377 351.172 505.272 351.646C506.171 352.11 507.109 352.124 508.087 351.689C509.058 351.257 509.669 350.554 509.919 349.579C510.169 348.604 509.98 347.41 509.351 345.997C508.919 345.026 508.227 344.286 507.274 343.778C506.325 343.26 505.365 343.11 504.393 343.328C503.422 343.76 502.808 344.474 502.55 345.47C502.288 346.458 502.469 347.652 503.091 349.051Z" fill="black"/>
<rect width="5" height="62" fill="black" fill-opacity="0" transform="translate(498.23 283.316) scale(2) rotate(-23.9834)"/>
<path d="M557.484 394.526C558.578 394.683 559.591 393.924 559.749 392.83L562.308 375.013C562.465 373.92 561.706 372.906 560.613 372.749C559.519 372.592 558.506 373.351 558.349 374.445L556.074 390.282L540.236 388.007C539.143 387.85 538.129 388.609 537.972 389.702C537.815 390.795 538.574 391.809 539.667 391.966L557.484 394.526ZM505.373 279.416C507.09 300.273 510.994 317.151 518.909 334.714C526.805 352.236 538.66 370.363 556.168 393.745L559.37 391.347C541.912 368.032 530.268 350.185 522.555 333.071C514.861 315.998 511.047 299.578 509.36 279.088L505.373 279.416Z" fill="black"/>
<rect width="72" height="64" fill="black" fill-opacity="0" transform="translate(656 427.2) scale(2) rotate(-22.5402)"/>
<rect width="65" height="15" fill="black" fill-opacity="0" transform="translate(671.194 453.375) scale(2) rotate(-22.5402)"/>
<rect width="7" height="15" fill="black" fill-opacity="0" transform="translate(778.333 408.908) scale(2) rotate(-22.5402)"/>
<path d="M793.191 412.833L796.772 421.459C797.205 422.463 797.704 422.849 798.266 422.615C798.404 422.558 798.519 422.489 798.612 422.408L799.476 423.788C799.232 424.177 798.843 424.482 798.309 424.704C797.248 425.144 796.333 424.826 795.565 423.749C795.287 425.26 794.394 426.328 792.886 426.954C791.501 427.529 790.185 427.479 788.941 426.803C787.693 426.12 786.703 424.898 785.973 423.137L785.905 422.975C785.115 421.07 784.891 419.378 785.233 417.9C785.572 416.414 786.449 415.377 787.863 414.791C789.328 414.183 790.687 414.299 791.941 415.141L791.492 413.538L793.191 412.833ZM788.002 422.371C788.526 423.634 789.198 424.509 790.019 424.998C790.836 425.479 791.731 425.518 792.706 425.113C793.954 424.595 794.595 423.542 794.63 421.955L792.627 417.127C791.45 416.025 790.256 415.726 789.044 416.229C788.077 416.63 787.493 417.355 787.294 418.402C787.098 419.439 787.334 420.762 788.002 422.371Z" fill="black"/>
<rect width="5" height="72" fill="black" fill-opacity="0" transform="translate(796.667 390.472) scale(-2 2) rotate(-67.4598)"/>
<path d="M658.728 438.102C657.807 437.492 657.556 436.25 658.167 435.33L668.119 420.331C668.729 419.411 669.971 419.16 670.891 419.771C671.811 420.381 672.063 421.623 671.452 422.543L662.606 435.875L675.938 444.721C676.858 445.332 677.109 446.573 676.498 447.494C675.888 448.414 674.647 448.665 673.726 448.054L658.728 438.102ZM794.1 382.784C756.993 413.156 726.367 425.019 660.23 438.396L659.437 434.476C725.254 421.163 755.167 409.482 791.566 379.688L794.1 382.784Z" fill="black"/>
<rect width="183.683" height="95.9095" fill="black" fill-opacity="0" transform="translate(662 456.103) scale(2) rotate(-4.19297)"/>
<rect width="65" height="15" fill="black" fill-opacity="0" transform="translate(779.883 477.541) scale(2) rotate(-4.19297)"/>
<rect width="7" height="15" fill="black" fill-opacity="0" transform="translate(895.573 469.06) scale(2) rotate(-4.19297)"/>
<path d="M899.64 472.984C900.403 472.928 901.03 473.038 901.521 473.316C902.011 473.593 902.412 474.092 902.723 474.814L908.664 487.409C908.849 487.795 909.033 488.06 909.216 488.203C909.406 488.338 909.637 488.395 909.91 488.375L910.351 488.308L910.552 490.079C910.278 490.193 909.978 490.262 909.65 490.286C909.051 490.33 908.593 490.293 908.279 490.175C907.965 490.05 907.674 489.828 907.408 489.511C907.142 489.193 906.873 488.731 906.601 488.124L903.405 481.391L900.73 490.74L898.323 490.917L902.046 478.553L900.722 475.889C900.511 475.466 900.294 475.172 900.07 475.008C899.855 474.844 899.571 474.775 899.221 474.8L898.673 474.864L898.54 473.205C898.86 473.088 899.227 473.014 899.64 472.984Z" fill="black"/>
<rect width="5" height="183.683" fill="black" fill-opacity="0" transform="translate(1029.85 449.189) scale(-2 2) rotate(-85.807)"/>
<path d="M661.312 467.485C660.534 466.701 660.538 465.435 661.322 464.657L674.096 451.975C674.88 451.197 676.146 451.201 676.924 451.985C677.702 452.769 677.698 454.035 676.914 454.813L665.56 466.086L676.832 477.441C677.611 478.225 677.606 479.491 676.822 480.269C676.038 481.047 674.772 481.043 673.994 480.259L661.312 467.485ZM1029.49 441.179C914.606 463.356 831.795 468.686 662.724 468.076L662.738 464.076C831.681 464.686 914.205 459.36 1028.74 437.252L1029.49 441.179Z" fill="black"/>
<rect width="39" height="62" fill="black" fill-opacity="0" transform="translate(796 18) scale(2)"/>
<rect width="65" height="15" fill="black" fill-opacity="0" transform="translate(714 64) scale(2)"/>
<rect width="7" height="15" fill="black" fill-opacity="0" transform="translate(830 64) scale(2)"/>
<path d="M838.094 82.7656L841.375 73.3203H843.59L839.148 85.332V90.875H836.969V85.25L832.516 73.3203H834.73L838.094 82.7656Z" fill="black"/>
<rect width="5" height="62" fill="black" fill-opacity="0" transform="translate(856 18) scale(2)"/>
<path d="M864.935 143.693C865.871 144.281 867.105 144 867.693 143.065L877.274 127.826C877.862 126.891 877.58 125.656 876.645 125.068C875.71 124.481 874.476 124.762 873.888 125.697L865.371 139.242L851.826 130.726C850.891 130.138 849.656 130.42 849.068 131.355C848.481 132.29 848.762 133.524 849.697 134.112L864.935 143.693ZM864.112 17.3397C857.204 37.0937 853.909 54.1021 854.002 73.3657C854.094 92.5838 857.558 113.965 864.05 142.445L867.95 141.555C861.476 113.157 858.092 92.1184 858.002 73.3465C857.912 54.62 861.101 38.0675 867.888 18.6603L864.112 17.3397Z" fill="black"/>
<path d="M449.547 139.477L453.637 132.938H456.285L450.895 141.398L456.414 150H453.742L449.547 143.344L445.328 150H442.668L448.199 141.398L442.797 132.938H445.434L449.547 139.477Z" fill="black"/>
<rect width="5" height="50" fill="black" fill-opacity="0" transform="translate(1020.72 167.588) scale(-2 2) rotate(-73.5001)"/>
<path d="M920.604 187.833C919.813 187.062 919.797 185.796 920.568 185.005L933.136 172.119C933.907 171.328 935.173 171.312 935.964 172.084C936.755 172.855 936.771 174.121 936 174.912L924.828 186.366L936.282 197.537C937.073 198.309 937.089 199.575 936.318 200.366C935.547 201.156 934.28 201.172 933.49 200.401L920.604 187.833ZM1019.17 159.533C1005.81 170.722 993.51 177.83 978.475 182.186C963.496 186.526 945.905 188.103 922.025 188.401L921.975 184.402C945.759 184.104 962.913 182.531 977.361 178.344C991.753 174.174 1003.57 167.38 1016.6 156.467L1019.17 159.533Z" fill="black"/>
<rect width="20.8149" height="137.879" fill="black" fill-opacity="0" transform="translate(484.574 23.7657) scale(-2 2) rotate(-32.2582)"/>
<path d="M301.827 236.709C300.741 236.511 300.021 235.469 300.22 234.382L303.459 216.676C303.658 215.589 304.7 214.87 305.786 215.069C306.873 215.267 307.592 216.309 307.394 217.396L304.514 233.135L320.253 236.014C321.34 236.213 322.059 237.255 321.861 238.341C321.662 239.428 320.62 240.147 319.533 239.949L301.827 236.709ZM451.369 1.51312C452.24 53.8111 443.689 92.9968 420.544 128.947C397.452 164.815 359.946 197.279 303.324 236.388L301.05 233.096C357.585 194.048 394.537 161.953 417.18 126.782C439.77 91.6938 448.232 53.3603 447.37 1.57971L451.369 1.51312Z" fill="black"/>
<rect width="19.8497" height="102.235" fill="black" fill-opacity="0" transform="translate(418 38.2949) scale(2) rotate(-36.9701)"/>
<path d="M491.953 189.704C492.894 190.282 494.125 189.988 494.704 189.047L504.13 173.713C504.708 172.772 504.414 171.54 503.473 170.961C502.532 170.383 501.3 170.677 500.722 171.618L492.343 185.249L478.713 176.87C477.772 176.292 476.54 176.586 475.961 177.527C475.383 178.468 475.677 179.7 476.618 180.278L491.953 189.704ZM447.733 16.1772C444.457 42.9781 450.155 64.2298 459.186 89.6294C468.217 115.029 480.587 144.601 491.055 188.464L494.945 187.536C484.413 143.399 471.924 113.514 462.955 88.2893C453.986 63.0651 448.542 42.5267 451.703 16.6624L447.733 16.1772Z" fill="black"/>
<rect width="6.74761" height="97.2088" fill="black" fill-opacity="0" transform="translate(769.16 281.293) scale(2) rotate(112.147)"/>
<path d="M582.883 218.841C581.967 219.457 581.724 220.7 582.341 221.617L592.394 236.547C593.011 237.464 594.254 237.706 595.17 237.089C596.087 236.472 596.329 235.23 595.712 234.313L586.776 221.041L600.048 212.105C600.964 211.488 601.207 210.245 600.59 209.329C599.973 208.413 598.73 208.17 597.814 208.787L582.883 218.841ZM765.329 292.236C715.071 251.683 673.739 235.981 584.383 218.537L583.617 222.462C672.652 239.844 713.27 255.37 762.817 295.349L765.329 292.236Z" fill="black"/>
<path d="M981.027 153.078H976.68V160.848C976.68 161.887 977.09 162.406 977.91 162.406C978.246 162.406 978.605 162.305 978.988 162.102L979.48 163.625C978.887 164.031 978.176 164.234 977.348 164.234C976.371 164.234 975.652 163.949 975.191 163.379C974.738 162.801 974.508 161.941 974.5 160.801V153.078H970.434V151.32H981.027V153.078Z" fill="black"/>
<path d="M466.57 30.9062C465.539 30.625 464.645 30.4844 463.887 30.4844C462.785 30.4844 461.922 30.6875 461.297 31.0938C460.672 31.4922 460.359 32.0234 460.359 32.6875C460.359 34.3984 461.66 35.2539 464.262 35.2539H465.82V37.0352H464.062C462.641 37.0508 461.539 37.3633 460.758 37.9727C459.984 38.582 459.598 39.5234 459.598 40.7969C459.598 41.6719 459.879 42.418 460.441 43.0352C461.004 43.6445 461.812 44.0781 462.867 44.3359C463.93 44.5859 464.703 44.7852 465.188 44.9336C465.672 45.0742 466.039 45.2227 466.289 45.3789C466.906 45.7617 467.215 46.3633 467.215 47.1836C467.215 47.6836 467.012 48.2578 466.605 48.9062C466.199 49.5625 465.715 50.1289 465.152 50.6055L463.898 49.6211L464.566 48.8711C464.949 48.4023 465.141 47.9258 465.141 47.4414C465.141 47.1367 464.992 46.8945 464.695 46.7148C464.398 46.5352 463.801 46.3438 462.902 46.1406C462.004 45.9453 461.223 45.7188 460.559 45.4609C459.902 45.2031 459.34 44.8711 458.871 44.4648C458.41 44.0508 458.051 43.5469 457.793 42.9531C457.543 42.3516 457.418 41.6172 457.418 40.75C457.418 39.6172 457.738 38.6562 458.379 37.8672C459.02 37.0703 459.926 36.4922 461.098 36.1328C460.176 35.8047 459.457 35.3438 458.941 34.75C458.434 34.1562 458.18 33.4844 458.18 32.7344C458.18 31.4922 458.684 30.5117 459.691 29.793C460.699 29.0664 462.094 28.7031 463.875 28.7031C465.008 28.7031 466.012 28.8555 466.887 29.1602L466.57 30.9062Z" fill="black"/>
<rect width="72" height="50" fill="black" fill-opacity="0" transform="translate(36 446) scale(2)"/>
<rect width="65" height="15" fill="black" fill-opacity="0" transform="translate(40 476) scale(2)"/>
<rect width="10" height="15" fill="black" fill-opacity="0" transform="translate(150 476) scale(2)"/>
<path d="M155.516 485.32C154.438 487.531 153.871 489.57 153.816 491.438C153.816 493.023 154.039 494.262 154.484 495.152C154.93 496.035 155.566 496.477 156.395 496.477C157.238 496.477 157.879 496.141 158.316 495.469C158.762 494.789 158.984 493.801 158.984 492.504V488.977H161.176V492.562C161.184 493.844 161.406 494.816 161.844 495.48C162.289 496.145 162.93 496.477 163.766 496.477C164.594 496.477 165.23 496.035 165.676 495.152C166.121 494.27 166.344 493.031 166.344 491.438C166.289 489.57 165.723 487.531 164.645 485.32H166.93C167.984 487.227 168.512 489.266 168.512 491.438C168.512 493.586 168.105 495.258 167.293 496.453C166.488 497.641 165.352 498.234 163.883 498.234C162.008 498.234 160.738 497.305 160.074 495.445C159.754 496.359 159.273 497.055 158.633 497.531C157.992 498 157.207 498.234 156.277 498.234C154.809 498.234 153.668 497.641 152.855 496.453C152.051 495.258 151.648 493.586 151.648 491.438C151.648 489.195 152.176 487.156 153.23 485.32H155.516Z" fill="black"/>
<rect width="5" height="72" fill="black" fill-opacity="0" transform="translate(180 466) scale(-2 2) rotate(-90)"/>
<path d="M34.3399 457.115C33.7239 456.198 33.9678 454.956 34.8847 454.34L49.8259 444.302C50.7427 443.686 51.9854 443.93 52.6013 444.847C53.2173 445.764 52.9734 447.006 52.0565 447.622L38.7755 456.545L47.6981 469.826C48.3141 470.743 48.0701 471.985 47.1533 472.601C46.2364 473.217 44.9938 472.973 44.3778 472.057L34.3399 457.115ZM180.577 457.915C134.662 471.743 101.827 470.96 35.6148 457.963L36.3852 454.037C102.278 466.972 134.383 467.649 179.423 454.085L180.577 457.915Z" fill="black"/>
<rect width="42" height="50" fill="black" fill-opacity="0" transform="translate(26 322) scale(2)"/>
<rect width="65" height="15" fill="black" fill-opacity="0" transform="translate(0 352) scale(2)"/>
<rect width="6" height="15" fill="black" fill-opacity="0" transform="translate(118 352) scale(2)"/>
<path d="M119.793 361.145C121.152 361.145 122.176 361.895 122.863 363.395L124.609 367.367L127.598 361.32H129.789L125.664 369.77L128.219 375.605C128.695 376.605 129.199 377.117 129.73 377.141H130.035L130.879 377.082L130.328 378.934C130.141 379.051 129.902 379.109 129.613 379.109C128.902 379.109 128.312 378.926 127.844 378.559C127.375 378.191 126.898 377.484 126.414 376.438L124.516 372.102L121.223 378.863H118.926L123.461 369.676L121.492 365.141C120.922 363.711 120.219 362.996 119.383 362.996L118.586 363.055L118.574 361.32C119.105 361.203 119.512 361.145 119.793 361.145Z" fill="black"/>
<rect width="5" height="42" fill="black" fill-opacity="0" transform="translate(110 342) scale(-2 2) rotate(-90)"/>
<path d="M24.2086 332.889C23.7175 331.9 24.1213 330.7 25.1107 330.209L41.2333 322.205C42.2226 321.714 43.4228 322.117 43.914 323.107C44.4051 324.096 44.0013 325.296 43.0119 325.787L28.6807 332.902L35.7953 347.233C36.2865 348.223 35.8826 349.423 34.8933 349.914C33.9039 350.405 32.7037 350.001 32.2125 349.012L24.2086 332.889ZM110.917 333.777C97.4425 340.734 85.7552 344.092 72.4865 343.998C59.2907 343.904 44.6766 340.395 25.3622 333.896L26.6379 330.104C45.854 336.571 59.9755 339.909 72.5149 339.998C84.9815 340.087 96.0289 336.962 109.083 330.223L110.917 333.777Z" fill="black"/>
<path d="M287.641 636.113H280.246V642.16H288.836V644H277.996V626.938H288.719V628.789H280.246V634.273H287.641V636.113ZM295.551 635.949L298.363 631.32H300.895L296.746 637.59L301.023 644H298.516L295.586 639.254L292.656 644H290.137L294.414 637.59L290.266 631.32H292.773L295.551 635.949ZM311.031 644C310.906 643.75 310.805 643.305 310.727 642.664C309.719 643.711 308.516 644.234 307.117 644.234C305.867 644.234 304.84 643.883 304.035 643.18C303.238 642.469 302.84 641.57 302.84 640.484C302.84 639.164 303.34 638.141 304.34 637.414C305.348 636.68 306.762 636.312 308.582 636.312H310.691V635.316C310.691 634.559 310.465 633.957 310.012 633.512C309.559 633.059 308.891 632.832 308.008 632.832C307.234 632.832 306.586 633.027 306.062 633.418C305.539 633.809 305.277 634.281 305.277 634.836H303.098C303.098 634.203 303.32 633.594 303.766 633.008C304.219 632.414 304.828 631.945 305.594 631.602C306.367 631.258 307.215 631.086 308.137 631.086C309.598 631.086 310.742 631.453 311.57 632.188C312.398 632.914 312.828 633.918 312.859 635.199V641.035C312.859 642.199 313.008 643.125 313.305 643.812V644H311.031ZM307.434 642.348C308.113 642.348 308.758 642.172 309.367 641.82C309.977 641.469 310.418 641.012 310.691 640.449V637.848H308.992C306.336 637.848 305.008 638.625 305.008 640.18C305.008 640.859 305.234 641.391 305.688 641.773C306.141 642.156 306.723 642.348 307.434 642.348ZM318.297 631.32L318.355 632.727C319.285 631.633 320.539 631.086 322.117 631.086C323.891 631.086 325.098 631.766 325.738 633.125C326.16 632.516 326.707 632.023 327.379 631.648C328.059 631.273 328.859 631.086 329.781 631.086C332.562 631.086 333.977 632.559 334.023 635.504V644H331.855V635.633C331.855 634.727 331.648 634.051 331.234 633.605C330.82 633.152 330.125 632.926 329.148 632.926C328.344 632.926 327.676 633.168 327.145 633.652C326.613 634.129 326.305 634.773 326.219 635.586V644H324.039V635.691C324.039 633.848 323.137 632.926 321.332 632.926C319.91 632.926 318.938 633.531 318.414 634.742V644H316.246V631.32H318.297ZM348.016 637.801C348.016 639.73 347.574 641.285 346.691 642.465C345.809 643.645 344.613 644.234 343.105 644.234C341.566 644.234 340.355 643.746 339.473 642.77V648.875H337.305V631.32H339.285L339.391 632.727C340.273 631.633 341.5 631.086 343.07 631.086C344.594 631.086 345.797 631.66 346.68 632.809C347.57 633.957 348.016 635.555 348.016 637.602V637.801ZM345.848 637.555C345.848 636.125 345.543 634.996 344.934 634.168C344.324 633.34 343.488 632.926 342.426 632.926C341.113 632.926 340.129 633.508 339.473 634.672V640.73C340.121 641.887 341.113 642.465 342.449 642.465C343.488 642.465 344.312 642.055 344.922 641.234C345.539 640.406 345.848 639.18 345.848 637.555ZM353.137 644H350.969V626H353.137V644ZM361.879 644.234C360.16 644.234 358.762 643.672 357.684 642.547C356.605 641.414 356.066 639.902 356.066 638.012V637.613C356.066 636.355 356.305 635.234 356.781 634.25C357.266 633.258 357.938 632.484 358.797 631.93C359.664 631.367 360.602 631.086 361.609 631.086C363.258 631.086 364.539 631.629 365.453 632.715C366.367 633.801 366.824 635.355 366.824 637.379V638.281H358.234C358.266 639.531 358.629 640.543 359.324 641.316C360.027 642.082 360.918 642.465 361.996 642.465C362.762 642.465 363.41 642.309 363.941 641.996C364.473 641.684 364.938 641.27 365.336 640.754L366.66 641.785C365.598 643.418 364.004 644.234 361.879 644.234ZM361.609 632.867C360.734 632.867 360 633.188 359.406 633.828C358.812 634.461 358.445 635.352 358.305 636.5H364.656V636.336C364.594 635.234 364.297 634.383 363.766 633.781C363.234 633.172 362.516 632.867 361.609 632.867ZM369.273 642.863C369.273 642.488 369.383 642.176 369.602 641.926C369.828 641.676 370.164 641.551 370.609 641.551C371.055 641.551 371.391 641.676 371.617 641.926C371.852 642.176 371.969 642.488 371.969 642.863C371.969 643.223 371.852 643.523 371.617 643.766C371.391 644.008 371.055 644.129 370.609 644.129C370.164 644.129 369.828 644.008 369.602 643.766C369.383 643.523 369.273 643.223 369.273 642.863ZM369.285 632.516C369.285 632.141 369.395 631.828 369.613 631.578C369.84 631.328 370.176 631.203 370.621 631.203C371.066 631.203 371.402 631.328 371.629 631.578C371.863 631.828 371.98 632.141 371.98 632.516C371.98 632.875 371.863 633.176 371.629 633.418C371.402 633.66 371.066 633.781 370.621 633.781C370.176 633.781 369.84 633.66 369.613 633.418C369.395 633.176 369.285 632.875 369.285 632.516ZM392.77 628.789H387.285V644H385.047V628.789H379.574V626.938H392.77V628.789ZM397.129 632.855C398.09 631.676 399.34 631.086 400.879 631.086C403.559 631.086 404.91 632.598 404.934 635.621V644H402.766V635.609C402.758 634.695 402.547 634.02 402.133 633.582C401.727 633.145 401.09 632.926 400.223 632.926C399.52 632.926 398.902 633.113 398.371 633.488C397.84 633.863 397.426 634.355 397.129 634.965V644H394.961V626H397.129V632.855ZM410.535 644H408.367V631.32H410.535V644ZM408.191 627.957C408.191 627.605 408.297 627.309 408.508 627.066C408.727 626.824 409.047 626.703 409.469 626.703C409.891 626.703 410.211 626.824 410.43 627.066C410.648 627.309 410.758 627.605 410.758 627.957C410.758 628.309 410.648 628.602 410.43 628.836C410.211 629.07 409.891 629.188 409.469 629.188C409.047 629.188 408.727 629.07 408.508 628.836C408.297 628.602 408.191 628.309 408.191 627.957ZM421.398 640.637C421.398 640.051 421.176 639.598 420.73 639.277C420.293 638.949 419.523 638.668 418.422 638.434C417.328 638.199 416.457 637.918 415.809 637.59C415.168 637.262 414.691 636.871 414.379 636.418C414.074 635.965 413.922 635.426 413.922 634.801C413.922 633.762 414.359 632.883 415.234 632.164C416.117 631.445 417.242 631.086 418.609 631.086C420.047 631.086 421.211 631.457 422.102 632.199C423 632.941 423.449 633.891 423.449 635.047H421.27C421.27 634.453 421.016 633.941 420.508 633.512C420.008 633.082 419.375 632.867 418.609 632.867C417.82 632.867 417.203 633.039 416.758 633.383C416.312 633.727 416.09 634.176 416.09 634.73C416.09 635.254 416.297 635.648 416.711 635.914C417.125 636.18 417.871 636.434 418.949 636.676C420.035 636.918 420.914 637.207 421.586 637.543C422.258 637.879 422.754 638.285 423.074 638.762C423.402 639.23 423.566 639.805 423.566 640.484C423.566 641.617 423.113 642.527 422.207 643.215C421.301 643.895 420.125 644.234 418.68 644.234C417.664 644.234 416.766 644.055 415.984 643.695C415.203 643.336 414.59 642.836 414.145 642.195C413.707 641.547 413.488 640.848 413.488 640.098H415.656C415.695 640.824 415.984 641.402 416.523 641.832C417.07 642.254 417.789 642.465 418.68 642.465C419.5 642.465 420.156 642.301 420.648 641.973C421.148 641.637 421.398 641.191 421.398 640.637ZM434.699 644H432.531V631.32H434.699V644ZM432.355 627.957C432.355 627.605 432.461 627.309 432.672 627.066C432.891 626.824 433.211 626.703 433.633 626.703C434.055 626.703 434.375 626.824 434.594 627.066C434.812 627.309 434.922 627.605 434.922 627.957C434.922 628.309 434.812 628.602 434.594 628.836C434.375 629.07 434.055 629.188 433.633 629.188C433.211 629.188 432.891 629.07 432.672 628.836C432.461 628.602 432.355 628.309 432.355 627.957ZM445.562 640.637C445.562 640.051 445.34 639.598 444.895 639.277C444.457 638.949 443.688 638.668 442.586 638.434C441.492 638.199 440.621 637.918 439.973 637.59C439.332 637.262 438.855 636.871 438.543 636.418C438.238 635.965 438.086 635.426 438.086 634.801C438.086 633.762 438.523 632.883 439.398 632.164C440.281 631.445 441.406 631.086 442.773 631.086C444.211 631.086 445.375 631.457 446.266 632.199C447.164 632.941 447.613 633.891 447.613 635.047H445.434C445.434 634.453 445.18 633.941 444.672 633.512C444.172 633.082 443.539 632.867 442.773 632.867C441.984 632.867 441.367 633.039 440.922 633.383C440.477 633.727 440.254 634.176 440.254 634.73C440.254 635.254 440.461 635.648 440.875 635.914C441.289 636.18 442.035 636.434 443.113 636.676C444.199 636.918 445.078 637.207 445.75 637.543C446.422 637.879 446.918 638.285 447.238 638.762C447.566 639.23 447.73 639.805 447.73 640.484C447.73 641.617 447.277 642.527 446.371 643.215C445.465 643.895 444.289 644.234 442.844 644.234C441.828 644.234 440.93 644.055 440.148 643.695C439.367 643.336 438.754 642.836 438.309 642.195C437.871 641.547 437.652 640.848 437.652 640.098H439.82C439.859 640.824 440.148 641.402 440.688 641.832C441.234 642.254 441.953 642.465 442.844 642.465C443.664 642.465 444.32 642.301 444.812 641.973C445.312 641.637 445.562 641.191 445.562 640.637ZM464.336 644C464.211 643.75 464.109 643.305 464.031 642.664C463.023 643.711 461.82 644.234 460.422 644.234C459.172 644.234 458.145 643.883 457.34 643.18C456.543 642.469 456.145 641.57 456.145 640.484C456.145 639.164 456.645 638.141 457.645 637.414C458.652 636.68 460.066 636.312 461.887 636.312H463.996V635.316C463.996 634.559 463.77 633.957 463.316 633.512C462.863 633.059 462.195 632.832 461.312 632.832C460.539 632.832 459.891 633.027 459.367 633.418C458.844 633.809 458.582 634.281 458.582 634.836H456.402C456.402 634.203 456.625 633.594 457.07 633.008C457.523 632.414 458.133 631.945 458.898 631.602C459.672 631.258 460.52 631.086 461.441 631.086C462.902 631.086 464.047 631.453 464.875 632.188C465.703 632.914 466.133 633.918 466.164 635.199V641.035C466.164 642.199 466.312 643.125 466.609 643.812V644H464.336ZM460.738 642.348C461.418 642.348 462.062 642.172 462.672 641.82C463.281 641.469 463.723 641.012 463.996 640.449V637.848H462.297C459.641 637.848 458.312 638.625 458.312 640.18C458.312 640.859 458.539 641.391 458.992 641.773C459.445 642.156 460.027 642.348 460.738 642.348ZM481.645 633.266C481.316 633.211 480.961 633.184 480.578 633.184C479.156 633.184 478.191 633.789 477.684 635V644H475.516V631.32H477.625L477.66 632.785C478.371 631.652 479.379 631.086 480.684 631.086C481.105 631.086 481.426 631.141 481.645 631.25V633.266ZM488.676 644.234C486.957 644.234 485.559 643.672 484.48 642.547C483.402 641.414 482.863 639.902 482.863 638.012V637.613C482.863 636.355 483.102 635.234 483.578 634.25C484.062 633.258 484.734 632.484 485.594 631.93C486.461 631.367 487.398 631.086 488.406 631.086C490.055 631.086 491.336 631.629 492.25 632.715C493.164 633.801 493.621 635.355 493.621 637.379V638.281H485.031C485.062 639.531 485.426 640.543 486.121 641.316C486.824 642.082 487.715 642.465 488.793 642.465C489.559 642.465 490.207 642.309 490.738 641.996C491.27 641.684 491.734 641.27 492.133 640.754L493.457 641.785C492.395 643.418 490.801 644.234 488.676 644.234ZM488.406 632.867C487.531 632.867 486.797 633.188 486.203 633.828C485.609 634.461 485.242 635.352 485.102 636.5H491.453V636.336C491.391 635.234 491.094 634.383 490.562 633.781C490.031 633.172 489.312 632.867 488.406 632.867ZM500.652 637.637H494.934V635.867H500.652V637.637ZM507.859 642.465C508.633 642.465 509.309 642.23 509.887 641.762C510.465 641.293 510.785 640.707 510.848 640.004H512.898C512.859 640.73 512.609 641.422 512.148 642.078C511.688 642.734 511.07 643.258 510.297 643.648C509.531 644.039 508.719 644.234 507.859 644.234C506.133 644.234 504.758 643.66 503.734 642.512C502.719 641.355 502.211 639.777 502.211 637.777V637.414C502.211 636.18 502.438 635.082 502.891 634.121C503.344 633.16 503.992 632.414 504.836 631.883C505.688 631.352 506.691 631.086 507.848 631.086C509.27 631.086 510.449 631.512 511.387 632.363C512.332 633.215 512.836 634.32 512.898 635.68H510.848C510.785 634.859 510.473 634.188 509.91 633.664C509.355 633.133 508.668 632.867 507.848 632.867C506.746 632.867 505.891 633.266 505.281 634.062C504.68 634.852 504.379 635.996 504.379 637.496V637.906C504.379 639.367 504.68 640.492 505.281 641.281C505.883 642.07 506.742 642.465 507.859 642.465ZM521.465 633.266C521.137 633.211 520.781 633.184 520.398 633.184C518.977 633.184 518.012 633.789 517.504 635V644H515.336V631.32H517.445L517.48 632.785C518.191 631.652 519.199 631.086 520.504 631.086C520.926 631.086 521.246 631.141 521.465 631.25V633.266ZM528.496 644.234C526.777 644.234 525.379 643.672 524.301 642.547C523.223 641.414 522.684 639.902 522.684 638.012V637.613C522.684 636.355 522.922 635.234 523.398 634.25C523.883 633.258 524.555 632.484 525.414 631.93C526.281 631.367 527.219 631.086 528.227 631.086C529.875 631.086 531.156 631.629 532.07 632.715C532.984 633.801 533.441 635.355 533.441 637.379V638.281H524.852C524.883 639.531 525.246 640.543 525.941 641.316C526.645 642.082 527.535 642.465 528.613 642.465C529.379 642.465 530.027 642.309 530.559 641.996C531.09 641.684 531.555 641.27 531.953 640.754L533.277 641.785C532.215 643.418 530.621 644.234 528.496 644.234ZM528.227 632.867C527.352 632.867 526.617 633.188 526.023 633.828C525.43 634.461 525.062 635.352 524.922 636.5H531.273V636.336C531.211 635.234 530.914 634.383 530.383 633.781C529.852 633.172 529.133 632.867 528.227 632.867ZM543.789 644C543.664 643.75 543.562 643.305 543.484 642.664C542.477 643.711 541.273 644.234 539.875 644.234C538.625 644.234 537.598 643.883 536.793 643.18C535.996 642.469 535.598 641.57 535.598 640.484C535.598 639.164 536.098 638.141 537.098 637.414C538.105 636.68 539.52 636.312 541.34 636.312H543.449V635.316C543.449 634.559 543.223 633.957 542.77 633.512C542.316 633.059 541.648 632.832 540.766 632.832C539.992 632.832 539.344 633.027 538.82 633.418C538.297 633.809 538.035 634.281 538.035 634.836H535.855C535.855 634.203 536.078 633.594 536.523 633.008C536.977 632.414 537.586 631.945 538.352 631.602C539.125 631.258 539.973 631.086 540.895 631.086C542.355 631.086 543.5 631.453 544.328 632.188C545.156 632.914 545.586 633.918 545.617 635.199V641.035C545.617 642.199 545.766 643.125 546.062 643.812V644H543.789ZM540.191 642.348C540.871 642.348 541.516 642.172 542.125 641.82C542.734 641.469 543.176 641.012 543.449 640.449V637.848H541.75C539.094 637.848 537.766 638.625 537.766 640.18C537.766 640.859 537.992 641.391 538.445 641.773C538.898 642.156 539.48 642.348 540.191 642.348ZM551.957 628.25V631.32H554.324V632.996H551.957V640.859C551.957 641.367 552.062 641.75 552.273 642.008C552.484 642.258 552.844 642.383 553.352 642.383C553.602 642.383 553.945 642.336 554.383 642.242V644C553.812 644.156 553.258 644.234 552.719 644.234C551.75 644.234 551.02 643.941 550.527 643.355C550.035 642.77 549.789 641.938 549.789 640.859V632.996H547.48V631.32H549.789V628.25H551.957ZM559.223 644H557.055V631.32H559.223V644ZM556.879 627.957C556.879 627.605 556.984 627.309 557.195 627.066C557.414 626.824 557.734 626.703 558.156 626.703C558.578 626.703 558.898 626.824 559.117 627.066C559.336 627.309 559.445 627.605 559.445 627.957C559.445 628.309 559.336 628.602 559.117 628.836C558.898 629.07 558.578 629.188 558.156 629.188C557.734 629.188 557.414 629.07 557.195 628.836C556.984 628.602 556.879 628.309 556.879 627.957ZM562.129 637.543C562.129 636.301 562.371 635.184 562.855 634.191C563.348 633.199 564.027 632.434 564.895 631.895C565.77 631.355 566.766 631.086 567.883 631.086C569.609 631.086 571.004 631.684 572.066 632.879C573.137 634.074 573.672 635.664 573.672 637.648V637.801C573.672 639.035 573.434 640.145 572.957 641.129C572.488 642.105 571.812 642.867 570.93 643.414C570.055 643.961 569.047 644.234 567.906 644.234C566.188 644.234 564.793 643.637 563.723 642.441C562.66 641.246 562.129 639.664 562.129 637.695V637.543ZM564.309 637.801C564.309 639.207 564.633 640.336 565.281 641.188C565.938 642.039 566.812 642.465 567.906 642.465C569.008 642.465 569.883 642.035 570.531 641.176C571.18 640.309 571.504 639.098 571.504 637.543C571.504 636.152 571.172 635.027 570.508 634.168C569.852 633.301 568.977 632.867 567.883 632.867C566.812 632.867 565.949 633.293 565.293 634.145C564.637 634.996 564.309 636.215 564.309 637.801ZM578.441 631.32L578.512 632.914C579.48 631.695 580.746 631.086 582.309 631.086C584.988 631.086 586.34 632.598 586.363 635.621V644H584.195V635.609C584.188 634.695 583.977 634.02 583.562 633.582C583.156 633.145 582.52 632.926 581.652 632.926C580.949 632.926 580.332 633.113 579.801 633.488C579.27 633.863 578.855 634.355 578.559 634.965V644H576.391V631.32H578.441ZM595.012 637.543C595.012 636.301 595.254 635.184 595.738 634.191C596.23 633.199 596.91 632.434 597.777 631.895C598.652 631.355 599.648 631.086 600.766 631.086C602.492 631.086 603.887 631.684 604.949 632.879C606.02 634.074 606.555 635.664 606.555 637.648V637.801C606.555 639.035 606.316 640.145 605.84 641.129C605.371 642.105 604.695 642.867 603.812 643.414C602.938 643.961 601.93 644.234 600.789 644.234C599.07 644.234 597.676 643.637 596.605 642.441C595.543 641.246 595.012 639.664 595.012 637.695V637.543ZM597.191 637.801C597.191 639.207 597.516 640.336 598.164 641.188C598.82 642.039 599.695 642.465 600.789 642.465C601.891 642.465 602.766 642.035 603.414 641.176C604.062 640.309 604.387 639.098 604.387 637.543C604.387 636.152 604.055 635.027 603.391 634.168C602.734 633.301 601.859 632.867 600.766 632.867C599.695 632.867 598.832 633.293 598.176 634.145C597.52 634.996 597.191 636.215 597.191 637.801ZM610.34 644V632.996H608.336V631.32H610.34V630.02C610.34 628.66 610.703 627.609 611.43 626.867C612.156 626.125 613.184 625.754 614.512 625.754C615.012 625.754 615.508 625.82 616 625.953L615.883 627.711C615.516 627.641 615.125 627.605 614.711 627.605C614.008 627.605 613.465 627.812 613.082 628.227C612.699 628.633 612.508 629.219 612.508 629.984V631.32H615.215V632.996H612.508V644H610.34ZM631.398 644C631.273 643.75 631.172 643.305 631.094 642.664C630.086 643.711 628.883 644.234 627.484 644.234C626.234 644.234 625.207 643.883 624.402 643.18C623.605 642.469 623.207 641.57 623.207 640.484C623.207 639.164 623.707 638.141 624.707 637.414C625.715 636.68 627.129 636.312 628.949 636.312H631.059V635.316C631.059 634.559 630.832 633.957 630.379 633.512C629.926 633.059 629.258 632.832 628.375 632.832C627.602 632.832 626.953 633.027 626.43 633.418C625.906 633.809 625.645 634.281 625.645 634.836H623.465C623.465 634.203 623.688 633.594 624.133 633.008C624.586 632.414 625.195 631.945 625.961 631.602C626.734 631.258 627.582 631.086 628.504 631.086C629.965 631.086 631.109 631.453 631.938 632.188C632.766 632.914 633.195 633.918 633.227 635.199V641.035C633.227 642.199 633.375 643.125 633.672 643.812V644H631.398ZM627.801 642.348C628.48 642.348 629.125 642.172 629.734 641.82C630.344 641.469 630.785 641.012 631.059 640.449V637.848H629.359C626.703 637.848 625.375 638.625 625.375 640.18C625.375 640.859 625.602 641.391 626.055 641.773C626.508 642.156 627.09 642.348 627.801 642.348ZM638.676 631.32L638.746 632.914C639.715 631.695 640.98 631.086 642.543 631.086C645.223 631.086 646.574 632.598 646.598 635.621V644H644.43V635.609C644.422 634.695 644.211 634.02 643.797 633.582C643.391 633.145 642.754 632.926 641.887 632.926C641.184 632.926 640.566 633.113 640.035 633.488C639.504 633.863 639.09 634.355 638.793 634.965V644H636.625V631.32H638.676ZM661.082 644.234C659.363 644.234 657.965 643.672 656.887 642.547C655.809 641.414 655.27 639.902 655.27 638.012V637.613C655.27 636.355 655.508 635.234 655.984 634.25C656.469 633.258 657.141 632.484 658 631.93C658.867 631.367 659.805 631.086 660.812 631.086C662.461 631.086 663.742 631.629 664.656 632.715C665.57 633.801 666.027 635.355 666.027 637.379V638.281H657.438C657.469 639.531 657.832 640.543 658.527 641.316C659.23 642.082 660.121 642.465 661.199 642.465C661.965 642.465 662.613 642.309 663.145 641.996C663.676 641.684 664.141 641.27 664.539 640.754L665.863 641.785C664.801 643.418 663.207 644.234 661.082 644.234ZM660.812 632.867C659.938 632.867 659.203 633.188 658.609 633.828C658.016 634.461 657.648 635.352 657.508 636.5H663.859V636.336C663.797 635.234 663.5 634.383 662.969 633.781C662.438 633.172 661.719 632.867 660.812 632.867ZM672.801 635.949L675.613 631.32H678.145L673.996 637.59L678.273 644H675.766L672.836 639.254L669.906 644H667.387L671.664 637.59L667.516 631.32H670.023L672.801 635.949ZM688.281 644C688.156 643.75 688.055 643.305 687.977 642.664C686.969 643.711 685.766 644.234 684.367 644.234C683.117 644.234 682.09 643.883 681.285 643.18C680.488 642.469 680.09 641.57 680.09 640.484C680.09 639.164 680.59 638.141 681.59 637.414C682.598 636.68 684.012 636.312 685.832 636.312H687.941V635.316C687.941 634.559 687.715 633.957 687.262 633.512C686.809 633.059 686.141 632.832 685.258 632.832C684.484 632.832 683.836 633.027 683.312 633.418C682.789 633.809 682.527 634.281 682.527 634.836H680.348C680.348 634.203 680.57 633.594 681.016 633.008C681.469 632.414 682.078 631.945 682.844 631.602C683.617 631.258 684.465 631.086 685.387 631.086C686.848 631.086 687.992 631.453 688.82 632.188C689.648 632.914 690.078 633.918 690.109 635.199V641.035C690.109 642.199 690.258 643.125 690.555 643.812V644H688.281ZM684.684 642.348C685.363 642.348 686.008 642.172 686.617 641.82C687.227 641.469 687.668 641.012 687.941 640.449V637.848H686.242C683.586 637.848 682.258 638.625 682.258 640.18C682.258 640.859 682.484 641.391 682.938 641.773C683.391 642.156 683.973 642.348 684.684 642.348ZM695.547 631.32L695.605 632.727C696.535 631.633 697.789 631.086 699.367 631.086C701.141 631.086 702.348 631.766 702.988 633.125C703.41 632.516 703.957 632.023 704.629 631.648C705.309 631.273 706.109 631.086 707.031 631.086C709.812 631.086 711.227 632.559 711.273 635.504V644H709.105V635.633C709.105 634.727 708.898 634.051 708.484 633.605C708.07 633.152 707.375 632.926 706.398 632.926C705.594 632.926 704.926 633.168 704.395 633.652C703.863 634.129 703.555 634.773 703.469 635.586V644H701.289V635.691C701.289 633.848 700.387 632.926 698.582 632.926C697.16 632.926 696.188 633.531 695.664 634.742V644H693.496V631.32H695.547ZM725.266 637.801C725.266 639.73 724.824 641.285 723.941 642.465C723.059 643.645 721.863 644.234 720.355 644.234C718.816 644.234 717.605 643.746 716.723 642.77V648.875H714.555V631.32H716.535L716.641 632.727C717.523 631.633 718.75 631.086 720.32 631.086C721.844 631.086 723.047 631.66 723.93 632.809C724.82 633.957 725.266 635.555 725.266 637.602V637.801ZM723.098 637.555C723.098 636.125 722.793 634.996 722.184 634.168C721.574 633.34 720.738 632.926 719.676 632.926C718.363 632.926 717.379 633.508 716.723 634.672V640.73C717.371 641.887 718.363 642.465 719.699 642.465C720.738 642.465 721.562 642.055 722.172 641.234C722.789 640.406 723.098 639.18 723.098 637.555ZM730.387 644H728.219V626H730.387V644ZM739.129 644.234C737.41 644.234 736.012 643.672 734.934 642.547C733.855 641.414 733.316 639.902 733.316 638.012V637.613C733.316 636.355 733.555 635.234 734.031 634.25C734.516 633.258 735.188 632.484 736.047 631.93C736.914 631.367 737.852 631.086 738.859 631.086C740.508 631.086 741.789 631.629 742.703 632.715C743.617 633.801 744.074 635.355 744.074 637.379V638.281H735.484C735.516 639.531 735.879 640.543 736.574 641.316C737.277 642.082 738.168 642.465 739.246 642.465C740.012 642.465 740.66 642.309 741.191 641.996C741.723 641.684 742.188 641.27 742.586 640.754L743.91 641.785C742.848 643.418 741.254 644.234 739.129 644.234ZM738.859 632.867C737.984 632.867 737.25 633.188 736.656 633.828C736.062 634.461 735.695 635.352 735.555 636.5H741.906V636.336C741.844 635.234 741.547 634.383 741.016 633.781C740.484 633.172 739.766 632.867 738.859 632.867ZM754.902 644H752.734V631.32H754.902V644ZM752.559 627.957C752.559 627.605 752.664 627.309 752.875 627.066C753.094 626.824 753.414 626.703 753.836 626.703C754.258 626.703 754.578 626.824 754.797 627.066C755.016 627.309 755.125 627.605 755.125 627.957C755.125 628.309 755.016 628.602 754.797 628.836C754.578 629.07 754.258 629.188 753.836 629.188C753.414 629.188 753.094 629.07 752.875 628.836C752.664 628.602 752.559 628.309 752.559 627.957ZM760.434 631.32L760.504 632.914C761.473 631.695 762.738 631.086 764.301 631.086C766.98 631.086 768.332 632.598 768.355 635.621V644H766.188V635.609C766.18 634.695 765.969 634.02 765.555 633.582C765.148 633.145 764.512 632.926 763.645 632.926C762.941 632.926 762.324 633.113 761.793 633.488C761.262 633.863 760.848 634.355 760.551 634.965V644H758.383V631.32H760.434ZM130.363 660.855C131.324 659.676 132.574 659.086 134.113 659.086C136.793 659.086 138.145 660.598 138.168 663.621V672H136V663.609C135.992 662.695 135.781 662.02 135.367 661.582C134.961 661.145 134.324 660.926 133.457 660.926C132.754 660.926 132.137 661.113 131.605 661.488C131.074 661.863 130.66 662.355 130.363 662.965V672H128.195V654H130.363V660.855ZM144.355 656.25V659.32H146.723V660.996H144.355V668.859C144.355 669.367 144.461 669.75 144.672 670.008C144.883 670.258 145.242 670.383 145.75 670.383C146 670.383 146.344 670.336 146.781 670.242V672C146.211 672.156 145.656 672.234 145.117 672.234C144.148 672.234 143.418 671.941 142.926 671.355C142.434 670.77 142.188 669.938 142.188 668.859V660.996H139.879V659.32H142.188V656.25H144.355ZM152.207 656.25V659.32H154.574V660.996H152.207V668.859C152.207 669.367 152.312 669.75 152.523 670.008C152.734 670.258 153.094 670.383 153.602 670.383C153.852 670.383 154.195 670.336 154.633 670.242V672C154.062 672.156 153.508 672.234 152.969 672.234C152 672.234 151.27 671.941 150.777 671.355C150.285 670.77 150.039 669.938 150.039 668.859V660.996H147.73V659.32H150.039V656.25H152.207ZM167.828 665.801C167.828 667.73 167.387 669.285 166.504 670.465C165.621 671.645 164.426 672.234 162.918 672.234C161.379 672.234 160.168 671.746 159.285 670.77V676.875H157.117V659.32H159.098L159.203 660.727C160.086 659.633 161.312 659.086 162.883 659.086C164.406 659.086 165.609 659.66 166.492 660.809C167.383 661.957 167.828 663.555 167.828 665.602V665.801ZM165.66 665.555C165.66 664.125 165.355 662.996 164.746 662.168C164.137 661.34 163.301 660.926 162.238 660.926C160.926 660.926 159.941 661.508 159.285 662.672V668.73C159.934 669.887 160.926 670.465 162.262 670.465C163.301 670.465 164.125 670.055 164.734 669.234C165.352 668.406 165.66 667.18 165.66 665.555ZM170.523 670.863C170.523 670.488 170.633 670.176 170.852 669.926C171.078 669.676 171.414 669.551 171.859 669.551C172.305 669.551 172.641 669.676 172.867 669.926C173.102 670.176 173.219 670.488 173.219 670.863C173.219 671.223 173.102 671.523 172.867 671.766C172.641 672.008 172.305 672.129 171.859 672.129C171.414 672.129 171.078 672.008 170.852 671.766C170.633 671.523 170.523 671.223 170.523 670.863ZM170.535 660.516C170.535 660.141 170.645 659.828 170.863 659.578C171.09 659.328 171.426 659.203 171.871 659.203C172.316 659.203 172.652 659.328 172.879 659.578C173.113 659.828 173.23 660.141 173.23 660.516C173.23 660.875 173.113 661.176 172.879 661.418C172.652 661.66 172.316 661.781 171.871 661.781C171.426 661.781 171.09 661.66 170.863 661.418C170.645 661.176 170.535 660.875 170.535 660.516ZM176.84 673.465H174.977L182.102 654.938H183.953L176.84 673.465ZM184.105 673.465H182.242L189.367 654.938H191.219L184.105 673.465ZM204.789 669.012L207.227 659.32H209.395L205.703 672H203.945L200.863 662.391L197.863 672H196.105L192.426 659.32H194.582L197.078 668.812L200.031 659.32H201.777L204.789 669.012ZM222.836 669.012L225.273 659.32H227.441L223.75 672H221.992L218.91 662.391L215.91 672H214.152L210.473 659.32H212.629L215.125 668.812L218.078 659.32H219.824L222.836 669.012ZM240.883 669.012L243.32 659.32H245.488L241.797 672H240.039L236.957 662.391L233.957 672H232.199L228.52 659.32H230.676L233.172 668.812L236.125 659.32H237.871L240.883 669.012ZM246.297 670.863C246.297 670.488 246.406 670.176 246.625 669.926C246.852 669.676 247.188 669.551 247.633 669.551C248.078 669.551 248.414 669.676 248.641 669.926C248.875 670.176 248.992 670.488 248.992 670.863C248.992 671.223 248.875 671.523 248.641 671.766C248.414 672.008 248.078 672.129 247.633 672.129C247.188 672.129 246.852 672.008 246.625 671.766C246.406 671.523 246.297 671.223 246.297 670.863ZM263.805 669.012L266.242 659.32H268.41L264.719 672H262.961L259.879 662.391L256.879 672H255.121L251.441 659.32H253.598L256.094 668.812L259.047 659.32H260.793L263.805 669.012ZM272.98 672H270.812V659.32H272.98V672ZM270.637 655.957C270.637 655.605 270.742 655.309 270.953 655.066C271.172 654.824 271.492 654.703 271.914 654.703C272.336 654.703 272.656 654.824 272.875 655.066C273.094 655.309 273.203 655.605 273.203 655.957C273.203 656.309 273.094 656.602 272.875 656.836C272.656 657.07 272.336 657.188 271.914 657.188C271.492 657.188 271.172 657.07 270.953 656.836C270.742 656.602 270.637 656.309 270.637 655.957ZM283.844 668.637C283.844 668.051 283.621 667.598 283.176 667.277C282.738 666.949 281.969 666.668 280.867 666.434C279.773 666.199 278.902 665.918 278.254 665.59C277.613 665.262 277.137 664.871 276.824 664.418C276.52 663.965 276.367 663.426 276.367 662.801C276.367 661.762 276.805 660.883 277.68 660.164C278.562 659.445 279.688 659.086 281.055 659.086C282.492 659.086 283.656 659.457 284.547 660.199C285.445 660.941 285.895 661.891 285.895 663.047H283.715C283.715 662.453 283.461 661.941 282.953 661.512C282.453 661.082 281.82 660.867 281.055 660.867C280.266 660.867 279.648 661.039 279.203 661.383C278.758 661.727 278.535 662.176 278.535 662.73C278.535 663.254 278.742 663.648 279.156 663.914C279.57 664.18 280.316 664.434 281.395 664.676C282.48 664.918 283.359 665.207 284.031 665.543C284.703 665.879 285.199 666.285 285.52 666.762C285.848 667.23 286.012 667.805 286.012 668.484C286.012 669.617 285.559 670.527 284.652 671.215C283.746 671.895 282.57 672.234 281.125 672.234C280.109 672.234 279.211 672.055 278.43 671.695C277.648 671.336 277.035 670.836 276.59 670.195C276.152 669.547 275.934 668.848 275.934 668.098H278.102C278.141 668.824 278.43 669.402 278.969 669.832C279.516 670.254 280.234 670.465 281.125 670.465C281.945 670.465 282.602 670.301 283.094 669.973C283.594 669.637 283.844 669.191 283.844 668.637ZM288.309 665.555C288.309 663.609 288.77 662.047 289.691 660.867C290.613 659.68 291.82 659.086 293.312 659.086C294.797 659.086 295.973 659.594 296.84 660.609V654H299.008V672H297.016L296.91 670.641C296.043 671.703 294.836 672.234 293.289 672.234C291.82 672.234 290.621 671.633 289.691 670.43C288.77 669.227 288.309 667.656 288.309 665.719V665.555ZM290.477 665.801C290.477 667.238 290.773 668.363 291.367 669.176C291.961 669.988 292.781 670.395 293.828 670.395C295.203 670.395 296.207 669.777 296.84 668.543V662.719C296.191 661.523 295.195 660.926 293.852 660.926C292.789 660.926 291.961 661.336 291.367 662.156C290.773 662.977 290.477 664.191 290.477 665.801ZM301.809 665.543C301.809 664.301 302.051 663.184 302.535 662.191C303.027 661.199 303.707 660.434 304.574 659.895C305.449 659.355 306.445 659.086 307.562 659.086C309.289 659.086 310.684 659.684 311.746 660.879C312.816 662.074 313.352 663.664 313.352 665.648V665.801C313.352 667.035 313.113 668.145 312.637 669.129C312.168 670.105 311.492 670.867 310.609 671.414C309.734 671.961 308.727 672.234 307.586 672.234C305.867 672.234 304.473 671.637 303.402 670.441C302.34 669.246 301.809 667.664 301.809 665.695V665.543ZM303.988 665.801C303.988 667.207 304.312 668.336 304.961 669.188C305.617 670.039 306.492 670.465 307.586 670.465C308.688 670.465 309.562 670.035 310.211 669.176C310.859 668.309 311.184 667.098 311.184 665.543C311.184 664.152 310.852 663.027 310.188 662.168C309.531 661.301 308.656 660.867 307.562 660.867C306.492 660.867 305.629 661.293 304.973 662.145C304.316 662.996 303.988 664.215 303.988 665.801ZM318.109 659.32L318.168 660.727C319.098 659.633 320.352 659.086 321.93 659.086C323.703 659.086 324.91 659.766 325.551 661.125C325.973 660.516 326.52 660.023 327.191 659.648C327.871 659.273 328.672 659.086 329.594 659.086C332.375 659.086 333.789 660.559 333.836 663.504V672H331.668V663.633C331.668 662.727 331.461 662.051 331.047 661.605C330.633 661.152 329.938 660.926 328.961 660.926C328.156 660.926 327.488 661.168 326.957 661.652C326.426 662.129 326.117 662.773 326.031 663.586V672H323.852V663.691C323.852 661.848 322.949 660.926 321.145 660.926C319.723 660.926 318.75 661.531 318.227 662.742V672H316.059V659.32H318.109ZM337.164 670.863C337.164 670.488 337.273 670.176 337.492 669.926C337.719 669.676 338.055 669.551 338.5 669.551C338.945 669.551 339.281 669.676 339.508 669.926C339.742 670.176 339.859 670.488 339.859 670.863C339.859 671.223 339.742 671.523 339.508 671.766C339.281 672.008 338.945 672.129 338.5 672.129C338.055 672.129 337.719 672.008 337.492 671.766C337.273 671.523 337.164 671.223 337.164 670.863ZM354.672 669.012L357.109 659.32H359.277L355.586 672H353.828L350.746 662.391L347.746 672H345.988L342.309 659.32H344.465L346.961 668.812L349.914 659.32H351.66L354.672 669.012ZM366.754 672.234C365.035 672.234 363.637 671.672 362.559 670.547C361.48 669.414 360.941 667.902 360.941 666.012V665.613C360.941 664.355 361.18 663.234 361.656 662.25C362.141 661.258 362.812 660.484 363.672 659.93C364.539 659.367 365.477 659.086 366.484 659.086C368.133 659.086 369.414 659.629 370.328 660.715C371.242 661.801 371.699 663.355 371.699 665.379V666.281H363.109C363.141 667.531 363.504 668.543 364.199 669.316C364.902 670.082 365.793 670.465 366.871 670.465C367.637 670.465 368.285 670.309 368.816 669.996C369.348 669.684 369.812 669.27 370.211 668.754L371.535 669.785C370.473 671.418 368.879 672.234 366.754 672.234ZM366.484 660.867C365.609 660.867 364.875 661.188 364.281 661.828C363.688 662.461 363.32 663.352 363.18 664.5H369.531V664.336C369.469 663.234 369.172 662.383 368.641 661.781C368.109 661.172 367.391 660.867 366.484 660.867ZM376.574 672H374.406V659.32H376.574V672ZM374.23 655.957C374.23 655.605 374.336 655.309 374.547 655.066C374.766 654.824 375.086 654.703 375.508 654.703C375.93 654.703 376.25 654.824 376.469 655.066C376.688 655.309 376.797 655.605 376.797 655.957C376.797 656.309 376.688 656.602 376.469 656.836C376.25 657.07 375.93 657.188 375.508 657.188C375.086 657.188 374.766 657.07 374.547 656.836C374.336 656.602 374.23 656.309 374.23 655.957ZM382.094 670.23H389.512V672H379.445V670.406L386.441 661.113H379.551V659.32H389.16V660.855L382.094 670.23ZM394 659.32L394.059 660.727C394.988 659.633 396.242 659.086 397.82 659.086C399.594 659.086 400.801 659.766 401.441 661.125C401.863 660.516 402.41 660.023 403.082 659.648C403.762 659.273 404.562 659.086 405.484 659.086C408.266 659.086 409.68 660.559 409.727 663.504V672H407.559V663.633C407.559 662.727 407.352 662.051 406.938 661.605C406.523 661.152 405.828 660.926 404.852 660.926C404.047 660.926 403.379 661.168 402.848 661.652C402.316 662.129 402.008 662.773 401.922 663.586V672H399.742V663.691C399.742 661.848 398.84 660.926 397.035 660.926C395.613 660.926 394.641 661.531 394.117 662.742V672H391.949V659.32H394ZM420.836 672C420.711 671.75 420.609 671.305 420.531 670.664C419.523 671.711 418.32 672.234 416.922 672.234C415.672 672.234 414.645 671.883 413.84 671.18C413.043 670.469 412.645 669.57 412.645 668.484C412.645 667.164 413.145 666.141 414.145 665.414C415.152 664.68 416.566 664.312 418.387 664.312H420.496V663.316C420.496 662.559 420.27 661.957 419.816 661.512C419.363 661.059 418.695 660.832 417.812 660.832C417.039 660.832 416.391 661.027 415.867 661.418C415.344 661.809 415.082 662.281 415.082 662.836H412.902C412.902 662.203 413.125 661.594 413.57 661.008C414.023 660.414 414.633 659.945 415.398 659.602C416.172 659.258 417.02 659.086 417.941 659.086C419.402 659.086 420.547 659.453 421.375 660.188C422.203 660.914 422.633 661.918 422.664 663.199V669.035C422.664 670.199 422.812 671.125 423.109 671.812V672H420.836ZM417.238 670.348C417.918 670.348 418.562 670.172 419.172 669.82C419.781 669.469 420.223 669.012 420.496 668.449V665.848H418.797C416.141 665.848 414.812 666.625 414.812 668.18C414.812 668.859 415.039 669.391 415.492 669.773C415.945 670.156 416.527 670.348 417.238 670.348ZM428.113 659.32L428.184 660.914C429.152 659.695 430.418 659.086 431.98 659.086C434.66 659.086 436.012 660.598 436.035 663.621V672H433.867V663.609C433.859 662.695 433.648 662.02 433.234 661.582C432.828 661.145 432.191 660.926 431.324 660.926C430.621 660.926 430.004 661.113 429.473 661.488C428.941 661.863 428.527 662.355 428.23 662.965V672H426.062V659.32H428.113ZM441.355 659.32L441.426 660.914C442.395 659.695 443.66 659.086 445.223 659.086C447.902 659.086 449.254 660.598 449.277 663.621V672H447.109V663.609C447.102 662.695 446.891 662.02 446.477 661.582C446.07 661.145 445.434 660.926 444.566 660.926C443.863 660.926 443.246 661.113 442.715 661.488C442.184 661.863 441.77 662.355 441.473 662.965V672H439.305V659.32H441.355ZM452.594 670.863C452.594 670.488 452.703 670.176 452.922 669.926C453.148 669.676 453.484 669.551 453.93 669.551C454.375 669.551 454.711 669.676 454.938 669.926C455.172 670.176 455.289 670.488 455.289 670.863C455.289 671.223 455.172 671.523 454.938 671.766C454.711 672.008 454.375 672.129 453.93 672.129C453.484 672.129 453.148 672.008 452.922 671.766C452.703 671.523 452.594 671.223 452.594 670.863ZM466.703 672C466.578 671.75 466.477 671.305 466.398 670.664C465.391 671.711 464.188 672.234 462.789 672.234C461.539 672.234 460.512 671.883 459.707 671.18C458.91 670.469 458.512 669.57 458.512 668.484C458.512 667.164 459.012 666.141 460.012 665.414C461.02 664.68 462.434 664.312 464.254 664.312H466.363V663.316C466.363 662.559 466.137 661.957 465.684 661.512C465.23 661.059 464.562 660.832 463.68 660.832C462.906 660.832 462.258 661.027 461.734 661.418C461.211 661.809 460.949 662.281 460.949 662.836H458.77C458.77 662.203 458.992 661.594 459.438 661.008C459.891 660.414 460.5 659.945 461.266 659.602C462.039 659.258 462.887 659.086 463.809 659.086C465.27 659.086 466.414 659.453 467.242 660.188C468.07 660.914 468.5 661.918 468.531 663.199V669.035C468.531 670.199 468.68 671.125 468.977 671.812V672H466.703ZM463.105 670.348C463.785 670.348 464.43 670.172 465.039 669.82C465.648 669.469 466.09 669.012 466.363 668.449V665.848H464.664C462.008 665.848 460.68 666.625 460.68 668.18C460.68 668.859 460.906 669.391 461.359 669.773C461.812 670.156 462.395 670.348 463.105 670.348ZM477.016 670.465C477.789 670.465 478.465 670.23 479.043 669.762C479.621 669.293 479.941 668.707 480.004 668.004H482.055C482.016 668.73 481.766 669.422 481.305 670.078C480.844 670.734 480.227 671.258 479.453 671.648C478.688 672.039 477.875 672.234 477.016 672.234C475.289 672.234 473.914 671.66 472.891 670.512C471.875 669.355 471.367 667.777 471.367 665.777V665.414C471.367 664.18 471.594 663.082 472.047 662.121C472.5 661.16 473.148 660.414 473.992 659.883C474.844 659.352 475.848 659.086 477.004 659.086C478.426 659.086 479.605 659.512 480.543 660.363C481.488 661.215 481.992 662.32 482.055 663.68H480.004C479.941 662.859 479.629 662.188 479.066 661.664C478.512 661.133 477.824 660.867 477.004 660.867C475.902 660.867 475.047 661.266 474.438 662.062C473.836 662.852 473.535 663.996 473.535 665.496V665.906C473.535 667.367 473.836 668.492 474.438 669.281C475.039 670.07 475.898 670.465 477.016 670.465ZM484.539 670.863C484.539 670.488 484.648 670.176 484.867 669.926C485.094 669.676 485.43 669.551 485.875 669.551C486.32 669.551 486.656 669.676 486.883 669.926C487.117 670.176 487.234 670.488 487.234 670.863C487.234 671.223 487.117 671.523 486.883 671.766C486.656 672.008 486.32 672.129 485.875 672.129C485.43 672.129 485.094 672.008 484.867 671.766C484.648 671.523 484.539 671.223 484.539 670.863ZM493.176 672H491.008V659.32H493.176V672ZM490.832 655.957C490.832 655.605 490.938 655.309 491.148 655.066C491.367 654.824 491.688 654.703 492.109 654.703C492.531 654.703 492.852 654.824 493.07 655.066C493.289 655.309 493.398 655.605 493.398 655.957C493.398 656.309 493.289 656.602 493.07 656.836C492.852 657.07 492.531 657.188 492.109 657.188C491.688 657.188 491.367 657.07 491.148 656.836C490.938 656.602 490.832 656.309 490.832 655.957ZM499.012 672H496.844V654H499.012V672ZM502.926 673.465H501.062L508.188 654.938H510.039L502.926 673.465ZM525.543 662.895C525.543 664.129 525.176 665.172 524.441 666.023C523.715 666.867 522.816 667.289 521.746 667.289C521.184 667.289 520.652 667.188 520.152 666.984C519.652 666.773 519.07 666.379 518.406 665.801C517.75 665.223 517.277 664.863 516.988 664.723C516.699 664.582 516.391 664.512 516.062 664.512C515.453 664.512 514.984 664.723 514.656 665.145C514.328 665.559 514.164 666.133 514.164 666.867L512.277 666.891C512.277 665.641 512.637 664.613 513.355 663.809C514.074 663.004 514.977 662.602 516.062 662.602C516.656 662.602 517.227 662.727 517.773 662.977C518.32 663.227 518.938 663.668 519.625 664.301C520.312 664.926 520.906 665.277 521.406 665.355L521.746 665.379C522.34 665.379 522.82 665.152 523.188 664.699C523.562 664.246 523.75 663.648 523.75 662.906L525.543 662.895ZM530.887 660.855C531.848 659.676 533.098 659.086 534.637 659.086C537.316 659.086 538.668 660.598 538.691 663.621V672H536.523V663.609C536.516 662.695 536.305 662.02 535.891 661.582C535.484 661.145 534.848 660.926 533.98 660.926C533.277 660.926 532.66 661.113 532.129 661.488C531.598 661.863 531.184 662.355 530.887 662.965V672H528.719V654H530.887V660.855ZM549.766 672C549.641 671.75 549.539 671.305 549.461 670.664C548.453 671.711 547.25 672.234 545.852 672.234C544.602 672.234 543.574 671.883 542.77 671.18C541.973 670.469 541.574 669.57 541.574 668.484C541.574 667.164 542.074 666.141 543.074 665.414C544.082 664.68 545.496 664.312 547.316 664.312H549.426V663.316C549.426 662.559 549.199 661.957 548.746 661.512C548.293 661.059 547.625 660.832 546.742 660.832C545.969 660.832 545.32 661.027 544.797 661.418C544.273 661.809 544.012 662.281 544.012 662.836H541.832C541.832 662.203 542.055 661.594 542.5 661.008C542.953 660.414 543.562 659.945 544.328 659.602C545.102 659.258 545.949 659.086 546.871 659.086C548.332 659.086 549.477 659.453 550.305 660.188C551.133 660.914 551.562 661.918 551.594 663.199V669.035C551.594 670.199 551.742 671.125 552.039 671.812V672H549.766ZM546.168 670.348C546.848 670.348 547.492 670.172 548.102 669.82C548.711 669.469 549.152 669.012 549.426 668.449V665.848H547.727C545.07 665.848 543.742 666.625 543.742 668.18C543.742 668.859 543.969 669.391 544.422 669.773C544.875 670.156 545.457 670.348 546.168 670.348ZM561.121 661.266C560.793 661.211 560.438 661.184 560.055 661.184C558.633 661.184 557.668 661.789 557.16 663V672H554.992V659.32H557.102L557.137 660.785C557.848 659.652 558.855 659.086 560.16 659.086C560.582 659.086 560.902 659.141 561.121 659.25V661.266ZM568.152 672.234C566.434 672.234 565.035 671.672 563.957 670.547C562.879 669.414 562.34 667.902 562.34 666.012V665.613C562.34 664.355 562.578 663.234 563.055 662.25C563.539 661.258 564.211 660.484 565.07 659.93C565.938 659.367 566.875 659.086 567.883 659.086C569.531 659.086 570.812 659.629 571.727 660.715C572.641 661.801 573.098 663.355 573.098 665.379V666.281H564.508C564.539 667.531 564.902 668.543 565.598 669.316C566.301 670.082 567.191 670.465 568.27 670.465C569.035 670.465 569.684 670.309 570.215 669.996C570.746 669.684 571.211 669.27 571.609 668.754L572.934 669.785C571.871 671.418 570.277 672.234 568.152 672.234ZM567.883 660.867C567.008 660.867 566.273 661.188 565.68 661.828C565.086 662.461 564.719 663.352 564.578 664.5H570.93V664.336C570.867 663.234 570.57 662.383 570.039 661.781C569.508 661.172 568.789 660.867 567.883 660.867ZM577.973 672H575.805V654H577.973V672ZM581.887 673.465H580.023L587.148 654.938H589L581.887 673.465ZM602.055 665.801C602.055 667.73 601.613 669.285 600.73 670.465C599.848 671.645 598.652 672.234 597.145 672.234C595.605 672.234 594.395 671.746 593.512 670.77V676.875H591.344V659.32H593.324L593.43 660.727C594.312 659.633 595.539 659.086 597.109 659.086C598.633 659.086 599.836 659.66 600.719 660.809C601.609 661.957 602.055 663.555 602.055 665.602V665.801ZM599.887 665.555C599.887 664.125 599.582 662.996 598.973 662.168C598.363 661.34 597.527 660.926 596.465 660.926C595.152 660.926 594.168 661.508 593.512 662.672V668.73C594.16 669.887 595.152 670.465 596.488 670.465C597.527 670.465 598.352 670.055 598.961 669.234C599.578 668.406 599.887 667.18 599.887 665.555ZM612.648 672C612.523 671.75 612.422 671.305 612.344 670.664C611.336 671.711 610.133 672.234 608.734 672.234C607.484 672.234 606.457 671.883 605.652 671.18C604.855 670.469 604.457 669.57 604.457 668.484C604.457 667.164 604.957 666.141 605.957 665.414C606.965 664.68 608.379 664.312 610.199 664.312H612.309V663.316C612.309 662.559 612.082 661.957 611.629 661.512C611.176 661.059 610.508 660.832 609.625 660.832C608.852 660.832 608.203 661.027 607.68 661.418C607.156 661.809 606.895 662.281 606.895 662.836H604.715C604.715 662.203 604.938 661.594 605.383 661.008C605.836 660.414 606.445 659.945 607.211 659.602C607.984 659.258 608.832 659.086 609.754 659.086C611.215 659.086 612.359 659.453 613.188 660.188C614.016 660.914 614.445 661.918 614.477 663.199V669.035C614.477 670.199 614.625 671.125 614.922 671.812V672H612.648ZM609.051 670.348C609.73 670.348 610.375 670.172 610.984 669.82C611.594 669.469 612.035 669.012 612.309 668.449V665.848H610.609C607.953 665.848 606.625 666.625 606.625 668.18C606.625 668.859 606.852 669.391 607.305 669.773C607.758 670.156 608.34 670.348 609.051 670.348ZM628.586 665.801C628.586 667.73 628.145 669.285 627.262 670.465C626.379 671.645 625.184 672.234 623.676 672.234C622.137 672.234 620.926 671.746 620.043 670.77V676.875H617.875V659.32H619.855L619.961 660.727C620.844 659.633 622.07 659.086 623.641 659.086C625.164 659.086 626.367 659.66 627.25 660.809C628.141 661.957 628.586 663.555 628.586 665.602V665.801ZM626.418 665.555C626.418 664.125 626.113 662.996 625.504 662.168C624.895 661.34 624.059 660.926 622.996 660.926C621.684 660.926 620.699 661.508 620.043 662.672V668.73C620.691 669.887 621.684 670.465 623.02 670.465C624.059 670.465 624.883 670.055 625.492 669.234C626.109 668.406 626.418 667.18 626.418 665.555ZM636.613 672.234C634.895 672.234 633.496 671.672 632.418 670.547C631.34 669.414 630.801 667.902 630.801 666.012V665.613C630.801 664.355 631.039 663.234 631.516 662.25C632 661.258 632.672 660.484 633.531 659.93C634.398 659.367 635.336 659.086 636.344 659.086C637.992 659.086 639.273 659.629 640.188 660.715C641.102 661.801 641.559 663.355 641.559 665.379V666.281H632.969C633 667.531 633.363 668.543 634.059 669.316C634.762 670.082 635.652 670.465 636.73 670.465C637.496 670.465 638.145 670.309 638.676 669.996C639.207 669.684 639.672 669.27 640.07 668.754L641.395 669.785C640.332 671.418 638.738 672.234 636.613 672.234ZM636.344 660.867C635.469 660.867 634.734 661.188 634.141 661.828C633.547 662.461 633.18 663.352 633.039 664.5H639.391V664.336C639.328 663.234 639.031 662.383 638.5 661.781C637.969 661.172 637.25 660.867 636.344 660.867ZM650.207 661.266C649.879 661.211 649.523 661.184 649.141 661.184C647.719 661.184 646.754 661.789 646.246 663V672H644.078V659.32H646.188L646.223 660.785C646.934 659.652 647.941 659.086 649.246 659.086C649.668 659.086 649.988 659.141 650.207 659.25V661.266ZM659.594 668.637C659.594 668.051 659.371 667.598 658.926 667.277C658.488 666.949 657.719 666.668 656.617 666.434C655.523 666.199 654.652 665.918 654.004 665.59C653.363 665.262 652.887 664.871 652.574 664.418C652.27 663.965 652.117 663.426 652.117 662.801C652.117 661.762 652.555 660.883 653.43 660.164C654.312 659.445 655.438 659.086 656.805 659.086C658.242 659.086 659.406 659.457 660.297 660.199C661.195 660.941 661.645 661.891 661.645 663.047H659.465C659.465 662.453 659.211 661.941 658.703 661.512C658.203 661.082 657.57 660.867 656.805 660.867C656.016 660.867 655.398 661.039 654.953 661.383C654.508 661.727 654.285 662.176 654.285 662.73C654.285 663.254 654.492 663.648 654.906 663.914C655.32 664.18 656.066 664.434 657.145 664.676C658.23 664.918 659.109 665.207 659.781 665.543C660.453 665.879 660.949 666.285 661.27 666.762C661.598 667.23 661.762 667.805 661.762 668.484C661.762 669.617 661.309 670.527 660.402 671.215C659.496 671.895 658.32 672.234 656.875 672.234C655.859 672.234 654.961 672.055 654.18 671.695C653.398 671.336 652.785 670.836 652.34 670.195C651.902 669.547 651.684 668.848 651.684 668.098H653.852C653.891 668.824 654.18 669.402 654.719 669.832C655.266 670.254 655.984 670.465 656.875 670.465C657.695 670.465 658.352 670.301 658.844 669.973C659.344 669.637 659.594 669.191 659.594 668.637ZM665.02 673.465H663.156L670.281 654.938H672.133L665.02 673.465ZM679.844 664.395C677.914 663.84 676.508 663.16 675.625 662.355C674.75 661.543 674.312 660.543 674.312 659.355C674.312 658.012 674.848 656.902 675.918 656.027C676.996 655.145 678.395 654.703 680.113 654.703C681.285 654.703 682.328 654.93 683.242 655.383C684.164 655.836 684.875 656.461 685.375 657.258C685.883 658.055 686.137 658.926 686.137 659.871H683.875C683.875 658.84 683.547 658.031 682.891 657.445C682.234 656.852 681.309 656.555 680.113 656.555C679.004 656.555 678.137 656.801 677.512 657.293C676.895 657.777 676.586 658.453 676.586 659.32C676.586 660.016 676.879 660.605 677.465 661.09C678.059 661.566 679.062 662.004 680.477 662.402C681.898 662.801 683.008 663.242 683.805 663.727C684.609 664.203 685.203 664.762 685.586 665.402C685.977 666.043 686.172 666.797 686.172 667.664C686.172 669.047 685.633 670.156 684.555 670.992C683.477 671.82 682.035 672.234 680.23 672.234C679.059 672.234 677.965 672.012 676.949 671.566C675.934 671.113 675.148 670.496 674.594 669.715C674.047 668.934 673.773 668.047 673.773 667.055H676.035C676.035 668.086 676.414 668.902 677.172 669.504C677.938 670.098 678.957 670.395 680.23 670.395C681.418 670.395 682.328 670.152 682.961 669.668C683.594 669.184 683.91 668.523 683.91 667.688C683.91 666.852 683.617 666.207 683.031 665.754C682.445 665.293 681.383 664.84 679.844 664.395ZM691.668 656.25V659.32H694.035V660.996H691.668V668.859C691.668 669.367 691.773 669.75 691.984 670.008C692.195 670.258 692.555 670.383 693.062 670.383C693.312 670.383 693.656 670.336 694.094 670.242V672C693.523 672.156 692.969 672.234 692.43 672.234C691.461 672.234 690.73 671.941 690.238 671.355C689.746 670.77 689.5 669.938 689.5 668.859V660.996H687.191V659.32H689.5V656.25H691.668ZM704.406 672C704.281 671.75 704.18 671.305 704.102 670.664C703.094 671.711 701.891 672.234 700.492 672.234C699.242 672.234 698.215 671.883 697.41 671.18C696.613 670.469 696.215 669.57 696.215 668.484C696.215 667.164 696.715 666.141 697.715 665.414C698.723 664.68 700.137 664.312 701.957 664.312H704.066V663.316C704.066 662.559 703.84 661.957 703.387 661.512C702.934 661.059 702.266 660.832 701.383 660.832C700.609 660.832 699.961 661.027 699.438 661.418C698.914 661.809 698.652 662.281 698.652 662.836H696.473C696.473 662.203 696.695 661.594 697.141 661.008C697.594 660.414 698.203 659.945 698.969 659.602C699.742 659.258 700.59 659.086 701.512 659.086C702.973 659.086 704.117 659.453 704.945 660.188C705.773 660.914 706.203 661.918 706.234 663.199V669.035C706.234 670.199 706.383 671.125 706.68 671.812V672H704.406ZM700.809 670.348C701.488 670.348 702.133 670.172 702.742 669.82C703.352 669.469 703.793 669.012 704.066 668.449V665.848H702.367C699.711 665.848 698.383 666.625 698.383 668.18C698.383 668.859 698.609 669.391 699.062 669.773C699.516 670.156 700.098 670.348 700.809 670.348ZM712.574 656.25V659.32H714.941V660.996H712.574V668.859C712.574 669.367 712.68 669.75 712.891 670.008C713.102 670.258 713.461 670.383 713.969 670.383C714.219 670.383 714.562 670.336 715 670.242V672C714.43 672.156 713.875 672.234 713.336 672.234C712.367 672.234 711.637 671.941 711.145 671.355C710.652 670.77 710.406 669.938 710.406 668.859V660.996H708.098V659.32H710.406V656.25H712.574ZM722.746 672.234C721.027 672.234 719.629 671.672 718.551 670.547C717.473 669.414 716.934 667.902 716.934 666.012V665.613C716.934 664.355 717.172 663.234 717.648 662.25C718.133 661.258 718.805 660.484 719.664 659.93C720.531 659.367 721.469 659.086 722.477 659.086C724.125 659.086 725.406 659.629 726.32 660.715C727.234 661.801 727.691 663.355 727.691 665.379V666.281H719.102C719.133 667.531 719.496 668.543 720.191 669.316C720.895 670.082 721.785 670.465 722.863 670.465C723.629 670.465 724.277 670.309 724.809 669.996C725.34 669.684 725.805 669.27 726.203 668.754L727.527 669.785C726.465 671.418 724.871 672.234 722.746 672.234ZM722.477 660.867C721.602 660.867 720.867 661.188 720.273 661.828C719.68 662.461 719.312 663.352 719.172 664.5H725.523V664.336C725.461 663.234 725.164 662.383 724.633 661.781C724.102 661.172 723.383 660.867 722.477 660.867ZM735.297 670.465C736.07 670.465 736.746 670.23 737.324 669.762C737.902 669.293 738.223 668.707 738.285 668.004H740.336C740.297 668.73 740.047 669.422 739.586 670.078C739.125 670.734 738.508 671.258 737.734 671.648C736.969 672.039 736.156 672.234 735.297 672.234C733.57 672.234 732.195 671.66 731.172 670.512C730.156 669.355 729.648 667.777 729.648 665.777V665.414C729.648 664.18 729.875 663.082 730.328 662.121C730.781 661.16 731.43 660.414 732.273 659.883C733.125 659.352 734.129 659.086 735.285 659.086C736.707 659.086 737.887 659.512 738.824 660.363C739.77 661.215 740.273 662.32 740.336 663.68H738.285C738.223 662.859 737.91 662.188 737.348 661.664C736.793 661.133 736.105 660.867 735.285 660.867C734.184 660.867 733.328 661.266 732.719 662.062C732.117 662.852 731.816 663.996 731.816 665.496V665.906C731.816 667.367 732.117 668.492 732.719 669.281C733.32 670.07 734.18 670.465 735.297 670.465ZM744.941 660.855C745.902 659.676 747.152 659.086 748.691 659.086C751.371 659.086 752.723 660.598 752.746 663.621V672H750.578V663.609C750.57 662.695 750.359 662.02 749.945 661.582C749.539 661.145 748.902 660.926 748.035 660.926C747.332 660.926 746.715 661.113 746.184 661.488C745.652 661.863 745.238 662.355 744.941 662.965V672H742.773V654H744.941V660.855ZM763.82 672C763.695 671.75 763.594 671.305 763.516 670.664C762.508 671.711 761.305 672.234 759.906 672.234C758.656 672.234 757.629 671.883 756.824 671.18C756.027 670.469 755.629 669.57 755.629 668.484C755.629 667.164 756.129 666.141 757.129 665.414C758.137 664.68 759.551 664.312 761.371 664.312H763.48V663.316C763.48 662.559 763.254 661.957 762.801 661.512C762.348 661.059 761.68 660.832 760.797 660.832C760.023 660.832 759.375 661.027 758.852 661.418C758.328 661.809 758.066 662.281 758.066 662.836H755.887C755.887 662.203 756.109 661.594 756.555 661.008C757.008 660.414 757.617 659.945 758.383 659.602C759.156 659.258 760.004 659.086 760.926 659.086C762.387 659.086 763.531 659.453 764.359 660.188C765.188 660.914 765.617 661.918 765.648 663.199V669.035C765.648 670.199 765.797 671.125 766.094 671.812V672H763.82ZM760.223 670.348C760.902 670.348 761.547 670.172 762.156 669.82C762.766 669.469 763.207 669.012 763.48 668.449V665.848H761.781C759.125 665.848 757.797 666.625 757.797 668.18C757.797 668.859 758.023 669.391 758.477 669.773C758.93 670.156 759.512 670.348 760.223 670.348ZM775.176 661.266C774.848 661.211 774.492 661.184 774.109 661.184C772.688 661.184 771.723 661.789 771.215 663V672H769.047V659.32H771.156L771.191 660.785C771.902 659.652 772.91 659.086 774.215 659.086C774.637 659.086 774.957 659.141 775.176 659.25V661.266ZM780.707 656.25V659.32H783.074V660.996H780.707V668.859C780.707 669.367 780.812 669.75 781.023 670.008C781.234 670.258 781.594 670.383 782.102 670.383C782.352 670.383 782.695 670.336 783.133 670.242V672C782.562 672.156 782.008 672.234 781.469 672.234C780.5 672.234 779.77 671.941 779.277 671.355C778.785 670.77 778.539 669.938 778.539 668.859V660.996H776.23V659.32H778.539V656.25H780.707ZM793 668.637C793 668.051 792.777 667.598 792.332 667.277C791.895 666.949 791.125 666.668 790.023 666.434C788.93 666.199 788.059 665.918 787.41 665.59C786.77 665.262 786.293 664.871 785.98 664.418C785.676 663.965 785.523 663.426 785.523 662.801C785.523 661.762 785.961 660.883 786.836 660.164C787.719 659.445 788.844 659.086 790.211 659.086C791.648 659.086 792.812 659.457 793.703 660.199C794.602 660.941 795.051 661.891 795.051 663.047H792.871C792.871 662.453 792.617 661.941 792.109 661.512C791.609 661.082 790.977 660.867 790.211 660.867C789.422 660.867 788.805 661.039 788.359 661.383C787.914 661.727 787.691 662.176 787.691 662.73C787.691 663.254 787.898 663.648 788.312 663.914C788.727 664.18 789.473 664.434 790.551 664.676C791.637 664.918 792.516 665.207 793.188 665.543C793.859 665.879 794.355 666.285 794.676 666.762C795.004 667.23 795.168 667.805 795.168 668.484C795.168 669.617 794.715 670.527 793.809 671.215C792.902 671.895 791.727 672.234 790.281 672.234C789.266 672.234 788.367 672.055 787.586 671.695C786.805 671.336 786.191 670.836 785.746 670.195C785.309 669.547 785.09 668.848 785.09 668.098H787.258C787.297 668.824 787.586 669.402 788.125 669.832C788.672 670.254 789.391 670.465 790.281 670.465C791.102 670.465 791.758 670.301 792.25 669.973C792.75 669.637 793 669.191 793 668.637ZM798.039 670.863C798.039 670.488 798.148 670.176 798.367 669.926C798.594 669.676 798.93 669.551 799.375 669.551C799.82 669.551 800.156 669.676 800.383 669.926C800.617 670.176 800.734 670.488 800.734 670.863C800.734 671.223 800.617 671.523 800.383 671.766C800.156 672.008 799.82 672.129 799.375 672.129C798.93 672.129 798.594 672.008 798.367 671.766C798.148 671.523 798.039 671.223 798.039 670.863ZM817.773 672H815.512V664.113H806.91V672H804.66V654.938H806.91V662.273H815.512V654.938H817.773V672ZM823.785 672H821.617V659.32H823.785V672ZM821.441 655.957C821.441 655.605 821.547 655.309 821.758 655.066C821.977 654.824 822.297 654.703 822.719 654.703C823.141 654.703 823.461 654.824 823.68 655.066C823.898 655.309 824.008 655.605 824.008 655.957C824.008 656.309 823.898 656.602 823.68 656.836C823.461 657.07 823.141 657.188 822.719 657.188C822.297 657.188 821.977 657.07 821.758 656.836C821.547 656.602 821.441 656.309 821.441 655.957ZM834.648 668.637C834.648 668.051 834.426 667.598 833.98 667.277C833.543 666.949 832.773 666.668 831.672 666.434C830.578 666.199 829.707 665.918 829.059 665.59C828.418 665.262 827.941 664.871 827.629 664.418C827.324 663.965 827.172 663.426 827.172 662.801C827.172 661.762 827.609 660.883 828.484 660.164C829.367 659.445 830.492 659.086 831.859 659.086C833.297 659.086 834.461 659.457 835.352 660.199C836.25 660.941 836.699 661.891 836.699 663.047H834.52C834.52 662.453 834.266 661.941 833.758 661.512C833.258 661.082 832.625 660.867 831.859 660.867C831.07 660.867 830.453 661.039 830.008 661.383C829.562 661.727 829.34 662.176 829.34 662.73C829.34 663.254 829.547 663.648 829.961 663.914C830.375 664.18 831.121 664.434 832.199 664.676C833.285 664.918 834.164 665.207 834.836 665.543C835.508 665.879 836.004 666.285 836.324 666.762C836.652 667.23 836.816 667.805 836.816 668.484C836.816 669.617 836.363 670.527 835.457 671.215C834.551 671.895 833.375 672.234 831.93 672.234C830.914 672.234 830.016 672.055 829.234 671.695C828.453 671.336 827.84 670.836 827.395 670.195C826.957 669.547 826.738 668.848 826.738 668.098H828.906C828.945 668.824 829.234 669.402 829.773 669.832C830.32 670.254 831.039 670.465 831.93 670.465C832.75 670.465 833.406 670.301 833.898 669.973C834.398 669.637 834.648 669.191 834.648 668.637ZM842.582 656.25V659.32H844.949V660.996H842.582V668.859C842.582 669.367 842.688 669.75 842.898 670.008C843.109 670.258 843.469 670.383 843.977 670.383C844.227 670.383 844.57 670.336 845.008 670.242V672C844.438 672.156 843.883 672.234 843.344 672.234C842.375 672.234 841.645 671.941 841.152 671.355C840.66 670.77 840.414 669.938 840.414 668.859V660.996H838.105V659.32H840.414V656.25H842.582ZM846.684 665.543C846.684 664.301 846.926 663.184 847.41 662.191C847.902 661.199 848.582 660.434 849.449 659.895C850.324 659.355 851.32 659.086 852.438 659.086C854.164 659.086 855.559 659.684 856.621 660.879C857.691 662.074 858.227 663.664 858.227 665.648V665.801C858.227 667.035 857.988 668.145 857.512 669.129C857.043 670.105 856.367 670.867 855.484 671.414C854.609 671.961 853.602 672.234 852.461 672.234C850.742 672.234 849.348 671.637 848.277 670.441C847.215 669.246 846.684 667.664 846.684 665.695V665.543ZM848.863 665.801C848.863 667.207 849.188 668.336 849.836 669.188C850.492 670.039 851.367 670.465 852.461 670.465C853.562 670.465 854.438 670.035 855.086 669.176C855.734 668.309 856.059 667.098 856.059 665.543C856.059 664.152 855.727 663.027 855.062 662.168C854.406 661.301 853.531 660.867 852.438 660.867C851.367 660.867 850.504 661.293 849.848 662.145C849.191 662.996 848.863 664.215 848.863 665.801ZM867.074 661.266C866.746 661.211 866.391 661.184 866.008 661.184C864.586 661.184 863.621 661.789 863.113 663V672H860.945V659.32H863.055L863.09 660.785C863.801 659.652 864.809 659.086 866.113 659.086C866.535 659.086 866.855 659.141 867.074 659.25V661.266ZM873.438 668.824L876.391 659.32H878.711L873.613 673.957C872.824 676.066 871.57 677.121 869.852 677.121L869.441 677.086L868.633 676.934V675.176L869.219 675.223C869.953 675.223 870.523 675.074 870.93 674.777C871.344 674.48 871.684 673.938 871.949 673.148L872.43 671.859L867.906 659.32H870.273L873.438 668.824ZM879.438 670.863C879.438 670.488 879.547 670.176 879.766 669.926C879.992 669.676 880.328 669.551 880.773 669.551C881.219 669.551 881.555 669.676 881.781 669.926C882.016 670.176 882.133 670.488 882.133 670.863C882.133 671.223 882.016 671.523 881.781 671.766C881.555 672.008 881.219 672.129 880.773 672.129C880.328 672.129 879.992 672.008 879.766 671.766C879.547 671.523 879.438 671.223 879.438 670.863ZM896.43 665.801C896.43 667.73 895.988 669.285 895.105 670.465C894.223 671.645 893.027 672.234 891.52 672.234C889.98 672.234 888.77 671.746 887.887 670.77V676.875H885.719V659.32H887.699L887.805 660.727C888.688 659.633 889.914 659.086 891.484 659.086C893.008 659.086 894.211 659.66 895.094 660.809C895.984 661.957 896.43 663.555 896.43 665.602V665.801ZM894.262 665.555C894.262 664.125 893.957 662.996 893.348 662.168C892.738 661.34 891.902 660.926 890.84 660.926C889.527 660.926 888.543 661.508 887.887 662.672V668.73C888.535 669.887 889.527 670.465 890.863 670.465C891.902 670.465 892.727 670.055 893.336 669.234C893.953 668.406 894.262 667.18 894.262 665.555ZM898.668 665.555C898.668 663.609 899.129 662.047 900.051 660.867C900.973 659.68 902.18 659.086 903.672 659.086C905.156 659.086 906.332 659.594 907.199 660.609V654H909.367V672H907.375L907.27 670.641C906.402 671.703 905.195 672.234 903.648 672.234C902.18 672.234 900.98 671.633 900.051 670.43C899.129 669.227 898.668 667.656 898.668 665.719V665.555ZM900.836 665.801C900.836 667.238 901.133 668.363 901.727 669.176C902.32 669.988 903.141 670.395 904.188 670.395C905.562 670.395 906.566 669.777 907.199 668.543V662.719C906.551 661.523 905.555 660.926 904.211 660.926C903.148 660.926 902.32 661.336 901.727 662.156C901.133 662.977 900.836 664.191 900.836 665.801ZM913.809 672V660.996H911.805V659.32H913.809V658.02C913.809 656.66 914.172 655.609 914.898 654.867C915.625 654.125 916.652 653.754 917.98 653.754C918.48 653.754 918.977 653.82 919.469 653.953L919.352 655.711C918.984 655.641 918.594 655.605 918.18 655.605C917.477 655.605 916.934 655.812 916.551 656.227C916.168 656.633 915.977 657.219 915.977 657.984V659.32H918.684V660.996H915.977V672H913.809Z" fill="black"/>
</svg>
