<svg width="1566" height="1080" viewBox="0 0 1566 1080" fill="none" xmlns="http://www.w3.org/2000/svg">
<rect width="497" height="351" fill="white" transform="translate(39 27) scale(3)"/>
<rect width="406" height="214" fill="black" fill-opacity="0" transform="translate(165 177) scale(3)"/>
<rect width="406" height="214" fill="black" fill-opacity="0" transform="translate(165 177) scale(3)"/>
<rect x="166" y="178" width="1216" height="640" rx="3" stroke="black" stroke-width="2"/>
<path d="M203.104 218.32H192.381L189.973 225H186.492L196.266 199.406H199.219L209.01 225H205.547L203.104 218.32ZM193.4 215.543H202.102L197.742 203.572L193.4 215.543Z" fill="black"/>
<rect width="55" height="18" fill="black" fill-opacity="0" transform="translate(207 129) scale(3)"/>
<mask id="path-3-inside-1" fill="white">
<path d="M207 141C207 134.373 212.373 129 219 129H360C366.627 129 372 134.373 372 141V180C372 181.657 370.657 183 369 183H210C208.343 183 207 181.657 207 180V141Z"/>
</mask>
<path d="M207 141C207 134.373 212.373 129 219 129H360C366.627 129 372 134.373 372 141V180C372 181.657 370.657 183 369 183H210C208.343 183 207 181.657 207 180V141Z" stroke="black" stroke-width="4" mask="url(#path-3-inside-1)"/>
<path d="M232.775 156.66L239.455 143.811H243.287L234.463 159.86V169.404H231.088V159.86L222.264 143.811H226.131L232.775 156.66Z" fill="black"/>
<path d="M1055.96 337.98V349.107C1055.97 351.018 1056.28 352.43 1056.87 353.344C1057.48 354.258 1058.47 354.715 1059.83 354.715C1062.16 354.715 1063.69 353.824 1064.41 352.043V337.98H1067.68V357H1064.75L1064.59 354.979C1063.5 356.561 1061.96 357.352 1059.97 357.352C1058.24 357.352 1056.91 356.924 1055.96 356.068V364.312H1052.71V337.98H1055.96Z" fill="black"/>
<rect width="18" height="17" fill="black" fill-opacity="0" transform="translate(1290 426) scale(3)"/>
<circle cx="1329" cy="435" r="9" fill="black"/>
<rect width="1.28163" height="13.5479" fill="black" fill-opacity="0" transform="translate(1332.23 431.368) scale(-3 3) rotate(-55.9936)"/>
<path d="M1295.73 452.261C1294.98 451.898 1294.67 451.001 1295.04 450.256L1300.95 438.118C1301.31 437.373 1302.21 437.064 1302.95 437.426C1303.7 437.789 1304.01 438.687 1303.64 439.432L1298.39 450.221L1309.18 455.474C1309.92 455.837 1310.23 456.735 1309.87 457.48C1309.51 458.224 1308.61 458.534 1307.87 458.171L1295.73 452.261ZM1331.33 429.013C1327.39 434.914 1323.4 439.179 1318.02 442.764C1312.67 446.325 1306.03 449.172 1296.87 452.33L1295.9 449.494C1304.98 446.359 1311.34 443.612 1316.35 440.267C1321.34 436.946 1325.07 432.992 1328.83 427.349L1331.33 429.013Z" fill="black"/>
<rect width="96.2428" height="52.6913" fill="black" fill-opacity="0" transform="translate(852 580.826) scale(3) rotate(-27.6132)"/>
<rect width="65" height="15" fill="black" fill-opacity="0" transform="translate(900.585 596.039) scale(3) rotate(-27.6132)"/>
<rect width="7" height="15" fill="black" fill-opacity="0" transform="translate(1054.77 515.39) scale(3) rotate(-27.6132)"/>
<path d="M1078.57 534.705L1076.37 519.87L1079.31 518.33L1081.76 537.383L1085.61 544.75L1082.71 546.266L1078.8 538.789L1064.59 526.029L1067.53 524.489L1078.57 534.705Z" fill="black"/>
<rect width="5" height="96.2428" fill="black" fill-opacity="0" transform="translate(852 580.826) scale(3 -3) rotate(-62.3868)"/>
<path d="M1116.1 457.589C1117.59 458.309 1118.22 460.102 1117.5 461.594L1105.77 485.915C1105.05 487.408 1103.26 488.034 1101.76 487.314C1100.27 486.595 1099.65 484.802 1100.37 483.309L1110.79 461.691L1089.17 451.268C1087.68 450.548 1087.05 448.755 1087.77 447.262C1088.49 445.77 1090.28 445.143 1091.78 445.863L1116.1 457.589ZM857.012 591.829C928.683 531.027 987.263 501.672 1113.8 457.459L1115.78 463.124C989.588 507.215 931.776 536.271 860.893 596.405L857.012 591.829Z" fill="black"/>
<rect width="62" height="46" fill="black" fill-opacity="0" transform="translate(267 282) scale(3)"/>
<rect x="268" y="283" width="184" height="136" rx="8" stroke="black" stroke-width="2"/>
<path d="M290.971 330V304.406H299.338C302.115 304.406 304.201 304.98 305.596 306.129C307.002 307.277 307.705 308.977 307.705 311.227C307.705 312.422 307.365 313.482 306.686 314.408C306.006 315.322 305.08 316.031 303.908 316.535C305.291 316.922 306.381 317.66 307.178 318.75C307.986 319.828 308.391 321.117 308.391 322.617C308.391 324.914 307.646 326.719 306.158 328.031C304.67 329.344 302.566 330 299.848 330H290.971ZM294.346 318.029V327.24H299.918C301.488 327.24 302.725 326.836 303.627 326.027C304.541 325.207 304.998 324.082 304.998 322.652C304.998 319.57 303.322 318.029 299.971 318.029H294.346ZM294.346 315.322H299.443C300.92 315.322 302.098 314.953 302.977 314.215C303.867 313.477 304.312 312.475 304.312 311.209C304.312 309.803 303.902 308.783 303.082 308.15C302.262 307.506 301.014 307.184 299.338 307.184H294.346V315.322Z" fill="black"/>
<rect width="62" height="46" fill="black" fill-opacity="0" transform="translate(267 570) scale(3)"/>
<rect x="268" y="571" width="184" height="136" rx="8" stroke="black" stroke-width="2"/>
<path d="M309.797 609.879C309.48 612.586 308.479 614.678 306.791 616.154C305.115 617.619 302.883 618.352 300.094 618.352C297.07 618.352 294.645 617.268 292.816 615.1C291 612.932 290.092 610.031 290.092 606.398V603.938C290.092 601.559 290.514 599.467 291.357 597.662C292.213 595.857 293.42 594.475 294.979 593.514C296.537 592.541 298.342 592.055 300.393 592.055C303.111 592.055 305.291 592.816 306.932 594.34C308.572 595.852 309.527 597.949 309.797 600.633H306.404C306.111 598.594 305.473 597.117 304.488 596.203C303.516 595.289 302.15 594.832 300.393 594.832C298.236 594.832 296.543 595.629 295.312 597.223C294.094 598.816 293.484 601.084 293.484 604.025V606.504C293.484 609.281 294.064 611.49 295.225 613.131C296.385 614.771 298.008 615.592 300.094 615.592C301.969 615.592 303.404 615.17 304.4 614.326C305.408 613.471 306.076 611.988 306.404 609.879H309.797Z" fill="black"/>
<rect width="18" height="17" fill="black" fill-opacity="0" transform="translate(441 264) scale(3)"/>
<circle cx="480" cy="273" r="9" fill="black"/>
<rect width="1.28163" height="13.5479" fill="black" fill-opacity="0" transform="translate(483.228 269.368) scale(-3 3) rotate(-55.9936)"/>
<path d="M446.729 290.261C445.984 289.898 445.674 289.001 446.037 288.256L451.947 276.118C452.31 275.373 453.208 275.064 453.952 275.426C454.697 275.789 455.007 276.687 454.644 277.432L449.391 288.221L460.179 293.474C460.924 293.837 461.234 294.735 460.871 295.48C460.509 296.224 459.611 296.534 458.866 296.171L446.729 290.261ZM482.326 267.013C478.392 272.914 474.397 277.179 469.019 280.764C463.675 284.325 457.029 287.172 447.875 290.33L446.896 287.494C455.985 284.359 462.337 281.612 467.355 278.267C472.338 274.946 476.068 270.992 479.83 265.349L482.326 267.013Z" fill="black"/>
<rect width="1.08841e-05" height="214" fill="black" fill-opacity="0" transform="translate(642 177) scale(3)"/>
<line y1="-0.5" x2="214.002" y2="-0.5" transform="matrix(0.0140184 2.99997 -3 -1.31133e-07 642 177)" stroke="black" stroke-miterlimit="16" stroke-dasharray="5 5"/>
<rect width="46" height="50" fill="black" fill-opacity="0" transform="translate(393 420) scale(3)"/>
<rect width="65" height="15" fill="black" fill-opacity="0" transform="translate(423 471) scale(3)"/>
<rect width="41" height="15" fill="black" fill-opacity="0" transform="translate(489 471) scale(3)"/>
<path d="M537.193 477.422H533.836V506.812H537.193V509.484H530.566V474.75H537.193V477.422ZM543.557 504H540.305V484.98H543.557V504ZM540.041 479.936C540.041 479.408 540.199 478.963 540.516 478.6C540.844 478.236 541.324 478.055 541.957 478.055C542.59 478.055 543.07 478.236 543.398 478.6C543.727 478.963 543.891 479.408 543.891 479.936C543.891 480.463 543.727 480.902 543.398 481.254C543.07 481.605 542.59 481.781 541.957 481.781C541.324 481.781 540.844 481.605 540.516 481.254C540.199 480.902 540.041 480.463 540.041 479.936ZM551.854 484.98L551.959 487.371C553.412 485.543 555.311 484.629 557.654 484.629C561.674 484.629 563.701 486.896 563.736 491.432V504H560.484V491.414C560.473 490.043 560.156 489.029 559.535 488.373C558.926 487.717 557.971 487.389 556.67 487.389C555.615 487.389 554.689 487.67 553.893 488.232C553.096 488.795 552.475 489.533 552.029 490.447V504H548.777V484.98H551.854ZM596.977 500.643C596.109 501.885 594.896 502.816 593.338 503.438C591.791 504.047 589.986 504.352 587.924 504.352C585.838 504.352 583.986 503.865 582.369 502.893C580.752 501.908 579.498 500.514 578.607 498.709C577.729 496.904 577.277 494.812 577.254 492.434V490.201C577.254 486.346 578.15 483.357 579.943 481.236C581.748 479.115 584.279 478.055 587.537 478.055C590.209 478.055 592.359 478.74 593.988 480.111C595.617 481.471 596.613 483.404 596.977 485.912H593.602C592.969 482.525 590.953 480.832 587.555 480.832C585.293 480.832 583.576 481.629 582.404 483.223C581.244 484.805 580.658 487.102 580.646 490.113V492.205C580.646 495.076 581.303 497.361 582.615 499.061C583.928 500.748 585.703 501.592 587.941 501.592C589.207 501.592 590.314 501.451 591.264 501.17C592.213 500.889 592.998 500.414 593.619 499.746V493.998H587.695V491.256H596.977V500.643ZM599.807 474.75H606.451V509.484H599.807V506.812H603.199V477.422H599.807V474.75Z" fill="black"/>
<line x1="514.59" y1="509.487" x2="526.59" y2="476.487" stroke="black"/>
<path d="M502.295 478.055C504.557 478.055 506.373 478.699 507.744 479.988C509.127 481.266 509.818 482.924 509.818 484.963C509.818 486.029 509.531 487.008 508.957 487.898C508.383 488.789 507.58 489.504 506.549 490.043C507.99 490.57 509.092 491.408 509.854 492.557C510.627 493.693 511.014 495.023 511.014 496.547C511.014 498.949 510.281 500.854 508.816 502.26C507.363 503.654 505.436 504.352 503.033 504.352C500.912 504.352 499.148 503.795 497.742 502.682V510.75H494.473V485.139C494.473 483.873 494.83 482.689 495.545 481.588C496.26 480.486 497.221 479.625 498.428 479.004C499.646 478.371 500.936 478.055 502.295 478.055ZM506.566 484.893C506.566 483.697 506.168 482.707 505.371 481.922C504.574 481.125 503.549 480.727 502.295 480.727C501.029 480.727 499.957 481.143 499.078 481.975C498.199 482.807 497.754 483.85 497.742 485.104V499.676C498.258 500.285 498.938 500.777 499.781 501.152C500.625 501.516 501.598 501.697 502.699 501.697C504.27 501.697 505.506 501.229 506.408 500.291C507.311 499.354 507.762 498.129 507.762 496.617C507.762 495.234 507.352 494.062 506.531 493.102C505.711 492.129 504.662 491.625 503.385 491.59H500.748V488.918H502.242C503.648 488.918 504.721 488.572 505.459 487.881C506.197 487.178 506.566 486.182 506.566 484.893Z" fill="black"/>
<rect width="5" height="50" fill="black" fill-opacity="0" transform="translate(408 570) scale(3) rotate(-180)"/>
<path d="M394.464 417.382C393.018 416.573 391.19 417.09 390.382 418.536L377.203 442.101C376.394 443.547 376.911 445.375 378.357 446.183C379.803 446.992 381.631 446.476 382.439 445.029L394.154 424.083L415.101 435.797C416.547 436.606 418.375 436.089 419.183 434.643C419.992 433.197 419.476 431.369 418.029 430.561L394.464 417.382ZM395.752 571.194C406.152 547.213 411.137 526.499 410.997 503.019C410.858 479.627 405.631 453.655 395.887 419.184L390.113 420.816C399.818 455.149 404.863 480.491 404.997 503.055C405.131 525.53 400.392 545.415 390.248 568.806L395.752 571.194Z" fill="black"/>
<rect width="43" height="50" fill="black" fill-opacity="0" transform="translate(195 420) scale(3)"/>
<rect width="65" height="15" fill="black" fill-opacity="0" transform="translate(84 471) scale(3)"/>
<rect width="7" height="15" fill="black" fill-opacity="0" transform="translate(258 471) scale(3)"/>
<path d="M276.328 484.98V498.99C276.352 500.631 276.82 501.451 277.734 501.451C277.957 501.451 278.156 501.422 278.332 501.363L278.736 503.771C278.174 504.17 277.459 504.369 276.592 504.369C274.869 504.369 273.785 503.402 273.34 501.469C272.086 503.402 270.234 504.369 267.785 504.369C265.535 504.369 263.742 503.543 262.406 501.891C261.07 500.227 260.402 497.965 260.402 495.105V494.842C260.402 491.748 261.064 489.275 262.389 487.424C263.713 485.561 265.523 484.629 267.82 484.629C270.199 484.629 272.016 485.572 273.27 487.459L273.568 484.98H276.328ZM263.654 495.211C263.654 497.262 264.082 498.861 264.938 500.01C265.793 501.146 267.012 501.715 268.594 501.715C270.621 501.715 272.115 500.625 273.076 498.445V490.605C272.08 488.402 270.598 487.301 268.629 487.301C267.059 487.301 265.834 487.969 264.955 489.305C264.088 490.629 263.654 492.598 263.654 495.211Z" fill="black"/>
<rect width="5" height="50" fill="black" fill-opacity="0" transform="translate(297 420) scale(3)"/>
<path d="M310.536 572.618C311.982 573.427 313.81 572.91 314.618 571.464L327.797 547.899C328.606 546.453 328.089 544.625 326.643 543.817C325.197 543.008 323.369 543.524 322.561 544.971L310.846 565.917L289.899 554.203C288.453 553.394 286.625 553.911 285.817 555.357C285.008 556.803 285.524 558.631 286.971 559.439L310.536 572.618ZM309.248 418.806C298.848 442.787 293.863 463.501 294.003 486.981C294.142 510.373 299.369 536.345 309.113 570.816L314.887 569.184C305.182 534.851 300.137 509.509 300.003 486.945C299.869 464.47 304.608 444.585 314.752 421.194L309.248 418.806Z" fill="black"/>
<rect width="62" height="46" fill="black" fill-opacity="0" transform="translate(687 285) scale(3)"/>
<rect x="688" y="286" width="184" height="136" rx="8" stroke="black" stroke-width="2"/>
<path d="M725.438 321.17H714.346V330.24H727.23V333H710.971V307.406H727.055V310.184H714.346V318.41H725.438V321.17Z" fill="black"/>
<rect width="62" height="46" fill="black" fill-opacity="0" transform="translate(1113 438) scale(3)"/>
<rect x="1114" y="439" width="184" height="136" rx="8" stroke="black" stroke-width="2"/>
<path d="M1151.09 474.697H1140.35V486H1136.97V460.406H1152.83V463.184H1140.35V471.938H1151.09V474.697Z" fill="black"/>
<rect width="62" height="46" fill="black" fill-opacity="0" transform="translate(804 591) scale(3)"/>
<rect x="805" y="592" width="184" height="136" rx="8" stroke="black" stroke-width="2"/>
<path d="M846.867 635.643C846 636.885 844.787 637.816 843.229 638.438C841.682 639.047 839.877 639.352 837.814 639.352C835.729 639.352 833.877 638.865 832.26 637.893C830.643 636.908 829.389 635.514 828.498 633.709C827.619 631.904 827.168 629.812 827.145 627.434V625.201C827.145 621.346 828.041 618.357 829.834 616.236C831.639 614.115 834.17 613.055 837.428 613.055C840.1 613.055 842.25 613.74 843.879 615.111C845.508 616.471 846.504 618.404 846.867 620.912H843.492C842.859 617.525 840.844 615.832 837.445 615.832C835.184 615.832 833.467 616.629 832.295 618.223C831.135 619.805 830.549 622.102 830.537 625.113V627.205C830.537 630.076 831.193 632.361 832.506 634.061C833.818 635.748 835.594 636.592 837.832 636.592C839.098 636.592 840.205 636.451 841.154 636.17C842.104 635.889 842.889 635.414 843.51 634.746V628.998H837.586V626.256H846.867V635.643Z" fill="black"/>
<rect width="23" height="23" fill="black" fill-opacity="0" transform="translate(1266 216) scale(3)"/>
<circle cx="1300.5" cy="250.5" r="33.5" stroke="black" stroke-width="2"/>
<path d="M1310.31 264H1306.92V252.17H1294.01V264H1290.64V238.406H1294.01V249.41H1306.92V238.406H1310.31V264Z" fill="black"/>
<rect width="54" height="62" fill="black" fill-opacity="0" transform="translate(624 479.848) scale(3) rotate(-23.9834)"/>
<rect width="65" height="15" fill="black" fill-opacity="0" transform="translate(580.781 574.596) scale(3) rotate(-23.9834)"/>
<rect width="7" height="15" fill="black" fill-opacity="0" transform="translate(739.758 503.87) scale(3) rotate(-23.9834)"/>
<path d="M748.211 511.813C747.563 510.357 747.592 508.966 748.297 507.639C749.008 506.296 750.3 505.208 752.174 504.375C753.662 503.713 755.255 503.357 756.951 503.307L758.063 505.891C756.165 505.979 754.552 506.318 753.224 506.909C752.304 507.318 751.656 507.837 751.281 508.466C750.917 509.089 750.883 509.733 751.178 510.397C751.693 511.553 753.317 512.017 756.05 511.789C758.789 511.545 761.031 511.901 762.777 512.856C764.529 513.795 765.898 515.302 766.885 517.377L767.164 518.003C767.893 519.641 768.232 521.254 768.181 522.841C768.126 524.418 767.669 525.827 766.81 527.068C765.958 528.294 764.755 529.252 763.203 529.943C760.826 531.001 758.58 531.057 756.467 530.112C754.359 529.151 752.729 527.375 751.576 524.784L751.484 524.575C750.698 522.809 750.493 520.995 750.871 519.134C751.249 517.272 752.125 515.812 753.5 514.751L753.449 514.678C752.203 514.732 751.124 514.513 750.212 514.02C749.312 513.523 748.644 512.788 748.211 511.813ZM754.637 523.576C755.475 525.461 756.566 526.758 757.908 527.47C759.256 528.165 760.664 528.187 762.131 527.534C763.587 526.886 764.503 525.831 764.878 524.369C765.254 522.906 764.97 521.115 764.027 518.995C763.379 517.539 762.34 516.43 760.911 515.667C759.488 514.89 758.047 514.665 756.59 514.993C755.134 515.64 754.212 516.711 753.825 518.204C753.433 519.687 753.703 521.478 754.637 523.576Z" fill="black"/>
<rect width="5" height="62" fill="black" fill-opacity="0" transform="translate(747.345 424.975) scale(3) rotate(-23.9834)"/>
<path d="M836.227 591.789C837.867 592.024 839.387 590.886 839.623 589.246L843.462 562.52C843.698 560.88 842.559 559.359 840.919 559.124C839.279 558.888 837.759 560.027 837.523 561.667L834.11 585.423L810.354 582.01C808.714 581.774 807.194 582.913 806.958 584.553C806.723 586.193 807.861 587.714 809.501 587.949L836.227 591.789ZM758.06 419.124C760.636 450.409 766.491 475.727 778.363 502.071C790.207 528.353 807.99 555.544 834.252 590.617L839.055 587.021C812.868 552.048 795.402 525.278 783.833 499.606C772.292 473.997 766.57 449.367 764.039 418.631L758.06 419.124Z" fill="black"/>
<rect width="72" height="64" fill="black" fill-opacity="0" transform="translate(984 640.8) scale(3) rotate(-22.5402)"/>
<rect width="65" height="15" fill="black" fill-opacity="0" transform="translate(1006.79 680.062) scale(3) rotate(-22.5402)"/>
<rect width="7" height="15" fill="black" fill-opacity="0" transform="translate(1167.5 613.362) scale(3) rotate(-22.5402)"/>
<path d="M1189.79 619.249L1195.16 632.189C1195.81 633.695 1196.56 634.273 1197.4 633.923C1197.61 633.837 1197.78 633.734 1197.92 633.612L1199.21 635.682C1198.85 636.265 1198.26 636.723 1197.46 637.056C1195.87 637.716 1194.5 637.239 1193.35 635.623C1192.93 637.89 1191.59 639.493 1189.33 640.432C1187.25 641.294 1185.28 641.218 1183.41 640.204C1181.54 639.179 1180.06 637.347 1178.96 634.706L1178.86 634.462C1177.67 631.605 1177.34 629.067 1177.85 626.849C1178.36 624.621 1179.67 623.066 1181.79 622.186C1183.99 621.274 1186.03 621.449 1187.91 622.711L1187.24 620.307L1189.79 619.249ZM1182 633.556C1182.79 635.451 1183.8 636.764 1185.03 637.497C1186.25 638.219 1187.6 638.276 1189.06 637.67C1190.93 636.893 1191.89 635.314 1191.95 632.932L1188.94 625.691C1187.18 624.038 1185.38 623.589 1183.57 624.344C1182.12 624.946 1181.24 626.032 1180.94 627.603C1180.65 629.158 1181 631.143 1182 633.556Z" fill="black"/>
<rect width="5" height="72" fill="black" fill-opacity="0" transform="translate(1195 585.708) scale(-3 3) rotate(-67.4598)"/>
<path d="M988.091 657.154C986.711 656.238 986.334 654.376 987.25 652.995L1002.18 630.497C1003.09 629.117 1004.96 628.74 1006.34 629.656C1007.72 630.572 1008.09 632.434 1007.18 633.815L993.908 653.813L1013.91 667.082C1015.29 667.998 1015.66 669.86 1014.75 671.24C1013.83 672.621 1011.97 672.998 1010.59 672.082L988.091 657.154ZM1191.15 574.176C1135.49 619.734 1089.55 637.529 990.345 657.594L989.155 651.713C1087.88 631.745 1132.75 614.223 1187.35 569.533L1191.15 574.176Z" fill="black"/>
<rect width="183.683" height="95.9095" fill="black" fill-opacity="0" transform="translate(993 684.154) scale(3) rotate(-4.19297)"/>
<rect width="65" height="15" fill="black" fill-opacity="0" transform="translate(1169.82 716.311) scale(3) rotate(-4.19297)"/>
<rect width="7" height="15" fill="black" fill-opacity="0" transform="translate(1343.36 703.589) scale(3) rotate(-4.19297)"/>
<path d="M1349.46 709.475C1350.61 709.391 1351.55 709.557 1352.28 709.974C1353.02 710.39 1353.62 711.139 1354.08 712.221L1363 731.114C1363.27 731.693 1363.55 732.09 1363.82 732.305C1364.11 732.507 1364.46 732.593 1364.86 732.563L1365.53 732.462L1365.83 735.119C1365.42 735.29 1364.97 735.393 1364.48 735.429C1363.58 735.495 1362.89 735.44 1362.42 735.263C1361.95 735.074 1361.51 734.742 1361.11 734.266C1360.71 733.79 1360.31 733.097 1359.9 732.187L1355.11 722.086L1351.1 736.111L1347.48 736.375L1353.07 717.83L1351.08 713.833C1350.77 713.198 1350.44 712.758 1350.11 712.512C1349.78 712.266 1349.36 712.162 1348.83 712.201L1348.01 712.296L1347.81 709.808C1348.29 709.632 1348.84 709.521 1349.46 709.475Z" fill="black"/>
<rect width="5" height="183.683" fill="black" fill-opacity="0" transform="translate(1544.77 673.783) scale(-3 3) rotate(-85.807)"/>
<path d="M991.968 701.228C990.8 700.052 990.807 698.152 991.983 696.985L1011.14 677.962C1012.32 676.795 1014.22 676.802 1015.39 677.977C1016.55 679.153 1016.55 681.053 1015.37 682.22L998.339 699.129L1015.25 716.161C1016.42 717.337 1016.41 719.236 1015.23 720.404C1014.06 721.571 1012.16 721.564 1010.99 720.388L991.968 701.228ZM1544.24 661.769C1371.91 695.034 1247.69 703.03 994.086 702.114L994.108 696.114C1247.52 697.029 1371.31 689.04 1543.1 655.878L1544.24 661.769Z" fill="black"/>
<rect width="39" height="62" fill="black" fill-opacity="0" transform="translate(1194 27) scale(3)"/>
<rect width="65" height="15" fill="black" fill-opacity="0" transform="translate(1071 96) scale(3)"/>
<rect width="7" height="15" fill="black" fill-opacity="0" transform="translate(1245 96) scale(3)"/>
<path d="M1257.14 124.148L1262.06 109.98H1265.38L1258.72 127.998V136.312H1255.45V127.875L1248.77 109.98H1252.1L1257.14 124.148Z" fill="black"/>
<rect width="5" height="62" fill="black" fill-opacity="0" transform="translate(1284 27) scale(3)"/>
<path d="M1297.4 215.54C1298.81 216.422 1300.66 215.999 1301.54 214.597L1315.91 191.739C1316.79 190.337 1316.37 188.485 1314.97 187.603C1313.57 186.721 1311.71 187.143 1310.83 188.546L1298.06 208.863L1277.74 196.089C1276.34 195.207 1274.48 195.629 1273.6 197.032C1272.72 198.435 1273.14 200.287 1274.55 201.169L1297.4 215.54ZM1296.17 26.0096C1285.81 55.6406 1280.86 81.1531 1281 110.049C1281.14 138.876 1286.34 170.947 1296.08 213.667L1301.92 212.333C1292.21 169.735 1287.14 138.178 1287 110.02C1286.87 81.93 1291.65 57.1013 1301.83 27.9904L1296.17 26.0096Z" fill="black"/>
<path d="M674.32 209.215L680.455 199.406H684.428L676.342 212.098L684.621 225H680.613L674.32 215.016L667.992 225H664.002L672.299 212.098L664.195 199.406H668.15L674.32 209.215Z" fill="black"/>
<rect width="5" height="50" fill="black" fill-opacity="0" transform="translate(1531.08 251.382) scale(-3 3) rotate(-73.5001)"/>
<path d="M1380.91 281.75C1379.72 280.593 1379.7 278.694 1380.85 277.507L1399.7 258.178C1400.86 256.992 1402.76 256.969 1403.95 258.125C1405.13 259.282 1405.16 261.182 1404 262.368L1387.24 279.549L1404.42 296.306C1405.61 297.463 1405.63 299.362 1404.48 300.548C1403.32 301.735 1401.42 301.758 1400.23 300.601L1380.91 281.75ZM1528.75 239.3C1508.71 256.083 1490.26 266.745 1467.71 273.28C1445.24 279.79 1418.86 282.154 1383.04 282.602L1382.96 276.602C1418.64 276.156 1444.37 273.796 1466.04 267.517C1487.63 261.262 1505.35 251.07 1524.9 234.7L1528.75 239.3Z" fill="black"/>
<rect width="20.8149" height="137.879" fill="black" fill-opacity="0" transform="translate(726.86 35.6486) scale(-3 3) rotate(-32.2582)"/>
<path d="M452.741 355.064C451.111 354.766 450.031 353.203 450.33 351.573L455.188 325.014C455.487 323.384 457.05 322.305 458.679 322.603C460.309 322.901 461.389 324.464 461.09 326.094L456.772 349.702L480.38 354.021C482.01 354.319 483.089 355.882 482.791 357.512C482.493 359.142 480.93 360.221 479.3 359.923L452.741 355.064ZM677.054 2.26967C678.36 80.7166 665.533 139.495 630.815 193.421C596.177 247.223 539.919 295.918 454.986 354.581L451.576 349.645C536.378 291.072 591.806 242.93 625.77 190.173C659.655 137.541 672.348 80.0405 671.054 2.36957L677.054 2.26967Z" fill="black"/>
<rect width="19.8497" height="102.235" fill="black" fill-opacity="0" transform="translate(627 57.4423) scale(3) rotate(-36.9701)"/>
<path d="M737.929 284.556C739.341 285.423 741.188 284.983 742.056 283.571L756.195 260.569C757.062 259.157 756.621 257.31 755.21 256.442C753.798 255.575 751.951 256.015 751.083 257.427L738.515 277.873L718.069 265.305C716.657 264.438 714.81 264.879 713.942 266.29C713.075 267.702 713.515 269.549 714.927 270.417L737.929 284.556ZM671.599 24.2658C666.686 64.4671 675.232 96.3447 688.779 134.444C702.326 172.543 720.881 216.902 736.582 282.696L742.418 281.304C726.619 215.098 707.885 170.27 694.432 132.434C680.979 94.5976 672.813 63.79 677.555 24.9936L671.599 24.2658Z" fill="black"/>
<rect width="6.74761" height="97.2088" fill="black" fill-opacity="0" transform="translate(1153.74 421.94) scale(3) rotate(112.147)"/>
<path d="M874.324 328.261C872.95 329.186 872.586 331.05 873.511 332.425L888.591 354.821C889.517 356.195 891.381 356.559 892.756 355.634C894.13 354.709 894.494 352.844 893.568 351.47L880.164 331.562L900.072 318.158C901.446 317.232 901.81 315.368 900.885 313.994C899.959 312.619 898.095 312.255 896.721 313.181L874.324 328.261ZM1147.99 438.355C1072.61 377.525 1010.61 353.971 876.575 327.805L875.425 333.694C1008.98 359.766 1069.91 383.054 1144.23 443.024L1147.99 438.355Z" fill="black"/>
<path d="M1471.54 229.617H1465.02V241.271C1465.02 242.83 1465.63 243.609 1466.87 243.609C1467.37 243.609 1467.91 243.457 1468.48 243.152L1469.22 245.438C1468.33 246.047 1467.26 246.352 1466.02 246.352C1464.56 246.352 1463.48 245.924 1462.79 245.068C1462.11 244.201 1461.76 242.912 1461.75 241.201V229.617H1455.65V226.98H1471.54V229.617Z" fill="black"/>
<path d="M699.855 46.3594C698.309 45.9375 696.967 45.7266 695.83 45.7266C694.178 45.7266 692.883 46.0312 691.945 46.6406C691.008 47.2383 690.539 48.0352 690.539 49.0312C690.539 51.5977 692.49 52.8809 696.393 52.8809H698.73V55.5527H696.094C693.961 55.5762 692.309 56.0449 691.137 56.959C689.977 57.873 689.396 59.2852 689.396 61.1953C689.396 62.5078 689.818 63.627 690.662 64.5527C691.506 65.4668 692.719 66.1172 694.301 66.5039C695.895 66.8789 697.055 67.1777 697.781 67.4004C698.508 67.6113 699.059 67.834 699.434 68.0684C700.359 68.6426 700.822 69.5449 700.822 70.7754C700.822 71.5254 700.518 72.3867 699.908 73.3594C699.299 74.3438 698.572 75.1934 697.729 75.9082L695.848 74.4316L696.85 73.3066C697.424 72.6035 697.711 71.8887 697.711 71.1621C697.711 70.7051 697.488 70.3418 697.043 70.0723C696.598 69.8027 695.701 69.5156 694.354 69.2109C693.006 68.918 691.834 68.5781 690.838 68.1914C689.854 67.8047 689.01 67.3066 688.307 66.6973C687.615 66.0762 687.076 65.3203 686.689 64.4297C686.314 63.5273 686.127 62.4258 686.127 61.125C686.127 59.4258 686.607 57.9844 687.568 56.8008C688.529 55.6055 689.889 54.7383 691.646 54.1992C690.264 53.707 689.186 53.0156 688.412 52.125C687.65 51.2344 687.27 50.2266 687.27 49.1016C687.27 47.2383 688.025 45.7676 689.537 44.6895C691.049 43.5996 693.141 43.0547 695.812 43.0547C697.512 43.0547 699.018 43.2832 700.33 43.7402L699.855 46.3594Z" fill="black"/>
<rect width="72" height="50" fill="black" fill-opacity="0" transform="translate(54 669) scale(3)"/>
<rect width="65" height="15" fill="black" fill-opacity="0" transform="translate(60 714) scale(3)"/>
<rect width="10" height="15" fill="black" fill-opacity="0" transform="translate(225 714) scale(3)"/>
<path d="M233.273 727.98C231.656 731.297 230.807 734.355 230.725 737.156C230.725 739.535 231.059 741.393 231.727 742.729C232.395 744.053 233.35 744.715 234.592 744.715C235.857 744.715 236.818 744.211 237.475 743.203C238.143 742.184 238.477 740.701 238.477 738.756V733.465H241.764V738.844C241.775 740.766 242.109 742.225 242.766 743.221C243.434 744.217 244.395 744.715 245.648 744.715C246.891 744.715 247.846 744.053 248.514 742.729C249.182 741.404 249.516 739.547 249.516 737.156C249.434 734.355 248.584 731.297 246.967 727.98H250.395C251.977 730.84 252.768 733.898 252.768 737.156C252.768 740.379 252.158 742.887 250.939 744.68C249.732 746.461 248.027 747.352 245.824 747.352C243.012 747.352 241.107 745.957 240.111 743.168C239.631 744.539 238.91 745.582 237.949 746.297C236.988 747 235.811 747.352 234.416 747.352C232.213 747.352 230.502 746.461 229.283 744.68C228.076 742.887 227.473 740.379 227.473 737.156C227.473 733.793 228.264 730.734 229.846 727.98H233.273Z" fill="black"/>
<rect width="5" height="72" fill="black" fill-opacity="0" transform="translate(270 699) scale(-3 3) rotate(-90)"/>
<path d="M51.5098 685.673C50.5858 684.298 50.9517 682.434 52.327 681.51L74.7388 666.453C76.1141 665.529 77.978 665.895 78.902 667.27C79.826 668.645 79.4601 670.509 78.0848 671.433L58.1632 684.817L71.5471 704.739C72.4711 706.114 72.1052 707.978 70.7299 708.902C69.3546 709.826 67.4907 709.46 66.5667 708.085L51.5098 685.673ZM270.865 686.873C201.992 707.614 152.741 706.439 53.4221 686.944L54.5779 681.056C153.416 700.458 201.575 701.474 269.135 681.127L270.865 686.873Z" fill="black"/>
<rect width="42" height="50" fill="black" fill-opacity="0" transform="translate(39 483) scale(3)"/>
<rect width="65" height="15" fill="black" fill-opacity="0" transform="translate(0 528) scale(3)"/>
<rect width="6" height="15" fill="black" fill-opacity="0" transform="translate(177 528) scale(3)"/>
<path d="M179.689 541.717C181.729 541.717 183.264 542.842 184.295 545.092L186.914 551.051L191.396 541.98H194.684L188.496 554.654L192.328 563.408C193.043 564.908 193.799 565.676 194.596 565.711H195.053L196.318 565.623L195.492 568.4C195.211 568.576 194.854 568.664 194.42 568.664C193.354 568.664 192.469 568.389 191.766 567.838C191.062 567.287 190.348 566.227 189.621 564.656L186.773 558.152L181.834 568.295H178.389L185.191 554.514L182.238 547.711C181.383 545.566 180.328 544.494 179.074 544.494L177.879 544.582L177.861 541.98C178.658 541.805 179.268 541.717 179.689 541.717Z" fill="black"/>
<rect width="5" height="42" fill="black" fill-opacity="0" transform="translate(165 513) scale(-3 3) rotate(-90)"/>
<path d="M36.3129 499.334C35.5762 497.85 36.182 496.05 37.666 495.313L61.8499 483.307C63.3339 482.57 65.1342 483.176 65.871 484.66C66.6077 486.144 66.0019 487.944 64.5179 488.681L43.0211 499.353L53.693 520.85C54.4297 522.334 53.8239 524.134 52.3399 524.871C50.8558 525.608 49.0555 525.002 48.3188 523.518L36.3129 499.334ZM166.376 500.666C146.164 511.101 128.633 516.138 108.73 515.997C88.9361 515.857 67.0148 510.592 38.0432 500.843L39.9568 495.157C68.781 504.856 89.9633 509.864 108.772 509.997C127.472 510.13 144.043 505.443 163.624 495.334L166.376 500.666Z" fill="black"/>
<path d="M431.461 954.17H420.369V963.24H433.254V966H416.994V940.406H433.078V943.184H420.369V951.41H431.461V954.17ZM443.326 953.924L447.545 946.98H451.342L445.119 956.385L451.535 966H447.773L443.379 958.881L438.984 966H435.205L441.621 956.385L435.398 946.98H439.16L443.326 953.924ZM466.547 966C466.359 965.625 466.207 964.957 466.09 963.996C464.578 965.566 462.773 966.352 460.676 966.352C458.801 966.352 457.26 965.824 456.053 964.77C454.857 963.703 454.26 962.355 454.26 960.727C454.26 958.746 455.01 957.211 456.51 956.121C458.021 955.02 460.143 954.469 462.873 954.469H466.037V952.975C466.037 951.838 465.697 950.936 465.018 950.268C464.338 949.588 463.336 949.248 462.012 949.248C460.852 949.248 459.879 949.541 459.094 950.127C458.309 950.713 457.916 951.422 457.916 952.254H454.646C454.646 951.305 454.98 950.391 455.648 949.512C456.328 948.621 457.242 947.918 458.391 947.402C459.551 946.887 460.822 946.629 462.205 946.629C464.396 946.629 466.113 947.18 467.355 948.281C468.598 949.371 469.242 950.877 469.289 952.799V961.553C469.289 963.299 469.512 964.688 469.957 965.719V966H466.547ZM461.15 963.521C462.17 963.521 463.137 963.258 464.051 962.73C464.965 962.203 465.627 961.518 466.037 960.674V956.771H463.488C459.504 956.771 457.512 957.938 457.512 960.27C457.512 961.289 457.852 962.086 458.531 962.66C459.211 963.234 460.084 963.521 461.15 963.521ZM477.445 946.98L477.533 949.09C478.928 947.449 480.809 946.629 483.176 946.629C485.836 946.629 487.646 947.648 488.607 949.688C489.24 948.773 490.061 948.035 491.068 947.473C492.088 946.91 493.289 946.629 494.672 946.629C498.844 946.629 500.965 948.838 501.035 953.256V966H497.783V953.449C497.783 952.09 497.473 951.076 496.852 950.408C496.23 949.729 495.188 949.389 493.723 949.389C492.516 949.389 491.514 949.752 490.717 950.479C489.92 951.193 489.457 952.16 489.328 953.379V966H486.059V953.537C486.059 950.771 484.705 949.389 481.998 949.389C479.865 949.389 478.406 950.297 477.621 952.113V966H474.369V946.98H477.445ZM522.023 956.701C522.023 959.596 521.361 961.928 520.037 963.697C518.713 965.467 516.92 966.352 514.658 966.352C512.35 966.352 510.533 965.619 509.209 964.154V973.312H505.957V946.98H508.928L509.086 949.09C510.41 947.449 512.25 946.629 514.605 946.629C516.891 946.629 518.695 947.49 520.02 949.213C521.355 950.936 522.023 953.332 522.023 956.402V956.701ZM518.771 956.332C518.771 954.188 518.314 952.494 517.4 951.252C516.486 950.01 515.232 949.389 513.639 949.389C511.67 949.389 510.193 950.262 509.209 952.008V961.096C510.182 962.83 511.67 963.697 513.674 963.697C515.232 963.697 516.469 963.082 517.383 961.852C518.309 960.609 518.771 958.77 518.771 956.332ZM529.705 966H526.453V939H529.705V966ZM542.818 966.352C540.24 966.352 538.143 965.508 536.525 963.82C534.908 962.121 534.1 959.854 534.1 957.018V956.42C534.1 954.533 534.457 952.852 535.172 951.375C535.898 949.887 536.906 948.727 538.195 947.895C539.496 947.051 540.902 946.629 542.414 946.629C544.887 946.629 546.809 947.443 548.18 949.072C549.551 950.701 550.236 953.033 550.236 956.068V957.422H537.352C537.398 959.297 537.943 960.814 538.986 961.975C540.041 963.123 541.377 963.697 542.994 963.697C544.143 963.697 545.115 963.463 545.912 962.994C546.709 962.525 547.406 961.904 548.004 961.131L549.99 962.678C548.396 965.127 546.006 966.352 542.818 966.352ZM542.414 949.301C541.102 949.301 540 949.781 539.109 950.742C538.219 951.691 537.668 953.027 537.457 954.75H546.984V954.504C546.891 952.852 546.445 951.574 545.648 950.672C544.852 949.758 543.773 949.301 542.414 949.301ZM553.91 964.295C553.91 963.732 554.074 963.264 554.402 962.889C554.742 962.514 555.246 962.326 555.914 962.326C556.582 962.326 557.086 962.514 557.426 962.889C557.777 963.264 557.953 963.732 557.953 964.295C557.953 964.834 557.777 965.285 557.426 965.648C557.086 966.012 556.582 966.193 555.914 966.193C555.246 966.193 554.742 966.012 554.402 965.648C554.074 965.285 553.91 964.834 553.91 964.295ZM553.928 948.773C553.928 948.211 554.092 947.742 554.42 947.367C554.76 946.992 555.264 946.805 555.932 946.805C556.6 946.805 557.104 946.992 557.443 947.367C557.795 947.742 557.971 948.211 557.971 948.773C557.971 949.312 557.795 949.764 557.443 950.127C557.104 950.49 556.6 950.672 555.932 950.672C555.264 950.672 554.76 950.49 554.42 950.127C554.092 949.764 553.928 949.312 553.928 948.773ZM589.154 943.184H580.928V966H577.57V943.184H569.361V940.406H589.154V943.184ZM595.693 949.283C597.135 947.514 599.01 946.629 601.318 946.629C605.338 946.629 607.365 948.896 607.4 953.432V966H604.148V953.414C604.137 952.043 603.82 951.029 603.199 950.373C602.59 949.717 601.635 949.389 600.334 949.389C599.279 949.389 598.354 949.67 597.557 950.232C596.76 950.795 596.139 951.533 595.693 952.447V966H592.441V939H595.693V949.283ZM615.803 966H612.551V946.98H615.803V966ZM612.287 941.936C612.287 941.408 612.445 940.963 612.762 940.6C613.09 940.236 613.57 940.055 614.203 940.055C614.836 940.055 615.316 940.236 615.645 940.6C615.973 940.963 616.137 941.408 616.137 941.936C616.137 942.463 615.973 942.902 615.645 943.254C615.316 943.605 614.836 943.781 614.203 943.781C613.57 943.781 613.09 943.605 612.762 943.254C612.445 942.902 612.287 942.463 612.287 941.936ZM632.098 960.955C632.098 960.076 631.764 959.396 631.096 958.916C630.439 958.424 629.285 958.002 627.633 957.65C625.992 957.299 624.686 956.877 623.713 956.385C622.752 955.893 622.037 955.307 621.568 954.627C621.111 953.947 620.883 953.139 620.883 952.201C620.883 950.643 621.539 949.324 622.852 948.246C624.176 947.168 625.863 946.629 627.914 946.629C630.07 946.629 631.816 947.186 633.152 948.299C634.5 949.412 635.174 950.836 635.174 952.57H631.904C631.904 951.68 631.523 950.912 630.762 950.268C630.012 949.623 629.062 949.301 627.914 949.301C626.73 949.301 625.805 949.559 625.137 950.074C624.469 950.59 624.135 951.264 624.135 952.096C624.135 952.881 624.445 953.473 625.066 953.871C625.688 954.27 626.807 954.65 628.424 955.014C630.053 955.377 631.371 955.811 632.379 956.314C633.387 956.818 634.131 957.428 634.611 958.143C635.104 958.846 635.35 959.707 635.35 960.727C635.35 962.426 634.67 963.791 633.311 964.822C631.951 965.842 630.188 966.352 628.02 966.352C626.496 966.352 625.148 966.082 623.977 965.543C622.805 965.004 621.885 964.254 621.217 963.293C620.561 962.32 620.232 961.271 620.232 960.146H623.484C623.543 961.236 623.977 962.104 624.785 962.748C625.605 963.381 626.684 963.697 628.02 963.697C629.25 963.697 630.234 963.451 630.973 962.959C631.723 962.455 632.098 961.787 632.098 960.955ZM652.049 966H648.797V946.98H652.049V966ZM648.533 941.936C648.533 941.408 648.691 940.963 649.008 940.6C649.336 940.236 649.816 940.055 650.449 940.055C651.082 940.055 651.562 940.236 651.891 940.6C652.219 940.963 652.383 941.408 652.383 941.936C652.383 942.463 652.219 942.902 651.891 943.254C651.562 943.605 651.082 943.781 650.449 943.781C649.816 943.781 649.336 943.605 649.008 943.254C648.691 942.902 648.533 942.463 648.533 941.936ZM668.344 960.955C668.344 960.076 668.01 959.396 667.342 958.916C666.686 958.424 665.531 958.002 663.879 957.65C662.238 957.299 660.932 956.877 659.959 956.385C658.998 955.893 658.283 955.307 657.814 954.627C657.357 953.947 657.129 953.139 657.129 952.201C657.129 950.643 657.785 949.324 659.098 948.246C660.422 947.168 662.109 946.629 664.16 946.629C666.316 946.629 668.062 947.186 669.398 948.299C670.746 949.412 671.42 950.836 671.42 952.57H668.15C668.15 951.68 667.77 950.912 667.008 950.268C666.258 949.623 665.309 949.301 664.16 949.301C662.977 949.301 662.051 949.559 661.383 950.074C660.715 950.59 660.381 951.264 660.381 952.096C660.381 952.881 660.691 953.473 661.312 953.871C661.934 954.27 663.053 954.65 664.67 955.014C666.299 955.377 667.617 955.811 668.625 956.314C669.633 956.818 670.377 957.428 670.857 958.143C671.35 958.846 671.596 959.707 671.596 960.727C671.596 962.426 670.916 963.791 669.557 964.822C668.197 965.842 666.434 966.352 664.266 966.352C662.742 966.352 661.395 966.082 660.223 965.543C659.051 965.004 658.131 964.254 657.463 963.293C656.807 962.32 656.479 961.271 656.479 960.146H659.73C659.789 961.236 660.223 962.104 661.031 962.748C661.852 963.381 662.93 963.697 664.266 963.697C665.496 963.697 666.48 963.451 667.219 962.959C667.969 962.455 668.344 961.787 668.344 960.955ZM696.504 966C696.316 965.625 696.164 964.957 696.047 963.996C694.535 965.566 692.73 966.352 690.633 966.352C688.758 966.352 687.217 965.824 686.01 964.77C684.814 963.703 684.217 962.355 684.217 960.727C684.217 958.746 684.967 957.211 686.467 956.121C687.979 955.02 690.1 954.469 692.83 954.469H695.994V952.975C695.994 951.838 695.654 950.936 694.975 950.268C694.295 949.588 693.293 949.248 691.969 949.248C690.809 949.248 689.836 949.541 689.051 950.127C688.266 950.713 687.873 951.422 687.873 952.254H684.604C684.604 951.305 684.938 950.391 685.605 949.512C686.285 948.621 687.199 947.918 688.348 947.402C689.508 946.887 690.779 946.629 692.162 946.629C694.354 946.629 696.07 947.18 697.312 948.281C698.555 949.371 699.199 950.877 699.246 952.799V961.553C699.246 963.299 699.469 964.688 699.914 965.719V966H696.504ZM691.107 963.521C692.127 963.521 693.094 963.258 694.008 962.73C694.922 962.203 695.584 961.518 695.994 960.674V956.771H693.445C689.461 956.771 687.469 957.938 687.469 960.27C687.469 961.289 687.809 962.086 688.488 962.66C689.168 963.234 690.041 963.521 691.107 963.521ZM722.467 949.898C721.975 949.816 721.441 949.775 720.867 949.775C718.734 949.775 717.287 950.684 716.525 952.5V966H713.273V946.98H716.438L716.49 949.178C717.557 947.479 719.068 946.629 721.025 946.629C721.658 946.629 722.139 946.711 722.467 946.875V949.898ZM733.014 966.352C730.436 966.352 728.338 965.508 726.721 963.82C725.104 962.121 724.295 959.854 724.295 957.018V956.42C724.295 954.533 724.652 952.852 725.367 951.375C726.094 949.887 727.102 948.727 728.391 947.895C729.691 947.051 731.098 946.629 732.609 946.629C735.082 946.629 737.004 947.443 738.375 949.072C739.746 950.701 740.432 953.033 740.432 956.068V957.422H727.547C727.594 959.297 728.139 960.814 729.182 961.975C730.236 963.123 731.572 963.697 733.189 963.697C734.338 963.697 735.311 963.463 736.107 962.994C736.904 962.525 737.602 961.904 738.199 961.131L740.186 962.678C738.592 965.127 736.201 966.352 733.014 966.352ZM732.609 949.301C731.297 949.301 730.195 949.781 729.305 950.742C728.414 951.691 727.863 953.027 727.652 954.75H737.18V954.504C737.086 952.852 736.641 951.574 735.844 950.672C735.047 949.758 733.969 949.301 732.609 949.301ZM750.979 956.455H742.4V953.801H750.979V956.455ZM761.789 963.697C762.949 963.697 763.963 963.346 764.83 962.643C765.697 961.939 766.178 961.061 766.271 960.006H769.348C769.289 961.096 768.914 962.133 768.223 963.117C767.531 964.102 766.605 964.887 765.445 965.473C764.297 966.059 763.078 966.352 761.789 966.352C759.199 966.352 757.137 965.49 755.602 963.768C754.078 962.033 753.316 959.666 753.316 956.666V956.121C753.316 954.27 753.656 952.623 754.336 951.182C755.016 949.74 755.988 948.621 757.254 947.824C758.531 947.027 760.037 946.629 761.771 946.629C763.904 946.629 765.674 947.268 767.08 948.545C768.498 949.822 769.254 951.48 769.348 953.52H766.271C766.178 952.289 765.709 951.281 764.865 950.496C764.033 949.699 763.002 949.301 761.771 949.301C760.119 949.301 758.836 949.898 757.922 951.094C757.02 952.277 756.568 953.994 756.568 956.244V956.859C756.568 959.051 757.02 960.738 757.922 961.922C758.824 963.105 760.113 963.697 761.789 963.697ZM782.197 949.898C781.705 949.816 781.172 949.775 780.598 949.775C778.465 949.775 777.018 950.684 776.256 952.5V966H773.004V946.98H776.168L776.221 949.178C777.287 947.479 778.799 946.629 780.756 946.629C781.389 946.629 781.869 946.711 782.197 946.875V949.898ZM792.744 966.352C790.166 966.352 788.068 965.508 786.451 963.82C784.834 962.121 784.025 959.854 784.025 957.018V956.42C784.025 954.533 784.383 952.852 785.098 951.375C785.824 949.887 786.832 948.727 788.121 947.895C789.422 947.051 790.828 946.629 792.34 946.629C794.812 946.629 796.734 947.443 798.105 949.072C799.477 950.701 800.162 953.033 800.162 956.068V957.422H787.277C787.324 959.297 787.869 960.814 788.912 961.975C789.967 963.123 791.303 963.697 792.92 963.697C794.068 963.697 795.041 963.463 795.838 962.994C796.635 962.525 797.332 961.904 797.93 961.131L799.916 962.678C798.322 965.127 795.932 966.352 792.744 966.352ZM792.34 949.301C791.027 949.301 789.926 949.781 789.035 950.742C788.145 951.691 787.594 953.027 787.383 954.75H796.91V954.504C796.816 952.852 796.371 951.574 795.574 950.672C794.777 949.758 793.699 949.301 792.34 949.301ZM815.684 966C815.496 965.625 815.344 964.957 815.227 963.996C813.715 965.566 811.91 966.352 809.812 966.352C807.938 966.352 806.396 965.824 805.189 964.77C803.994 963.703 803.396 962.355 803.396 960.727C803.396 958.746 804.146 957.211 805.646 956.121C807.158 955.02 809.279 954.469 812.01 954.469H815.174V952.975C815.174 951.838 814.834 950.936 814.154 950.268C813.475 949.588 812.473 949.248 811.148 949.248C809.988 949.248 809.016 949.541 808.23 950.127C807.445 950.713 807.053 951.422 807.053 952.254H803.783C803.783 951.305 804.117 950.391 804.785 949.512C805.465 948.621 806.379 947.918 807.527 947.402C808.688 946.887 809.959 946.629 811.342 946.629C813.533 946.629 815.25 947.18 816.492 948.281C817.734 949.371 818.379 950.877 818.426 952.799V961.553C818.426 963.299 818.648 964.688 819.094 965.719V966H815.684ZM810.287 963.521C811.307 963.521 812.273 963.258 813.188 962.73C814.102 962.203 814.764 961.518 815.174 960.674V956.771H812.625C808.641 956.771 806.648 957.938 806.648 960.27C806.648 961.289 806.988 962.086 807.668 962.66C808.348 963.234 809.221 963.521 810.287 963.521ZM827.936 942.375V946.98H831.486V949.494H827.936V961.289C827.936 962.051 828.094 962.625 828.41 963.012C828.727 963.387 829.266 963.574 830.027 963.574C830.402 963.574 830.918 963.504 831.574 963.363V966C830.719 966.234 829.887 966.352 829.078 966.352C827.625 966.352 826.529 965.912 825.791 965.033C825.053 964.154 824.684 962.906 824.684 961.289V949.494H821.221V946.98H824.684V942.375H827.936ZM838.834 966H835.582V946.98H838.834V966ZM835.318 941.936C835.318 941.408 835.477 940.963 835.793 940.6C836.121 940.236 836.602 940.055 837.234 940.055C837.867 940.055 838.348 940.236 838.676 940.6C839.004 940.963 839.168 941.408 839.168 941.936C839.168 942.463 839.004 942.902 838.676 943.254C838.348 943.605 837.867 943.781 837.234 943.781C836.602 943.781 836.121 943.605 835.793 943.254C835.477 942.902 835.318 942.463 835.318 941.936ZM843.193 956.314C843.193 954.451 843.557 952.775 844.283 951.287C845.021 949.799 846.041 948.65 847.342 947.842C848.654 947.033 850.148 946.629 851.824 946.629C854.414 946.629 856.506 947.525 858.1 949.318C859.705 951.111 860.508 953.496 860.508 956.473V956.701C860.508 958.553 860.15 960.217 859.436 961.693C858.732 963.158 857.719 964.301 856.395 965.121C855.082 965.941 853.57 966.352 851.859 966.352C849.281 966.352 847.189 965.455 845.584 963.662C843.99 961.869 843.193 959.496 843.193 956.543V956.314ZM846.463 956.701C846.463 958.811 846.949 960.504 847.922 961.781C848.906 963.059 850.219 963.697 851.859 963.697C853.512 963.697 854.824 963.053 855.797 961.764C856.77 960.463 857.256 958.646 857.256 956.314C857.256 954.229 856.758 952.541 855.762 951.252C854.777 949.951 853.465 949.301 851.824 949.301C850.219 949.301 848.924 949.939 847.939 951.217C846.955 952.494 846.463 954.322 846.463 956.701ZM867.662 946.98L867.768 949.371C869.221 947.543 871.119 946.629 873.463 946.629C877.482 946.629 879.51 948.896 879.545 953.432V966H876.293V953.414C876.281 952.043 875.965 951.029 875.344 950.373C874.734 949.717 873.779 949.389 872.479 949.389C871.424 949.389 870.498 949.67 869.701 950.232C868.904 950.795 868.283 951.533 867.838 952.447V966H864.586V946.98H867.662ZM892.518 956.314C892.518 954.451 892.881 952.775 893.607 951.287C894.346 949.799 895.365 948.65 896.666 947.842C897.979 947.033 899.473 946.629 901.148 946.629C903.738 946.629 905.83 947.525 907.424 949.318C909.029 951.111 909.832 953.496 909.832 956.473V956.701C909.832 958.553 909.475 960.217 908.76 961.693C908.057 963.158 907.043 964.301 905.719 965.121C904.406 965.941 902.895 966.352 901.184 966.352C898.605 966.352 896.514 965.455 894.908 963.662C893.314 961.869 892.518 959.496 892.518 956.543V956.314ZM895.787 956.701C895.787 958.811 896.273 960.504 897.246 961.781C898.23 963.059 899.543 963.697 901.184 963.697C902.836 963.697 904.148 963.053 905.121 961.764C906.094 960.463 906.58 958.646 906.58 956.314C906.58 954.229 906.082 952.541 905.086 951.252C904.102 949.951 902.789 949.301 901.148 949.301C899.543 949.301 898.248 949.939 897.264 951.217C896.279 952.494 895.787 954.322 895.787 956.701ZM915.51 966V949.494H912.504V946.98H915.51V945.029C915.51 942.99 916.055 941.414 917.145 940.301C918.234 939.188 919.775 938.631 921.768 938.631C922.518 938.631 923.262 938.73 924 938.93L923.824 941.566C923.273 941.461 922.688 941.408 922.066 941.408C921.012 941.408 920.197 941.719 919.623 942.34C919.049 942.949 918.762 943.828 918.762 944.977V946.98H922.822V949.494H918.762V966H915.51ZM947.098 966C946.91 965.625 946.758 964.957 946.641 963.996C945.129 965.566 943.324 966.352 941.227 966.352C939.352 966.352 937.811 965.824 936.604 964.77C935.408 963.703 934.811 962.355 934.811 960.727C934.811 958.746 935.561 957.211 937.061 956.121C938.572 955.02 940.693 954.469 943.424 954.469H946.588V952.975C946.588 951.838 946.248 950.936 945.568 950.268C944.889 949.588 943.887 949.248 942.562 949.248C941.402 949.248 940.43 949.541 939.645 950.127C938.859 950.713 938.467 951.422 938.467 952.254H935.197C935.197 951.305 935.531 950.391 936.199 949.512C936.879 948.621 937.793 947.918 938.941 947.402C940.102 946.887 941.373 946.629 942.756 946.629C944.947 946.629 946.664 947.18 947.906 948.281C949.148 949.371 949.793 950.877 949.84 952.799V961.553C949.84 963.299 950.062 964.688 950.508 965.719V966H947.098ZM941.701 963.521C942.721 963.521 943.688 963.258 944.602 962.73C945.516 962.203 946.178 961.518 946.588 960.674V956.771H944.039C940.055 956.771 938.062 957.938 938.062 960.27C938.062 961.289 938.402 962.086 939.082 962.66C939.762 963.234 940.635 963.521 941.701 963.521ZM958.014 946.98L958.119 949.371C959.572 947.543 961.471 946.629 963.814 946.629C967.834 946.629 969.861 948.896 969.896 953.432V966H966.645V953.414C966.633 952.043 966.316 951.029 965.695 950.373C965.086 949.717 964.131 949.389 962.83 949.389C961.775 949.389 960.85 949.67 960.053 950.232C959.256 950.795 958.635 951.533 958.189 952.447V966H954.938V946.98H958.014ZM991.623 966.352C989.045 966.352 986.947 965.508 985.33 963.82C983.713 962.121 982.904 959.854 982.904 957.018V956.42C982.904 954.533 983.262 952.852 983.977 951.375C984.703 949.887 985.711 948.727 987 947.895C988.301 947.051 989.707 946.629 991.219 946.629C993.691 946.629 995.613 947.443 996.984 949.072C998.355 950.701 999.041 953.033 999.041 956.068V957.422H986.156C986.203 959.297 986.748 960.814 987.791 961.975C988.846 963.123 990.182 963.697 991.799 963.697C992.947 963.697 993.92 963.463 994.717 962.994C995.514 962.525 996.211 961.904 996.809 961.131L998.795 962.678C997.201 965.127 994.811 966.352 991.623 966.352ZM991.219 949.301C989.906 949.301 988.805 949.781 987.914 950.742C987.023 951.691 986.473 953.027 986.262 954.75H995.789V954.504C995.695 952.852 995.25 951.574 994.453 950.672C993.656 949.758 992.578 949.301 991.219 949.301ZM1009.2 953.924L1013.42 946.98H1017.22L1010.99 956.385L1017.41 966H1013.65L1009.25 958.881L1004.86 966H1001.08L1007.5 956.385L1001.27 946.98H1005.04L1009.2 953.924ZM1032.42 966C1032.23 965.625 1032.08 964.957 1031.96 963.996C1030.45 965.566 1028.65 966.352 1026.55 966.352C1024.68 966.352 1023.13 965.824 1021.93 964.77C1020.73 963.703 1020.13 962.355 1020.13 960.727C1020.13 958.746 1020.88 957.211 1022.38 956.121C1023.9 955.02 1026.02 954.469 1028.75 954.469H1031.91V952.975C1031.91 951.838 1031.57 950.936 1030.89 950.268C1030.21 949.588 1029.21 949.248 1027.89 949.248C1026.73 949.248 1025.75 949.541 1024.97 950.127C1024.18 950.713 1023.79 951.422 1023.79 952.254H1020.52C1020.52 951.305 1020.86 950.391 1021.52 949.512C1022.2 948.621 1023.12 947.918 1024.27 947.402C1025.43 946.887 1026.7 946.629 1028.08 946.629C1030.27 946.629 1031.99 947.18 1033.23 948.281C1034.47 949.371 1035.12 950.877 1035.16 952.799V961.553C1035.16 963.299 1035.39 964.688 1035.83 965.719V966H1032.42ZM1027.03 963.521C1028.04 963.521 1029.01 963.258 1029.93 962.73C1030.84 962.203 1031.5 961.518 1031.91 960.674V956.771H1029.36C1025.38 956.771 1023.39 957.938 1023.39 960.27C1023.39 961.289 1023.73 962.086 1024.41 962.66C1025.09 963.234 1025.96 963.521 1027.03 963.521ZM1043.32 946.98L1043.41 949.09C1044.8 947.449 1046.68 946.629 1049.05 946.629C1051.71 946.629 1053.52 947.648 1054.48 949.688C1055.12 948.773 1055.94 948.035 1056.94 947.473C1057.96 946.91 1059.16 946.629 1060.55 946.629C1064.72 946.629 1066.84 948.838 1066.91 953.256V966H1063.66V953.449C1063.66 952.09 1063.35 951.076 1062.73 950.408C1062.11 949.729 1061.06 949.389 1059.6 949.389C1058.39 949.389 1057.39 949.752 1056.59 950.479C1055.79 951.193 1055.33 952.16 1055.2 953.379V966H1051.93V953.537C1051.93 950.771 1050.58 949.389 1047.87 949.389C1045.74 949.389 1044.28 950.297 1043.5 952.113V966H1040.24V946.98H1043.32ZM1087.9 956.701C1087.9 959.596 1087.24 961.928 1085.91 963.697C1084.59 965.467 1082.79 966.352 1080.53 966.352C1078.22 966.352 1076.41 965.619 1075.08 964.154V973.312H1071.83V946.98H1074.8L1074.96 949.09C1076.29 947.449 1078.12 946.629 1080.48 946.629C1082.77 946.629 1084.57 947.49 1085.89 949.213C1087.23 950.936 1087.9 953.332 1087.9 956.402V956.701ZM1084.65 956.332C1084.65 954.188 1084.19 952.494 1083.28 951.252C1082.36 950.01 1081.11 949.389 1079.51 949.389C1077.54 949.389 1076.07 950.262 1075.08 952.008V961.096C1076.06 962.83 1077.54 963.697 1079.55 963.697C1081.11 963.697 1082.34 963.082 1083.26 961.852C1084.18 960.609 1084.65 958.77 1084.65 956.332ZM1095.58 966H1092.33V939H1095.58V966ZM1108.69 966.352C1106.12 966.352 1104.02 965.508 1102.4 963.82C1100.78 962.121 1099.97 959.854 1099.97 957.018V956.42C1099.97 954.533 1100.33 952.852 1101.05 951.375C1101.77 949.887 1102.78 948.727 1104.07 947.895C1105.37 947.051 1106.78 946.629 1108.29 946.629C1110.76 946.629 1112.68 947.443 1114.05 949.072C1115.43 950.701 1116.11 953.033 1116.11 956.068V957.422H1103.23C1103.27 959.297 1103.82 960.814 1104.86 961.975C1105.92 963.123 1107.25 963.697 1108.87 963.697C1110.02 963.697 1110.99 963.463 1111.79 962.994C1112.58 962.525 1113.28 961.904 1113.88 961.131L1115.87 962.678C1114.27 965.127 1111.88 966.352 1108.69 966.352ZM1108.29 949.301C1106.98 949.301 1105.88 949.781 1104.98 950.742C1104.09 951.691 1103.54 953.027 1103.33 954.75H1112.86V954.504C1112.77 952.852 1112.32 951.574 1111.52 950.672C1110.73 949.758 1109.65 949.301 1108.29 949.301ZM1132.35 966H1129.1V946.98H1132.35V966ZM1128.84 941.936C1128.84 941.408 1129 940.963 1129.31 940.6C1129.64 940.236 1130.12 940.055 1130.75 940.055C1131.39 940.055 1131.87 940.236 1132.2 940.6C1132.52 940.963 1132.69 941.408 1132.69 941.936C1132.69 942.463 1132.52 942.902 1132.2 943.254C1131.87 943.605 1131.39 943.781 1130.75 943.781C1130.12 943.781 1129.64 943.605 1129.31 943.254C1129 942.902 1128.84 942.463 1128.84 941.936ZM1140.65 946.98L1140.76 949.371C1142.21 947.543 1144.11 946.629 1146.45 946.629C1150.47 946.629 1152.5 948.896 1152.53 953.432V966H1149.28V953.414C1149.27 952.043 1148.95 951.029 1148.33 950.373C1147.72 949.717 1146.77 949.389 1145.47 949.389C1144.41 949.389 1143.49 949.67 1142.69 950.232C1141.89 950.795 1141.27 951.533 1140.83 952.447V966H1137.57V946.98H1140.65ZM195.545 991.283C196.986 989.514 198.861 988.629 201.17 988.629C205.189 988.629 207.217 990.896 207.252 995.432V1008H204V995.414C203.988 994.043 203.672 993.029 203.051 992.373C202.441 991.717 201.486 991.389 200.186 991.389C199.131 991.389 198.205 991.67 197.408 992.232C196.611 992.795 195.99 993.533 195.545 994.447V1008H192.293V981H195.545V991.283ZM216.533 984.375V988.98H220.084V991.494H216.533V1003.29C216.533 1004.05 216.691 1004.62 217.008 1005.01C217.324 1005.39 217.863 1005.57 218.625 1005.57C219 1005.57 219.516 1005.5 220.172 1005.36V1008C219.316 1008.23 218.484 1008.35 217.676 1008.35C216.223 1008.35 215.127 1007.91 214.389 1007.03C213.65 1006.15 213.281 1004.91 213.281 1003.29V991.494H209.818V988.98H213.281V984.375H216.533ZM228.311 984.375V988.98H231.861V991.494H228.311V1003.29C228.311 1004.05 228.469 1004.62 228.785 1005.01C229.102 1005.39 229.641 1005.57 230.402 1005.57C230.777 1005.57 231.293 1005.5 231.949 1005.36V1008C231.094 1008.23 230.262 1008.35 229.453 1008.35C228 1008.35 226.904 1007.91 226.166 1007.03C225.428 1006.15 225.059 1004.91 225.059 1003.29V991.494H221.596V988.98H225.059V984.375H228.311ZM251.742 998.701C251.742 1001.6 251.08 1003.93 249.756 1005.7C248.432 1007.47 246.639 1008.35 244.377 1008.35C242.068 1008.35 240.252 1007.62 238.928 1006.15V1015.31H235.676V988.98H238.646L238.805 991.09C240.129 989.449 241.969 988.629 244.324 988.629C246.609 988.629 248.414 989.49 249.738 991.213C251.074 992.936 251.742 995.332 251.742 998.402V998.701ZM248.49 998.332C248.49 996.188 248.033 994.494 247.119 993.252C246.205 992.01 244.951 991.389 243.357 991.389C241.389 991.389 239.912 992.262 238.928 994.008V1003.1C239.9 1004.83 241.389 1005.7 243.393 1005.7C244.951 1005.7 246.188 1005.08 247.102 1003.85C248.027 1002.61 248.49 1000.77 248.49 998.332ZM255.785 1006.29C255.785 1005.73 255.949 1005.26 256.277 1004.89C256.617 1004.51 257.121 1004.33 257.789 1004.33C258.457 1004.33 258.961 1004.51 259.301 1004.89C259.652 1005.26 259.828 1005.73 259.828 1006.29C259.828 1006.83 259.652 1007.29 259.301 1007.65C258.961 1008.01 258.457 1008.19 257.789 1008.19C257.121 1008.19 256.617 1008.01 256.277 1007.65C255.949 1007.29 255.785 1006.83 255.785 1006.29ZM255.803 990.773C255.803 990.211 255.967 989.742 256.295 989.367C256.635 988.992 257.139 988.805 257.807 988.805C258.475 988.805 258.979 988.992 259.318 989.367C259.67 989.742 259.846 990.211 259.846 990.773C259.846 991.312 259.67 991.764 259.318 992.127C258.979 992.49 258.475 992.672 257.807 992.672C257.139 992.672 256.635 992.49 256.295 992.127C255.967 991.764 255.803 991.312 255.803 990.773ZM265.26 1010.2H262.465L273.152 982.406H275.93L265.26 1010.2ZM276.158 1010.2H273.363L284.051 982.406H286.828L276.158 1010.2ZM307.184 1003.52L310.84 988.98H314.092L308.555 1008H305.918L301.295 993.586L296.795 1008H294.158L288.639 988.98H291.873L295.617 1003.22L300.047 988.98H302.666L307.184 1003.52ZM334.254 1003.52L337.91 988.98H341.162L335.625 1008H332.988L328.365 993.586L323.865 1008H321.229L315.709 988.98H318.943L322.688 1003.22L327.117 988.98H329.736L334.254 1003.52ZM361.324 1003.52L364.98 988.98H368.232L362.695 1008H360.059L355.436 993.586L350.936 1008H348.299L342.779 988.98H346.014L349.758 1003.22L354.188 988.98H356.807L361.324 1003.52ZM369.445 1006.29C369.445 1005.73 369.609 1005.26 369.938 1004.89C370.277 1004.51 370.781 1004.33 371.449 1004.33C372.117 1004.33 372.621 1004.51 372.961 1004.89C373.312 1005.26 373.488 1005.73 373.488 1006.29C373.488 1006.83 373.312 1007.29 372.961 1007.65C372.621 1008.01 372.117 1008.19 371.449 1008.19C370.781 1008.19 370.277 1008.01 369.938 1007.65C369.609 1007.29 369.445 1006.83 369.445 1006.29ZM395.707 1003.52L399.363 988.98H402.615L397.078 1008H394.441L389.818 993.586L385.318 1008H382.682L377.162 988.98H380.396L384.141 1003.22L388.57 988.98H391.189L395.707 1003.52ZM409.471 1008H406.219V988.98H409.471V1008ZM405.955 983.936C405.955 983.408 406.113 982.963 406.43 982.6C406.758 982.236 407.238 982.055 407.871 982.055C408.504 982.055 408.984 982.236 409.312 982.6C409.641 982.963 409.805 983.408 409.805 983.936C409.805 984.463 409.641 984.902 409.312 985.254C408.984 985.605 408.504 985.781 407.871 985.781C407.238 985.781 406.758 985.605 406.43 985.254C406.113 984.902 405.955 984.463 405.955 983.936ZM425.766 1002.96C425.766 1002.08 425.432 1001.4 424.764 1000.92C424.107 1000.42 422.953 1000 421.301 999.65C419.66 999.299 418.354 998.877 417.381 998.385C416.42 997.893 415.705 997.307 415.236 996.627C414.779 995.947 414.551 995.139 414.551 994.201C414.551 992.643 415.207 991.324 416.52 990.246C417.844 989.168 419.531 988.629 421.582 988.629C423.738 988.629 425.484 989.186 426.82 990.299C428.168 991.412 428.842 992.836 428.842 994.57H425.572C425.572 993.68 425.191 992.912 424.43 992.268C423.68 991.623 422.73 991.301 421.582 991.301C420.398 991.301 419.473 991.559 418.805 992.074C418.137 992.59 417.803 993.264 417.803 994.096C417.803 994.881 418.113 995.473 418.734 995.871C419.355 996.27 420.475 996.65 422.092 997.014C423.721 997.377 425.039 997.811 426.047 998.314C427.055 998.818 427.799 999.428 428.279 1000.14C428.771 1000.85 429.018 1001.71 429.018 1002.73C429.018 1004.43 428.338 1005.79 426.979 1006.82C425.619 1007.84 423.855 1008.35 421.688 1008.35C420.164 1008.35 418.816 1008.08 417.645 1007.54C416.473 1007 415.553 1006.25 414.885 1005.29C414.229 1004.32 413.9 1003.27 413.9 1002.15H417.152C417.211 1003.24 417.645 1004.1 418.453 1004.75C419.273 1005.38 420.352 1005.7 421.688 1005.7C422.918 1005.7 423.902 1005.45 424.641 1004.96C425.391 1004.46 425.766 1003.79 425.766 1002.96ZM432.463 998.332C432.463 995.414 433.154 993.07 434.537 991.301C435.92 989.52 437.73 988.629 439.969 988.629C442.195 988.629 443.959 989.391 445.26 990.914V981H448.512V1008H445.523L445.365 1005.96C444.064 1007.55 442.254 1008.35 439.934 1008.35C437.73 1008.35 435.932 1007.45 434.537 1005.64C433.154 1003.84 432.463 1001.48 432.463 998.578V998.332ZM435.715 998.701C435.715 1000.86 436.16 1002.54 437.051 1003.76C437.941 1004.98 439.172 1005.59 440.742 1005.59C442.805 1005.59 444.311 1004.67 445.26 1002.81V994.078C444.287 992.285 442.793 991.389 440.777 991.389C439.184 991.389 437.941 992.004 437.051 993.234C436.16 994.465 435.715 996.287 435.715 998.701ZM452.713 998.314C452.713 996.451 453.076 994.775 453.803 993.287C454.541 991.799 455.561 990.65 456.861 989.842C458.174 989.033 459.668 988.629 461.344 988.629C463.934 988.629 466.025 989.525 467.619 991.318C469.225 993.111 470.027 995.496 470.027 998.473V998.701C470.027 1000.55 469.67 1002.22 468.955 1003.69C468.252 1005.16 467.238 1006.3 465.914 1007.12C464.602 1007.94 463.09 1008.35 461.379 1008.35C458.801 1008.35 456.709 1007.46 455.104 1005.66C453.51 1003.87 452.713 1001.5 452.713 998.543V998.314ZM455.982 998.701C455.982 1000.81 456.469 1002.5 457.441 1003.78C458.426 1005.06 459.738 1005.7 461.379 1005.7C463.031 1005.7 464.344 1005.05 465.316 1003.76C466.289 1002.46 466.775 1000.65 466.775 998.314C466.775 996.229 466.277 994.541 465.281 993.252C464.297 991.951 462.984 991.301 461.344 991.301C459.738 991.301 458.443 991.939 457.459 993.217C456.475 994.494 455.982 996.322 455.982 998.701ZM477.164 988.98L477.252 991.09C478.646 989.449 480.527 988.629 482.895 988.629C485.555 988.629 487.365 989.648 488.326 991.688C488.959 990.773 489.779 990.035 490.787 989.473C491.807 988.91 493.008 988.629 494.391 988.629C498.562 988.629 500.684 990.838 500.754 995.256V1008H497.502V995.449C497.502 994.09 497.191 993.076 496.57 992.408C495.949 991.729 494.906 991.389 493.441 991.389C492.234 991.389 491.232 991.752 490.436 992.479C489.639 993.193 489.176 994.16 489.047 995.379V1008H485.777V995.537C485.777 992.771 484.424 991.389 481.717 991.389C479.584 991.389 478.125 992.297 477.34 994.113V1008H474.088V988.98H477.164ZM505.746 1006.29C505.746 1005.73 505.91 1005.26 506.238 1004.89C506.578 1004.51 507.082 1004.33 507.75 1004.33C508.418 1004.33 508.922 1004.51 509.262 1004.89C509.613 1005.26 509.789 1005.73 509.789 1006.29C509.789 1006.83 509.613 1007.29 509.262 1007.65C508.922 1008.01 508.418 1008.19 507.75 1008.19C507.082 1008.19 506.578 1008.01 506.238 1007.65C505.91 1007.29 505.746 1006.83 505.746 1006.29ZM532.008 1003.52L535.664 988.98H538.916L533.379 1008H530.742L526.119 993.586L521.619 1008H518.982L513.463 988.98H516.697L520.441 1003.22L524.871 988.98H527.49L532.008 1003.52ZM550.131 1008.35C547.553 1008.35 545.455 1007.51 543.838 1005.82C542.221 1004.12 541.412 1001.85 541.412 999.018V998.42C541.412 996.533 541.77 994.852 542.484 993.375C543.211 991.887 544.219 990.727 545.508 989.895C546.809 989.051 548.215 988.629 549.727 988.629C552.199 988.629 554.121 989.443 555.492 991.072C556.863 992.701 557.549 995.033 557.549 998.068V999.422H544.664C544.711 1001.3 545.256 1002.81 546.299 1003.97C547.354 1005.12 548.689 1005.7 550.307 1005.7C551.455 1005.7 552.428 1005.46 553.225 1004.99C554.021 1004.53 554.719 1003.9 555.316 1003.13L557.303 1004.68C555.709 1007.13 553.318 1008.35 550.131 1008.35ZM549.727 991.301C548.414 991.301 547.312 991.781 546.422 992.742C545.531 993.691 544.98 995.027 544.77 996.75H554.297V996.504C554.203 994.852 553.758 993.574 552.961 992.672C552.164 991.758 551.086 991.301 549.727 991.301ZM564.861 1008H561.609V988.98H564.861V1008ZM561.346 983.936C561.346 983.408 561.504 982.963 561.82 982.6C562.148 982.236 562.629 982.055 563.262 982.055C563.895 982.055 564.375 982.236 564.703 982.6C565.031 982.963 565.195 983.408 565.195 983.936C565.195 984.463 565.031 984.902 564.703 985.254C564.375 985.605 563.895 985.781 563.262 985.781C562.629 985.781 562.148 985.605 561.82 985.254C561.504 984.902 561.346 984.463 561.346 983.936ZM573.141 1005.35H584.268V1008H569.168V1005.61L579.662 991.67H569.326V988.98H583.74V991.283L573.141 1005.35ZM591 988.98L591.088 991.09C592.482 989.449 594.363 988.629 596.73 988.629C599.391 988.629 601.201 989.648 602.162 991.688C602.795 990.773 603.615 990.035 604.623 989.473C605.643 988.91 606.844 988.629 608.227 988.629C612.398 988.629 614.52 990.838 614.59 995.256V1008H611.338V995.449C611.338 994.09 611.027 993.076 610.406 992.408C609.785 991.729 608.742 991.389 607.277 991.389C606.07 991.389 605.068 991.752 604.271 992.479C603.475 993.193 603.012 994.16 602.883 995.379V1008H599.613V995.537C599.613 992.771 598.26 991.389 595.553 991.389C593.42 991.389 591.961 992.297 591.176 994.113V1008H587.924V988.98H591ZM631.254 1008C631.066 1007.62 630.914 1006.96 630.797 1006C629.285 1007.57 627.48 1008.35 625.383 1008.35C623.508 1008.35 621.967 1007.82 620.76 1006.77C619.564 1005.7 618.967 1004.36 618.967 1002.73C618.967 1000.75 619.717 999.211 621.217 998.121C622.729 997.02 624.85 996.469 627.58 996.469H630.744V994.975C630.744 993.838 630.404 992.936 629.725 992.268C629.045 991.588 628.043 991.248 626.719 991.248C625.559 991.248 624.586 991.541 623.801 992.127C623.016 992.713 622.623 993.422 622.623 994.254H619.354C619.354 993.305 619.688 992.391 620.355 991.512C621.035 990.621 621.949 989.918 623.098 989.402C624.258 988.887 625.529 988.629 626.912 988.629C629.104 988.629 630.82 989.18 632.062 990.281C633.305 991.371 633.949 992.877 633.996 994.799V1003.55C633.996 1005.3 634.219 1006.69 634.664 1007.72V1008H631.254ZM625.857 1005.52C626.877 1005.52 627.844 1005.26 628.758 1004.73C629.672 1004.2 630.334 1003.52 630.744 1002.67V998.771H628.195C624.211 998.771 622.219 999.938 622.219 1002.27C622.219 1003.29 622.559 1004.09 623.238 1004.66C623.918 1005.23 624.791 1005.52 625.857 1005.52ZM642.17 988.98L642.275 991.371C643.729 989.543 645.627 988.629 647.971 988.629C651.99 988.629 654.018 990.896 654.053 995.432V1008H650.801V995.414C650.789 994.043 650.473 993.029 649.852 992.373C649.242 991.717 648.287 991.389 646.986 991.389C645.932 991.389 645.006 991.67 644.209 992.232C643.412 992.795 642.791 993.533 642.346 994.447V1008H639.094V988.98H642.17ZM662.033 988.98L662.139 991.371C663.592 989.543 665.49 988.629 667.834 988.629C671.854 988.629 673.881 990.896 673.916 995.432V1008H670.664V995.414C670.652 994.043 670.336 993.029 669.715 992.373C669.105 991.717 668.15 991.389 666.85 991.389C665.795 991.389 664.869 991.67 664.072 992.232C663.275 992.795 662.654 993.533 662.209 994.447V1008H658.957V988.98H662.033ZM678.891 1006.29C678.891 1005.73 679.055 1005.26 679.383 1004.89C679.723 1004.51 680.227 1004.33 680.895 1004.33C681.562 1004.33 682.066 1004.51 682.406 1004.89C682.758 1005.26 682.934 1005.73 682.934 1006.29C682.934 1006.83 682.758 1007.29 682.406 1007.65C682.066 1008.01 681.562 1008.19 680.895 1008.19C680.227 1008.19 679.723 1008.01 679.383 1007.65C679.055 1007.29 678.891 1006.83 678.891 1006.29ZM700.055 1008C699.867 1007.62 699.715 1006.96 699.598 1006C698.086 1007.57 696.281 1008.35 694.184 1008.35C692.309 1008.35 690.768 1007.82 689.561 1006.77C688.365 1005.7 687.768 1004.36 687.768 1002.73C687.768 1000.75 688.518 999.211 690.018 998.121C691.529 997.02 693.65 996.469 696.381 996.469H699.545V994.975C699.545 993.838 699.205 992.936 698.525 992.268C697.846 991.588 696.844 991.248 695.52 991.248C694.359 991.248 693.387 991.541 692.602 992.127C691.816 992.713 691.424 993.422 691.424 994.254H688.154C688.154 993.305 688.488 992.391 689.156 991.512C689.836 990.621 690.75 989.918 691.898 989.402C693.059 988.887 694.33 988.629 695.713 988.629C697.904 988.629 699.621 989.18 700.863 990.281C702.105 991.371 702.75 992.877 702.797 994.799V1003.55C702.797 1005.3 703.02 1006.69 703.465 1007.72V1008H700.055ZM694.658 1005.52C695.678 1005.52 696.645 1005.26 697.559 1004.73C698.473 1004.2 699.135 1003.52 699.545 1002.67V998.771H696.996C693.012 998.771 691.02 999.938 691.02 1002.27C691.02 1003.29 691.359 1004.09 692.039 1004.66C692.719 1005.23 693.592 1005.52 694.658 1005.52ZM715.523 1005.7C716.684 1005.7 717.697 1005.35 718.564 1004.64C719.432 1003.94 719.912 1003.06 720.006 1002.01H723.082C723.023 1003.1 722.648 1004.13 721.957 1005.12C721.266 1006.1 720.34 1006.89 719.18 1007.47C718.031 1008.06 716.812 1008.35 715.523 1008.35C712.934 1008.35 710.871 1007.49 709.336 1005.77C707.812 1004.03 707.051 1001.67 707.051 998.666V998.121C707.051 996.27 707.391 994.623 708.07 993.182C708.75 991.74 709.723 990.621 710.988 989.824C712.266 989.027 713.771 988.629 715.506 988.629C717.639 988.629 719.408 989.268 720.814 990.545C722.232 991.822 722.988 993.48 723.082 995.52H720.006C719.912 994.289 719.443 993.281 718.6 992.496C717.768 991.699 716.736 991.301 715.506 991.301C713.854 991.301 712.57 991.898 711.656 993.094C710.754 994.277 710.303 995.994 710.303 998.244V998.859C710.303 1001.05 710.754 1002.74 711.656 1003.92C712.559 1005.11 713.848 1005.7 715.523 1005.7ZM726.809 1006.29C726.809 1005.73 726.973 1005.26 727.301 1004.89C727.641 1004.51 728.145 1004.33 728.812 1004.33C729.48 1004.33 729.984 1004.51 730.324 1004.89C730.676 1005.26 730.852 1005.73 730.852 1006.29C730.852 1006.83 730.676 1007.29 730.324 1007.65C729.984 1008.01 729.48 1008.19 728.812 1008.19C728.145 1008.19 727.641 1008.01 727.301 1007.65C726.973 1007.29 726.809 1006.83 726.809 1006.29ZM739.764 1008H736.512V988.98H739.764V1008ZM736.248 983.936C736.248 983.408 736.406 982.963 736.723 982.6C737.051 982.236 737.531 982.055 738.164 982.055C738.797 982.055 739.277 982.236 739.605 982.6C739.934 982.963 740.098 983.408 740.098 983.936C740.098 984.463 739.934 984.902 739.605 985.254C739.277 985.605 738.797 985.781 738.164 985.781C737.531 985.781 737.051 985.605 736.723 985.254C736.406 984.902 736.248 984.463 736.248 983.936ZM748.518 1008H745.266V981H748.518V1008ZM754.389 1010.2H751.594L762.281 982.406H765.059L754.389 1010.2ZM788.314 994.342C788.314 996.193 787.764 997.758 786.662 999.035C785.572 1000.3 784.225 1000.93 782.619 1000.93C781.775 1000.93 780.979 1000.78 780.229 1000.48C779.479 1000.16 778.605 999.568 777.609 998.701C776.625 997.834 775.916 997.295 775.482 997.084C775.049 996.873 774.586 996.768 774.094 996.768C773.18 996.768 772.477 997.084 771.984 997.717C771.492 998.338 771.246 999.199 771.246 1000.3L768.416 1000.34C768.416 998.461 768.955 996.92 770.033 995.713C771.111 994.506 772.465 993.902 774.094 993.902C774.984 993.902 775.84 994.09 776.66 994.465C777.48 994.84 778.406 995.502 779.438 996.451C780.469 997.389 781.359 997.916 782.109 998.033L782.619 998.068C783.51 998.068 784.23 997.729 784.781 997.049C785.344 996.369 785.625 995.473 785.625 994.359L788.314 994.342ZM796.33 991.283C797.771 989.514 799.646 988.629 801.955 988.629C805.975 988.629 808.002 990.896 808.037 995.432V1008H804.785V995.414C804.773 994.043 804.457 993.029 803.836 992.373C803.227 991.717 802.271 991.389 800.971 991.389C799.916 991.389 798.99 991.67 798.193 992.232C797.396 992.795 796.775 993.533 796.33 994.447V1008H793.078V981H796.33V991.283ZM824.648 1008C824.461 1007.62 824.309 1006.96 824.191 1006C822.68 1007.57 820.875 1008.35 818.777 1008.35C816.902 1008.35 815.361 1007.82 814.154 1006.77C812.959 1005.7 812.361 1004.36 812.361 1002.73C812.361 1000.75 813.111 999.211 814.611 998.121C816.123 997.02 818.244 996.469 820.975 996.469H824.139V994.975C824.139 993.838 823.799 992.936 823.119 992.268C822.439 991.588 821.438 991.248 820.113 991.248C818.953 991.248 817.98 991.541 817.195 992.127C816.41 992.713 816.018 993.422 816.018 994.254H812.748C812.748 993.305 813.082 992.391 813.75 991.512C814.43 990.621 815.344 989.918 816.492 989.402C817.652 988.887 818.924 988.629 820.307 988.629C822.498 988.629 824.215 989.18 825.457 990.281C826.699 991.371 827.344 992.877 827.391 994.799V1003.55C827.391 1005.3 827.613 1006.69 828.059 1007.72V1008H824.648ZM819.252 1005.52C820.271 1005.52 821.238 1005.26 822.152 1004.73C823.066 1004.2 823.729 1003.52 824.139 1002.67V998.771H821.59C817.605 998.771 815.613 999.938 815.613 1002.27C815.613 1003.29 815.953 1004.09 816.633 1004.66C817.312 1005.23 818.186 1005.52 819.252 1005.52ZM841.682 991.898C841.189 991.816 840.656 991.775 840.082 991.775C837.949 991.775 836.502 992.684 835.74 994.5V1008H832.488V988.98H835.652L835.705 991.178C836.771 989.479 838.283 988.629 840.24 988.629C840.873 988.629 841.354 988.711 841.682 988.875V991.898ZM852.229 1008.35C849.65 1008.35 847.553 1007.51 845.936 1005.82C844.318 1004.12 843.51 1001.85 843.51 999.018V998.42C843.51 996.533 843.867 994.852 844.582 993.375C845.309 991.887 846.316 990.727 847.605 989.895C848.906 989.051 850.312 988.629 851.824 988.629C854.297 988.629 856.219 989.443 857.59 991.072C858.961 992.701 859.646 995.033 859.646 998.068V999.422H846.762C846.809 1001.3 847.354 1002.81 848.396 1003.97C849.451 1005.12 850.787 1005.7 852.404 1005.7C853.553 1005.7 854.525 1005.46 855.322 1004.99C856.119 1004.53 856.816 1003.9 857.414 1003.13L859.4 1004.68C857.807 1007.13 855.416 1008.35 852.229 1008.35ZM851.824 991.301C850.512 991.301 849.41 991.781 848.52 992.742C847.629 993.691 847.078 995.027 846.867 996.75H856.395V996.504C856.301 994.852 855.855 993.574 855.059 992.672C854.262 991.758 853.184 991.301 851.824 991.301ZM866.959 1008H863.707V981H866.959V1008ZM872.83 1010.2H870.035L880.723 982.406H883.5L872.83 1010.2ZM903.082 998.701C903.082 1001.6 902.42 1003.93 901.096 1005.7C899.771 1007.47 897.979 1008.35 895.717 1008.35C893.408 1008.35 891.592 1007.62 890.268 1006.15V1015.31H887.016V988.98H889.986L890.145 991.09C891.469 989.449 893.309 988.629 895.664 988.629C897.949 988.629 899.754 989.49 901.078 991.213C902.414 992.936 903.082 995.332 903.082 998.402V998.701ZM899.83 998.332C899.83 996.188 899.373 994.494 898.459 993.252C897.545 992.01 896.291 991.389 894.697 991.389C892.729 991.389 891.252 992.262 890.268 994.008V1003.1C891.24 1004.83 892.729 1005.7 894.732 1005.7C896.291 1005.7 897.527 1005.08 898.441 1003.85C899.367 1002.61 899.83 1000.77 899.83 998.332ZM918.973 1008C918.785 1007.62 918.633 1006.96 918.516 1006C917.004 1007.57 915.199 1008.35 913.102 1008.35C911.227 1008.35 909.686 1007.82 908.479 1006.77C907.283 1005.7 906.686 1004.36 906.686 1002.73C906.686 1000.75 907.436 999.211 908.936 998.121C910.447 997.02 912.568 996.469 915.299 996.469H918.463V994.975C918.463 993.838 918.123 992.936 917.443 992.268C916.764 991.588 915.762 991.248 914.438 991.248C913.277 991.248 912.305 991.541 911.52 992.127C910.734 992.713 910.342 993.422 910.342 994.254H907.072C907.072 993.305 907.406 992.391 908.074 991.512C908.754 990.621 909.668 989.918 910.816 989.402C911.977 988.887 913.248 988.629 914.631 988.629C916.822 988.629 918.539 989.18 919.781 990.281C921.023 991.371 921.668 992.877 921.715 994.799V1003.55C921.715 1005.3 921.938 1006.69 922.383 1007.72V1008H918.973ZM913.576 1005.52C914.596 1005.52 915.562 1005.26 916.477 1004.73C917.391 1004.2 918.053 1003.52 918.463 1002.67V998.771H915.914C911.93 998.771 909.938 999.938 909.938 1002.27C909.938 1003.29 910.277 1004.09 910.957 1004.66C911.637 1005.23 912.51 1005.52 913.576 1005.52ZM942.879 998.701C942.879 1001.6 942.217 1003.93 940.893 1005.7C939.568 1007.47 937.775 1008.35 935.514 1008.35C933.205 1008.35 931.389 1007.62 930.064 1006.15V1015.31H926.812V988.98H929.783L929.941 991.09C931.266 989.449 933.105 988.629 935.461 988.629C937.746 988.629 939.551 989.49 940.875 991.213C942.211 992.936 942.879 995.332 942.879 998.402V998.701ZM939.627 998.332C939.627 996.188 939.17 994.494 938.256 993.252C937.342 992.01 936.088 991.389 934.494 991.389C932.525 991.389 931.049 992.262 930.064 994.008V1003.1C931.037 1004.83 932.525 1005.7 934.529 1005.7C936.088 1005.7 937.324 1005.08 938.238 1003.85C939.164 1002.61 939.627 1000.77 939.627 998.332ZM954.92 1008.35C952.342 1008.35 950.244 1007.51 948.627 1005.82C947.01 1004.12 946.201 1001.85 946.201 999.018V998.42C946.201 996.533 946.559 994.852 947.273 993.375C948 991.887 949.008 990.727 950.297 989.895C951.598 989.051 953.004 988.629 954.516 988.629C956.988 988.629 958.91 989.443 960.281 991.072C961.652 992.701 962.338 995.033 962.338 998.068V999.422H949.453C949.5 1001.3 950.045 1002.81 951.088 1003.97C952.143 1005.12 953.479 1005.7 955.096 1005.7C956.244 1005.7 957.217 1005.46 958.014 1004.99C958.811 1004.53 959.508 1003.9 960.105 1003.13L962.092 1004.68C960.498 1007.13 958.107 1008.35 954.92 1008.35ZM954.516 991.301C953.203 991.301 952.102 991.781 951.211 992.742C950.32 993.691 949.77 995.027 949.559 996.75H959.086V996.504C958.992 994.852 958.547 993.574 957.75 992.672C956.953 991.758 955.875 991.301 954.516 991.301ZM975.311 991.898C974.818 991.816 974.285 991.775 973.711 991.775C971.578 991.775 970.131 992.684 969.369 994.5V1008H966.117V988.98H969.281L969.334 991.178C970.4 989.479 971.912 988.629 973.869 988.629C974.502 988.629 974.982 988.711 975.311 988.875V991.898ZM989.391 1002.96C989.391 1002.08 989.057 1001.4 988.389 1000.92C987.732 1000.42 986.578 1000 984.926 999.65C983.285 999.299 981.979 998.877 981.006 998.385C980.045 997.893 979.33 997.307 978.861 996.627C978.404 995.947 978.176 995.139 978.176 994.201C978.176 992.643 978.832 991.324 980.145 990.246C981.469 989.168 983.156 988.629 985.207 988.629C987.363 988.629 989.109 989.186 990.445 990.299C991.793 991.412 992.467 992.836 992.467 994.57H989.197C989.197 993.68 988.816 992.912 988.055 992.268C987.305 991.623 986.355 991.301 985.207 991.301C984.023 991.301 983.098 991.559 982.43 992.074C981.762 992.59 981.428 993.264 981.428 994.096C981.428 994.881 981.738 995.473 982.359 995.871C982.98 996.27 984.1 996.65 985.717 997.014C987.346 997.377 988.664 997.811 989.672 998.314C990.68 998.818 991.424 999.428 991.904 1000.14C992.396 1000.85 992.643 1001.71 992.643 1002.73C992.643 1004.43 991.963 1005.79 990.604 1006.82C989.244 1007.84 987.48 1008.35 985.312 1008.35C983.789 1008.35 982.441 1008.08 981.27 1007.54C980.098 1007 979.178 1006.25 978.51 1005.29C977.854 1004.32 977.525 1003.27 977.525 1002.15H980.777C980.836 1003.24 981.27 1004.1 982.078 1004.75C982.898 1005.38 983.977 1005.7 985.312 1005.7C986.543 1005.7 987.527 1005.45 988.266 1004.96C989.016 1004.46 989.391 1003.79 989.391 1002.96ZM997.529 1010.2H994.734L1005.42 982.406H1008.2L997.529 1010.2ZM1019.77 996.592C1016.87 995.76 1014.76 994.74 1013.44 993.533C1012.12 992.314 1011.47 990.814 1011.47 989.033C1011.47 987.018 1012.27 985.354 1013.88 984.041C1015.49 982.717 1017.59 982.055 1020.17 982.055C1021.93 982.055 1023.49 982.395 1024.86 983.074C1026.25 983.754 1027.31 984.691 1028.06 985.887C1028.82 987.082 1029.21 988.389 1029.21 989.807H1025.81C1025.81 988.26 1025.32 987.047 1024.34 986.168C1023.35 985.277 1021.96 984.832 1020.17 984.832C1018.51 984.832 1017.21 985.201 1016.27 985.939C1015.34 986.666 1014.88 987.68 1014.88 988.98C1014.88 990.023 1015.32 990.908 1016.2 991.635C1017.09 992.35 1018.59 993.006 1020.71 993.604C1022.85 994.201 1024.51 994.863 1025.71 995.59C1026.91 996.305 1027.8 997.143 1028.38 998.104C1028.96 999.064 1029.26 1000.2 1029.26 1001.5C1029.26 1003.57 1028.45 1005.23 1026.83 1006.49C1025.21 1007.73 1023.05 1008.35 1020.35 1008.35C1018.59 1008.35 1016.95 1008.02 1015.42 1007.35C1013.9 1006.67 1012.72 1005.74 1011.89 1004.57C1011.07 1003.4 1010.66 1002.07 1010.66 1000.58H1014.05C1014.05 1002.13 1014.62 1003.35 1015.76 1004.26C1016.91 1005.15 1018.44 1005.59 1020.35 1005.59C1022.13 1005.59 1023.49 1005.23 1024.44 1004.5C1025.39 1003.78 1025.87 1002.79 1025.87 1001.53C1025.87 1000.28 1025.43 999.311 1024.55 998.631C1023.67 997.939 1022.07 997.26 1019.77 996.592ZM1037.5 984.375V988.98H1041.05V991.494H1037.5V1003.29C1037.5 1004.05 1037.66 1004.62 1037.98 1005.01C1038.29 1005.39 1038.83 1005.57 1039.59 1005.57C1039.97 1005.57 1040.48 1005.5 1041.14 1005.36V1008C1040.29 1008.23 1039.45 1008.35 1038.64 1008.35C1037.19 1008.35 1036.1 1007.91 1035.36 1007.03C1034.62 1006.15 1034.25 1004.91 1034.25 1003.29V991.494H1030.79V988.98H1034.25V984.375H1037.5ZM1056.61 1008C1056.42 1007.62 1056.27 1006.96 1056.15 1006C1054.64 1007.57 1052.84 1008.35 1050.74 1008.35C1048.86 1008.35 1047.32 1007.82 1046.12 1006.77C1044.92 1005.7 1044.32 1004.36 1044.32 1002.73C1044.32 1000.75 1045.07 999.211 1046.57 998.121C1048.08 997.02 1050.21 996.469 1052.94 996.469H1056.1V994.975C1056.1 993.838 1055.76 992.936 1055.08 992.268C1054.4 991.588 1053.4 991.248 1052.07 991.248C1050.91 991.248 1049.94 991.541 1049.16 992.127C1048.37 992.713 1047.98 993.422 1047.98 994.254H1044.71C1044.71 993.305 1045.04 992.391 1045.71 991.512C1046.39 990.621 1047.3 989.918 1048.45 989.402C1049.61 988.887 1050.88 988.629 1052.27 988.629C1054.46 988.629 1056.18 989.18 1057.42 990.281C1058.66 991.371 1059.3 992.877 1059.35 994.799V1003.55C1059.35 1005.3 1059.57 1006.69 1060.02 1007.72V1008H1056.61ZM1051.21 1005.52C1052.23 1005.52 1053.2 1005.26 1054.11 1004.73C1055.03 1004.2 1055.69 1003.52 1056.1 1002.67V998.771H1053.55C1049.57 998.771 1047.57 999.938 1047.57 1002.27C1047.57 1003.29 1047.91 1004.09 1048.59 1004.66C1049.27 1005.23 1050.15 1005.52 1051.21 1005.52ZM1068.86 984.375V988.98H1072.41V991.494H1068.86V1003.29C1068.86 1004.05 1069.02 1004.62 1069.34 1005.01C1069.65 1005.39 1070.19 1005.57 1070.95 1005.57C1071.33 1005.57 1071.84 1005.5 1072.5 1005.36V1008C1071.64 1008.23 1070.81 1008.35 1070 1008.35C1068.55 1008.35 1067.46 1007.91 1066.72 1007.03C1065.98 1006.15 1065.61 1004.91 1065.61 1003.29V991.494H1062.15V988.98H1065.61V984.375H1068.86ZM1084.12 1008.35C1081.54 1008.35 1079.44 1007.51 1077.83 1005.82C1076.21 1004.12 1075.4 1001.85 1075.4 999.018V998.42C1075.4 996.533 1075.76 994.852 1076.47 993.375C1077.2 991.887 1078.21 990.727 1079.5 989.895C1080.8 989.051 1082.2 988.629 1083.71 988.629C1086.19 988.629 1088.11 989.443 1089.48 991.072C1090.85 992.701 1091.54 995.033 1091.54 998.068V999.422H1078.65C1078.7 1001.3 1079.24 1002.81 1080.29 1003.97C1081.34 1005.12 1082.68 1005.7 1084.29 1005.7C1085.44 1005.7 1086.42 1005.46 1087.21 1004.99C1088.01 1004.53 1088.71 1003.9 1089.3 1003.13L1091.29 1004.68C1089.7 1007.13 1087.31 1008.35 1084.12 1008.35ZM1083.71 991.301C1082.4 991.301 1081.3 991.781 1080.41 992.742C1079.52 993.691 1078.97 995.027 1078.76 996.75H1088.29V996.504C1088.19 994.852 1087.75 993.574 1086.95 992.672C1086.15 991.758 1085.07 991.301 1083.71 991.301ZM1102.95 1005.7C1104.11 1005.7 1105.12 1005.35 1105.99 1004.64C1106.85 1003.94 1107.33 1003.06 1107.43 1002.01H1110.5C1110.45 1003.1 1110.07 1004.13 1109.38 1005.12C1108.69 1006.1 1107.76 1006.89 1106.6 1007.47C1105.45 1008.06 1104.23 1008.35 1102.95 1008.35C1100.36 1008.35 1098.29 1007.49 1096.76 1005.77C1095.23 1004.03 1094.47 1001.67 1094.47 998.666V998.121C1094.47 996.27 1094.81 994.623 1095.49 993.182C1096.17 991.74 1097.14 990.621 1098.41 989.824C1099.69 989.027 1101.19 988.629 1102.93 988.629C1105.06 988.629 1106.83 989.268 1108.24 990.545C1109.65 991.822 1110.41 993.48 1110.5 995.52H1107.43C1107.33 994.289 1106.87 993.281 1106.02 992.496C1105.19 991.699 1104.16 991.301 1102.93 991.301C1101.28 991.301 1099.99 991.898 1099.08 993.094C1098.18 994.277 1097.72 995.994 1097.72 998.244V998.859C1097.72 1001.05 1098.18 1002.74 1099.08 1003.92C1099.98 1005.11 1101.27 1005.7 1102.95 1005.7ZM1117.41 991.283C1118.85 989.514 1120.73 988.629 1123.04 988.629C1127.06 988.629 1129.08 990.896 1129.12 995.432V1008H1125.87V995.414C1125.86 994.043 1125.54 993.029 1124.92 992.373C1124.31 991.717 1123.35 991.389 1122.05 991.389C1121 991.389 1120.07 991.67 1119.28 992.232C1118.48 992.795 1117.86 993.533 1117.41 994.447V1008H1114.16V981H1117.41V991.283ZM1145.73 1008C1145.54 1007.62 1145.39 1006.96 1145.27 1006C1143.76 1007.57 1141.96 1008.35 1139.86 1008.35C1137.98 1008.35 1136.44 1007.82 1135.24 1006.77C1134.04 1005.7 1133.44 1004.36 1133.44 1002.73C1133.44 1000.75 1134.19 999.211 1135.69 998.121C1137.21 997.02 1139.33 996.469 1142.06 996.469H1145.22V994.975C1145.22 993.838 1144.88 992.936 1144.2 992.268C1143.52 991.588 1142.52 991.248 1141.2 991.248C1140.04 991.248 1139.06 991.541 1138.28 992.127C1137.49 992.713 1137.1 993.422 1137.1 994.254H1133.83C1133.83 993.305 1134.16 992.391 1134.83 991.512C1135.51 990.621 1136.43 989.918 1137.57 989.402C1138.73 988.887 1140.01 988.629 1141.39 988.629C1143.58 988.629 1145.3 989.18 1146.54 990.281C1147.78 991.371 1148.43 992.877 1148.47 994.799V1003.55C1148.47 1005.3 1148.7 1006.69 1149.14 1007.72V1008H1145.73ZM1140.33 1005.52C1141.35 1005.52 1142.32 1005.26 1143.23 1004.73C1144.15 1004.2 1144.81 1003.52 1145.22 1002.67V998.771H1142.67C1138.69 998.771 1136.7 999.938 1136.7 1002.27C1136.7 1003.29 1137.04 1004.09 1137.71 1004.66C1138.39 1005.23 1139.27 1005.52 1140.33 1005.52ZM1162.76 991.898C1162.27 991.816 1161.74 991.775 1161.16 991.775C1159.03 991.775 1157.58 992.684 1156.82 994.5V1008H1153.57V988.98H1156.73L1156.79 991.178C1157.85 989.479 1159.37 988.629 1161.32 988.629C1161.96 988.629 1162.44 988.711 1162.76 988.875V991.898ZM1171.06 984.375V988.98H1174.61V991.494H1171.06V1003.29C1171.06 1004.05 1171.22 1004.62 1171.54 1005.01C1171.85 1005.39 1172.39 1005.57 1173.15 1005.57C1173.53 1005.57 1174.04 1005.5 1174.7 1005.36V1008C1173.84 1008.23 1173.01 1008.35 1172.2 1008.35C1170.75 1008.35 1169.65 1007.91 1168.92 1007.03C1168.18 1006.15 1167.81 1004.91 1167.81 1003.29V991.494H1164.35V988.98H1167.81V984.375H1171.06ZM1189.5 1002.96C1189.5 1002.08 1189.17 1001.4 1188.5 1000.92C1187.84 1000.42 1186.69 1000 1185.04 999.65C1183.39 999.299 1182.09 998.877 1181.12 998.385C1180.15 997.893 1179.44 997.307 1178.97 996.627C1178.51 995.947 1178.29 995.139 1178.29 994.201C1178.29 992.643 1178.94 991.324 1180.25 990.246C1181.58 989.168 1183.27 988.629 1185.32 988.629C1187.47 988.629 1189.22 989.186 1190.55 990.299C1191.9 991.412 1192.58 992.836 1192.58 994.57H1189.31C1189.31 993.68 1188.93 992.912 1188.16 992.268C1187.41 991.623 1186.46 991.301 1185.32 991.301C1184.13 991.301 1183.21 991.559 1182.54 992.074C1181.87 992.59 1181.54 993.264 1181.54 994.096C1181.54 994.881 1181.85 995.473 1182.47 995.871C1183.09 996.27 1184.21 996.65 1185.83 997.014C1187.46 997.377 1188.77 997.811 1189.78 998.314C1190.79 998.818 1191.53 999.428 1192.01 1000.14C1192.51 1000.85 1192.75 1001.71 1192.75 1002.73C1192.75 1004.43 1192.07 1005.79 1190.71 1006.82C1189.35 1007.84 1187.59 1008.35 1185.42 1008.35C1183.9 1008.35 1182.55 1008.08 1181.38 1007.54C1180.21 1007 1179.29 1006.25 1178.62 1005.29C1177.96 1004.32 1177.63 1003.27 1177.63 1002.15H1180.89C1180.95 1003.24 1181.38 1004.1 1182.19 1004.75C1183.01 1005.38 1184.09 1005.7 1185.42 1005.7C1186.65 1005.7 1187.64 1005.45 1188.38 1004.96C1189.12 1004.46 1189.5 1003.79 1189.5 1002.96ZM1197.06 1006.29C1197.06 1005.73 1197.22 1005.26 1197.55 1004.89C1197.89 1004.51 1198.39 1004.33 1199.06 1004.33C1199.73 1004.33 1200.23 1004.51 1200.57 1004.89C1200.93 1005.26 1201.1 1005.73 1201.1 1006.29C1201.1 1006.83 1200.93 1007.29 1200.57 1007.65C1200.23 1008.01 1199.73 1008.19 1199.06 1008.19C1198.39 1008.19 1197.89 1008.01 1197.55 1007.65C1197.22 1007.29 1197.06 1006.83 1197.06 1006.29ZM1226.66 1008H1223.27V996.17H1210.37V1008H1206.99V982.406H1210.37V993.41H1223.27V982.406H1226.66V1008ZM1235.68 1008H1232.43V988.98H1235.68V1008ZM1232.16 983.936C1232.16 983.408 1232.32 982.963 1232.64 982.6C1232.96 982.236 1233.45 982.055 1234.08 982.055C1234.71 982.055 1235.19 982.236 1235.52 982.6C1235.85 982.963 1236.01 983.408 1236.01 983.936C1236.01 984.463 1235.85 984.902 1235.52 985.254C1235.19 985.605 1234.71 985.781 1234.08 985.781C1233.45 985.781 1232.96 985.605 1232.64 985.254C1232.32 984.902 1232.16 984.463 1232.16 983.936ZM1251.97 1002.96C1251.97 1002.08 1251.64 1001.4 1250.97 1000.92C1250.31 1000.42 1249.16 1000 1247.51 999.65C1245.87 999.299 1244.56 998.877 1243.59 998.385C1242.63 997.893 1241.91 997.307 1241.44 996.627C1240.99 995.947 1240.76 995.139 1240.76 994.201C1240.76 992.643 1241.41 991.324 1242.73 990.246C1244.05 989.168 1245.74 988.629 1247.79 988.629C1249.95 988.629 1251.69 989.186 1253.03 990.299C1254.38 991.412 1255.05 992.836 1255.05 994.57H1251.78C1251.78 993.68 1251.4 992.912 1250.64 992.268C1249.89 991.623 1248.94 991.301 1247.79 991.301C1246.61 991.301 1245.68 991.559 1245.01 992.074C1244.34 992.59 1244.01 993.264 1244.01 994.096C1244.01 994.881 1244.32 995.473 1244.94 995.871C1245.56 996.27 1246.68 996.65 1248.3 997.014C1249.93 997.377 1251.25 997.811 1252.25 998.314C1253.26 998.818 1254.01 999.428 1254.49 1000.14C1254.98 1000.85 1255.22 1001.71 1255.22 1002.73C1255.22 1004.43 1254.54 1005.79 1253.19 1006.82C1251.83 1007.84 1250.06 1008.35 1247.89 1008.35C1246.37 1008.35 1245.02 1008.08 1243.85 1007.54C1242.68 1007 1241.76 1006.25 1241.09 1005.29C1240.44 1004.32 1240.11 1003.27 1240.11 1002.15H1243.36C1243.42 1003.24 1243.85 1004.1 1244.66 1004.75C1245.48 1005.38 1246.56 1005.7 1247.89 1005.7C1249.12 1005.7 1250.11 1005.45 1250.85 1004.96C1251.6 1004.46 1251.97 1003.79 1251.97 1002.96ZM1263.87 984.375V988.98H1267.42V991.494H1263.87V1003.29C1263.87 1004.05 1264.03 1004.62 1264.35 1005.01C1264.66 1005.39 1265.2 1005.57 1265.96 1005.57C1266.34 1005.57 1266.86 1005.5 1267.51 1005.36V1008C1266.66 1008.23 1265.82 1008.35 1265.02 1008.35C1263.56 1008.35 1262.47 1007.91 1261.73 1007.03C1260.99 1006.15 1260.62 1004.91 1260.62 1003.29V991.494H1257.16V988.98H1260.62V984.375H1263.87ZM1270.03 998.314C1270.03 996.451 1270.39 994.775 1271.12 993.287C1271.85 991.799 1272.87 990.65 1274.17 989.842C1275.49 989.033 1276.98 988.629 1278.66 988.629C1281.25 988.629 1283.34 989.525 1284.93 991.318C1286.54 993.111 1287.34 995.496 1287.34 998.473V998.701C1287.34 1000.55 1286.98 1002.22 1286.27 1003.69C1285.56 1005.16 1284.55 1006.3 1283.23 1007.12C1281.91 1007.94 1280.4 1008.35 1278.69 1008.35C1276.11 1008.35 1274.02 1007.46 1272.42 1005.66C1270.82 1003.87 1270.03 1001.5 1270.03 998.543V998.314ZM1273.29 998.701C1273.29 1000.81 1273.78 1002.5 1274.75 1003.78C1275.74 1005.06 1277.05 1005.7 1278.69 1005.7C1280.34 1005.7 1281.66 1005.05 1282.63 1003.76C1283.6 1002.46 1284.09 1000.65 1284.09 998.314C1284.09 996.229 1283.59 994.541 1282.59 993.252C1281.61 991.951 1280.3 991.301 1278.66 991.301C1277.05 991.301 1275.76 991.939 1274.77 993.217C1273.79 994.494 1273.29 996.322 1273.29 998.701ZM1300.61 991.898C1300.12 991.816 1299.59 991.775 1299.01 991.775C1296.88 991.775 1295.43 992.684 1294.67 994.5V1008H1291.42V988.98H1294.58L1294.63 991.178C1295.7 989.479 1297.21 988.629 1299.17 988.629C1299.8 988.629 1300.28 988.711 1300.61 988.875V991.898ZM1310.16 1003.24L1314.59 988.98H1318.07L1310.42 1010.94C1309.24 1014.1 1307.36 1015.68 1304.78 1015.68L1304.16 1015.63L1302.95 1015.4V1012.76L1303.83 1012.83C1304.93 1012.83 1305.79 1012.61 1306.39 1012.17C1307.02 1011.72 1307.53 1010.91 1307.92 1009.72L1308.64 1007.79L1301.86 988.98H1305.41L1310.16 1003.24ZM1319.16 1006.29C1319.16 1005.73 1319.32 1005.26 1319.65 1004.89C1319.99 1004.51 1320.49 1004.33 1321.16 1004.33C1321.83 1004.33 1322.33 1004.51 1322.67 1004.89C1323.02 1005.26 1323.2 1005.73 1323.2 1006.29C1323.2 1006.83 1323.02 1007.29 1322.67 1007.65C1322.33 1008.01 1321.83 1008.19 1321.16 1008.19C1320.49 1008.19 1319.99 1008.01 1319.65 1007.65C1319.32 1007.29 1319.16 1006.83 1319.16 1006.29ZM1344.64 998.701C1344.64 1001.6 1343.98 1003.93 1342.66 1005.7C1341.33 1007.47 1339.54 1008.35 1337.28 1008.35C1334.97 1008.35 1333.15 1007.62 1331.83 1006.15V1015.31H1328.58V988.98H1331.55L1331.71 991.09C1333.03 989.449 1334.87 988.629 1337.23 988.629C1339.51 988.629 1341.32 989.49 1342.64 991.213C1343.98 992.936 1344.64 995.332 1344.64 998.402V998.701ZM1341.39 998.332C1341.39 996.188 1340.94 994.494 1340.02 993.252C1339.11 992.01 1337.85 991.389 1336.26 991.389C1334.29 991.389 1332.81 992.262 1331.83 994.008V1003.1C1332.8 1004.83 1334.29 1005.7 1336.29 1005.7C1337.85 1005.7 1339.09 1005.08 1340 1003.85C1340.93 1002.61 1341.39 1000.77 1341.39 998.332ZM1348 998.332C1348 995.414 1348.69 993.07 1350.08 991.301C1351.46 989.52 1353.27 988.629 1355.51 988.629C1357.73 988.629 1359.5 989.391 1360.8 990.914V981H1364.05V1008H1361.06L1360.9 1005.96C1359.6 1007.55 1357.79 1008.35 1355.47 1008.35C1353.27 1008.35 1351.47 1007.45 1350.08 1005.64C1348.69 1003.84 1348 1001.48 1348 998.578V998.332ZM1351.25 998.701C1351.25 1000.86 1351.7 1002.54 1352.59 1003.76C1353.48 1004.98 1354.71 1005.59 1356.28 1005.59C1358.34 1005.59 1359.85 1004.67 1360.8 1002.81V994.078C1359.83 992.285 1358.33 991.389 1356.32 991.389C1354.72 991.389 1353.48 992.004 1352.59 993.234C1351.7 994.465 1351.25 996.287 1351.25 998.701ZM1370.71 1008V991.494H1367.71V988.98H1370.71V987.029C1370.71 984.99 1371.26 983.414 1372.35 982.301C1373.44 981.188 1374.98 980.631 1376.97 980.631C1377.72 980.631 1378.46 980.73 1379.2 980.93L1379.03 983.566C1378.48 983.461 1377.89 983.408 1377.27 983.408C1376.21 983.408 1375.4 983.719 1374.83 984.34C1374.25 984.949 1373.96 985.828 1373.96 986.977V988.98H1378.03V991.494H1373.96V1008H1370.71Z" fill="black"/>
</svg>
