<svg width="522" height="360" viewBox="0 0 522 360" fill="none" xmlns="http://www.w3.org/2000/svg">
<rect width="497" height="351" fill="white" transform="translate(13 9)"/>
<rect width="406" height="214" fill="black" fill-opacity="0" transform="translate(55 59)"/>
<rect width="406" height="214" fill="black" fill-opacity="0" transform="translate(55 59)"/>
<rect x="56" y="60" width="404" height="212" rx="3" stroke="black" stroke-width="2"/>
<path d="M67.7012 72.7734H64.127L63.3242 75H62.1641L65.4219 66.4688H66.4062L69.6699 75H68.5156L67.7012 72.7734ZM64.4668 71.8477H67.3672L65.9141 67.8574L64.4668 71.8477Z" fill="black"/>
<rect width="55" height="18" fill="black" fill-opacity="0" transform="translate(69 43)"/>
<mask id="path-3-inside-1" fill="white">
<path d="M69 47C69 44.7909 70.7909 43 73 43H120C122.209 43 124 44.7909 124 47V60C124 60.5523 123.552 61 123 61H70C69.4477 61 69 60.5523 69 60V47Z"/>
</mask>
<path d="M69 47C69 44.7909 70.7909 43 73 43H120C122.209 43 124 44.7909 124 47V60C124 60.5523 123.552 61 123 61H70C69.4477 61 69 60.5523 69 60V47Z" stroke="black" stroke-width="4" mask="url(#path-3-inside-1)"/>
<path d="M77.5918 52.2201L79.8184 47.9369H81.0957L78.1543 53.2865V56.4681H77.0293V53.2865L74.0879 47.9369H75.377L77.5918 52.2201Z" fill="black"/>
<path d="M351.986 112.66V116.369C351.99 117.006 352.092 117.477 352.291 117.781C352.494 118.086 352.822 118.238 353.275 118.238C354.053 118.238 354.562 117.941 354.805 117.348V112.66H355.895V119H354.916L354.863 118.326C354.5 118.854 353.986 119.117 353.322 119.117C352.748 119.117 352.303 118.975 351.986 118.689V121.438H350.902V112.66H351.986Z" fill="black"/>
<rect width="18" height="17" fill="black" fill-opacity="0" transform="translate(430 142)"/>
<circle cx="443" cy="145" r="3" fill="black"/>
<rect width="1.28163" height="13.5479" fill="black" fill-opacity="0" transform="translate(444.076 143.789) scale(-1 1) rotate(-55.9936)"/>
<path d="M431.91 150.754C431.661 150.633 431.558 150.334 431.679 150.085L433.649 146.039C433.77 145.791 434.069 145.688 434.317 145.809C434.566 145.93 434.669 146.229 434.548 146.477L432.797 150.074L436.393 151.825C436.641 151.946 436.745 152.245 436.624 152.493C436.503 152.741 436.204 152.845 435.955 152.724L431.91 150.754ZM443.775 143.004C442.464 144.971 441.132 146.393 439.34 147.588C437.558 148.775 435.343 149.724 432.292 150.777L431.965 149.831C434.995 148.786 437.112 147.871 438.785 146.756C440.446 145.649 441.689 144.331 442.943 142.45L443.775 143.004Z" fill="black"/>
<rect width="96.2428" height="52.6913" fill="black" fill-opacity="0" transform="translate(284 193.609) rotate(-27.6132)"/>
<rect width="65" height="15" fill="black" fill-opacity="0" transform="translate(300.195 198.68) rotate(-27.6132)"/>
<rect width="7" height="15" fill="black" fill-opacity="0" transform="translate(351.589 171.797) rotate(-27.6132)"/>
<path d="M359.524 178.235L358.788 173.29L359.77 172.777L360.586 179.128L361.87 181.583L360.905 182.089L359.601 179.596L354.863 175.343L355.845 174.83L359.524 178.235Z" fill="black"/>
<rect width="5" height="96.2428" fill="black" fill-opacity="0" transform="translate(284 193.609) scale(1 -1) rotate(-62.3868)"/>
<path d="M372.032 152.53C372.53 152.77 372.739 153.367 372.499 153.865L368.59 161.972C368.35 162.469 367.752 162.678 367.255 162.438C366.758 162.198 366.549 161.601 366.789 161.103L370.263 153.897L363.057 150.423C362.559 150.183 362.35 149.585 362.59 149.087C362.83 148.59 363.428 148.381 363.925 148.621L372.032 152.53ZM285.671 197.276C309.561 177.009 329.088 167.224 371.268 152.486L371.928 154.375C329.863 169.072 310.592 178.757 286.964 198.802L285.671 197.276Z" fill="black"/>
<rect width="62" height="46" fill="black" fill-opacity="0" transform="translate(89 94)"/>
<rect x="90" y="95" width="60" height="44" rx="8" stroke="black" stroke-width="2"/>
<path d="M96.9902 110V101.469H99.7793C100.705 101.469 101.4 101.66 101.865 102.043C102.334 102.426 102.568 102.992 102.568 103.742C102.568 104.141 102.455 104.494 102.229 104.803C102.002 105.107 101.693 105.344 101.303 105.512C101.764 105.641 102.127 105.887 102.393 106.25C102.662 106.609 102.797 107.039 102.797 107.539C102.797 108.305 102.549 108.906 102.053 109.344C101.557 109.781 100.855 110 99.9492 110H96.9902ZM98.1152 106.01V109.08H99.9727C100.496 109.08 100.908 108.945 101.209 108.676C101.514 108.402 101.666 108.027 101.666 107.551C101.666 106.523 101.107 106.01 99.9902 106.01H98.1152ZM98.1152 105.107H99.8145C100.307 105.107 100.699 104.984 100.992 104.738C101.289 104.492 101.438 104.158 101.438 103.736C101.438 103.268 101.301 102.928 101.027 102.717C100.754 102.502 100.338 102.395 99.7793 102.395H98.1152V105.107Z" fill="black"/>
<rect width="62" height="46" fill="black" fill-opacity="0" transform="translate(89 190)"/>
<rect x="90" y="191" width="60" height="44" rx="8" stroke="black" stroke-width="2"/>
<path d="M103.266 203.293C103.16 204.195 102.826 204.893 102.264 205.385C101.705 205.873 100.961 206.117 100.031 206.117C99.0234 206.117 98.2148 205.756 97.6055 205.033C97 204.311 96.6973 203.344 96.6973 202.133V201.312C96.6973 200.52 96.8379 199.822 97.1191 199.221C97.4043 198.619 97.8066 198.158 98.3262 197.838C98.8457 197.514 99.4473 197.352 100.131 197.352C101.037 197.352 101.764 197.605 102.311 198.113C102.857 198.617 103.176 199.316 103.266 200.211H102.135C102.037 199.531 101.824 199.039 101.496 198.734C101.172 198.43 100.717 198.277 100.131 198.277C99.4121 198.277 98.8477 198.543 98.4375 199.074C98.0312 199.605 97.8281 200.361 97.8281 201.342V202.168C97.8281 203.094 98.0215 203.83 98.4082 204.377C98.7949 204.924 99.3359 205.197 100.031 205.197C100.656 205.197 101.135 205.057 101.467 204.775C101.803 204.49 102.025 203.996 102.135 203.293H103.266Z" fill="black"/>
<rect width="18" height="17" fill="black" fill-opacity="0" transform="translate(147 88)"/>
<circle cx="160" cy="91" r="3" fill="black"/>
<rect width="1.28163" height="13.5479" fill="black" fill-opacity="0" transform="translate(161.076 89.7894) scale(-1 1) rotate(-55.9936)"/>
<path d="M148.91 96.7537C148.661 96.6328 148.558 96.3335 148.679 96.0852L150.649 92.0394C150.77 91.7912 151.069 91.6879 151.317 91.8088C151.566 91.9297 151.669 92.229 151.548 92.4772L149.797 96.0735L153.393 97.8247C153.641 97.9456 153.745 98.2449 153.624 98.4932C153.503 98.7415 153.204 98.8447 152.955 98.7238L148.91 96.7537ZM160.775 89.0043C159.464 90.9713 158.132 92.393 156.34 93.5879C154.558 94.7751 152.343 95.724 149.292 96.7768L148.965 95.8315C151.995 94.7862 154.112 93.8705 155.785 92.7558C157.446 91.6486 158.689 90.3308 159.943 88.4497L160.775 89.0043Z" fill="black"/>
<rect width="1.08841e-05" height="214" fill="black" fill-opacity="0" transform="translate(214 59)"/>
<line y1="-0.5" x2="214.002" y2="-0.5" transform="matrix(0.0046728 0.999989 -1 -4.3711e-08 214 59)" stroke="black" stroke-miterlimit="16" stroke-dasharray="5 5"/>
<rect width="46" height="50" fill="black" fill-opacity="0" transform="translate(131 140)"/>
<rect width="65" height="15" fill="black" fill-opacity="0" transform="translate(141 157)"/>
<rect width="41" height="15" fill="black" fill-opacity="0" transform="translate(163 157)"/>
<path d="M179.064 159.141H177.945V168.938H179.064V169.828H176.855V158.25H179.064V159.141ZM181.186 168H180.102V161.66H181.186V168ZM180.014 159.979C180.014 159.803 180.066 159.654 180.172 159.533C180.281 159.412 180.441 159.352 180.652 159.352C180.863 159.352 181.023 159.412 181.133 159.533C181.242 159.654 181.297 159.803 181.297 159.979C181.297 160.154 181.242 160.301 181.133 160.418C181.023 160.535 180.863 160.594 180.652 160.594C180.441 160.594 180.281 160.535 180.172 160.418C180.066 160.301 180.014 160.154 180.014 159.979ZM183.951 161.66L183.986 162.457C184.471 161.848 185.104 161.543 185.885 161.543C187.225 161.543 187.9 162.299 187.912 163.811V168H186.828V163.805C186.824 163.348 186.719 163.01 186.512 162.791C186.309 162.572 185.99 162.463 185.557 162.463C185.205 162.463 184.896 162.557 184.631 162.744C184.365 162.932 184.158 163.178 184.01 163.482V168H182.926V161.66H183.951ZM198.992 166.881C198.703 167.295 198.299 167.605 197.779 167.812C197.264 168.016 196.662 168.117 195.975 168.117C195.279 168.117 194.662 167.955 194.123 167.631C193.584 167.303 193.166 166.838 192.869 166.236C192.576 165.635 192.426 164.938 192.418 164.145V163.4C192.418 162.115 192.717 161.119 193.314 160.412C193.916 159.705 194.76 159.352 195.846 159.352C196.736 159.352 197.453 159.58 197.996 160.037C198.539 160.49 198.871 161.135 198.992 161.971H197.867C197.656 160.842 196.984 160.277 195.852 160.277C195.098 160.277 194.525 160.543 194.135 161.074C193.748 161.602 193.553 162.367 193.549 163.371V164.068C193.549 165.025 193.768 165.787 194.205 166.354C194.643 166.916 195.234 167.197 195.98 167.197C196.402 167.197 196.771 167.15 197.088 167.057C197.404 166.963 197.666 166.805 197.873 166.582V164.666H195.898V163.752H198.992V166.881ZM199.936 158.25H202.15V169.828H199.936V168.938H201.066V159.141H199.936V158.25Z" fill="black"/>
<line x1="171.53" y1="169.829" x2="175.53" y2="158.829" stroke="black"/>
<path d="M167.432 159.352C168.186 159.352 168.791 159.566 169.248 159.996C169.709 160.422 169.939 160.975 169.939 161.654C169.939 162.01 169.844 162.336 169.652 162.633C169.461 162.93 169.193 163.168 168.85 163.348C169.33 163.523 169.697 163.803 169.951 164.186C170.209 164.564 170.338 165.008 170.338 165.516C170.338 166.316 170.094 166.951 169.605 167.42C169.121 167.885 168.479 168.117 167.678 168.117C166.971 168.117 166.383 167.932 165.914 167.561V170.25H164.824V161.713C164.824 161.291 164.943 160.896 165.182 160.529C165.42 160.162 165.74 159.875 166.143 159.668C166.549 159.457 166.979 159.352 167.432 159.352ZM168.855 161.631C168.855 161.232 168.723 160.902 168.457 160.641C168.191 160.375 167.85 160.242 167.432 160.242C167.01 160.242 166.652 160.381 166.359 160.658C166.066 160.936 165.918 161.283 165.914 161.701V166.559C166.086 166.762 166.312 166.926 166.594 167.051C166.875 167.172 167.199 167.232 167.566 167.232C168.09 167.232 168.502 167.076 168.803 166.764C169.104 166.451 169.254 166.043 169.254 165.539C169.254 165.078 169.117 164.688 168.844 164.367C168.57 164.043 168.221 163.875 167.795 163.863H166.916V162.973H167.414C167.883 162.973 168.24 162.857 168.486 162.627C168.732 162.393 168.855 162.061 168.855 161.631Z" fill="black"/>
<rect width="5" height="50" fill="black" fill-opacity="0" transform="translate(136 190) rotate(-180)"/>
<path d="M131.488 139.127C131.006 138.858 130.397 139.03 130.127 139.512L125.734 147.367C125.465 147.849 125.637 148.458 126.119 148.728C126.601 148.997 127.21 148.825 127.48 148.343L131.385 141.361L138.367 145.266C138.849 145.535 139.458 145.363 139.728 144.881C139.997 144.399 139.825 143.79 139.343 143.52L131.488 139.127ZM131.917 190.398C135.384 182.404 137.046 175.5 136.999 167.673C136.953 159.876 135.21 151.218 131.962 139.728L130.038 140.272C133.273 151.716 134.954 160.164 134.999 167.685C135.044 175.177 133.464 181.805 130.083 189.602L131.917 190.398Z" fill="black"/>
<rect width="43" height="50" fill="black" fill-opacity="0" transform="translate(65 140)"/>
<rect width="65" height="15" fill="black" fill-opacity="0" transform="translate(28 157)"/>
<rect width="7" height="15" fill="black" fill-opacity="0" transform="translate(86 157)"/>
<path d="M92.1094 161.66V166.33C92.1172 166.877 92.2734 167.15 92.5781 167.15C92.6523 167.15 92.7188 167.141 92.7773 167.121L92.9121 167.924C92.7246 168.057 92.4863 168.123 92.1973 168.123C91.623 168.123 91.2617 167.801 91.1133 167.156C90.6953 167.801 90.0781 168.123 89.2617 168.123C88.5117 168.123 87.9141 167.848 87.4688 167.297C87.0234 166.742 86.8008 165.988 86.8008 165.035V164.947C86.8008 163.916 87.0215 163.092 87.4629 162.475C87.9043 161.854 88.5078 161.543 89.2734 161.543C90.0664 161.543 90.6719 161.857 91.0898 162.486L91.1895 161.66H92.1094ZM87.8848 165.07C87.8848 165.754 88.0273 166.287 88.3125 166.67C88.5977 167.049 89.0039 167.238 89.5312 167.238C90.207 167.238 90.7051 166.875 91.0254 166.148V163.535C90.6934 162.801 90.1992 162.434 89.543 162.434C89.0195 162.434 88.6113 162.656 88.3184 163.102C88.0293 163.543 87.8848 164.199 87.8848 165.07Z" fill="black"/>
<rect width="5" height="50" fill="black" fill-opacity="0" transform="translate(99 140)"/>
<path d="M103.512 190.873C103.994 191.142 104.603 190.97 104.873 190.488L109.266 182.633C109.535 182.151 109.363 181.542 108.881 181.272C108.399 181.003 107.79 181.175 107.52 181.657L103.615 188.639L96.6331 184.734C96.151 184.465 95.5417 184.637 95.2722 185.119C95.0026 185.601 95.1748 186.21 95.6568 186.48L103.512 190.873ZM103.083 139.602C99.6159 147.596 97.9543 154.5 98.001 162.327C98.0474 170.124 99.7898 178.782 103.038 190.272L104.962 189.728C101.727 178.284 100.046 169.836 100.001 162.315C99.9563 154.823 101.536 148.195 104.917 140.398L103.083 139.602Z" fill="black"/>
<rect width="62" height="46" fill="black" fill-opacity="0" transform="translate(229 95)"/>
<rect x="230" y="96" width="60" height="44" rx="8" stroke="black" stroke-width="2"/>
<path d="M241.812 107.057H238.115V110.08H242.41V111H236.99V102.469H242.352V103.395H238.115V106.137H241.812V107.057Z" fill="black"/>
<rect width="62" height="46" fill="black" fill-opacity="0" transform="translate(371 146)"/>
<rect x="372" y="147" width="60" height="44" rx="8" stroke="black" stroke-width="2"/>
<path d="M383.695 158.232H380.115V162H378.99V153.469H384.275V154.395H380.115V157.312H383.695V158.232Z" fill="black"/>
<rect width="62" height="46" fill="black" fill-opacity="0" transform="translate(268 197)"/>
<rect x="269" y="198" width="60" height="44" rx="8" stroke="black" stroke-width="2"/>
<path d="M282.289 211.881C282 212.295 281.596 212.605 281.076 212.812C280.561 213.016 279.959 213.117 279.271 213.117C278.576 213.117 277.959 212.955 277.42 212.631C276.881 212.303 276.463 211.838 276.166 211.236C275.873 210.635 275.723 209.938 275.715 209.145V208.4C275.715 207.115 276.014 206.119 276.611 205.412C277.213 204.705 278.057 204.352 279.143 204.352C280.033 204.352 280.75 204.58 281.293 205.037C281.836 205.49 282.168 206.135 282.289 206.971H281.164C280.953 205.842 280.281 205.277 279.148 205.277C278.395 205.277 277.822 205.543 277.432 206.074C277.045 206.602 276.85 207.367 276.846 208.371V209.068C276.846 210.025 277.064 210.787 277.502 211.354C277.939 211.916 278.531 212.197 279.277 212.197C279.699 212.197 280.068 212.15 280.385 212.057C280.701 211.963 280.963 211.805 281.17 211.582V209.666H279.195V208.752H282.289V211.881Z" fill="black"/>
<rect width="23" height="23" fill="black" fill-opacity="0" transform="translate(422 72)"/>
<circle cx="433.5" cy="83.5" r="10.5" stroke="black" stroke-width="2"/>
<path d="M436.77 88H435.639V84.0566H431.338V88H430.213V79.4688H431.338V83.1367H435.639V79.4688H436.77V88Z" fill="black"/>
<rect width="54" height="62" fill="black" fill-opacity="0" transform="translate(208 159.949) rotate(-23.9834)"/>
<rect width="65" height="15" fill="black" fill-opacity="0" transform="translate(193.594 191.532) rotate(-23.9834)"/>
<rect width="7" height="15" fill="black" fill-opacity="0" transform="translate(246.586 167.957) rotate(-23.9834)"/>
<path d="M249.404 170.604C249.188 170.119 249.197 169.655 249.432 169.213C249.669 168.765 250.1 168.403 250.725 168.125C251.221 167.904 251.752 167.786 252.317 167.769L252.688 168.63C252.055 168.66 251.517 168.773 251.075 168.97C250.768 169.106 250.552 169.279 250.427 169.489C250.306 169.696 250.294 169.911 250.393 170.132C250.564 170.518 251.106 170.672 252.017 170.596C252.93 170.515 253.677 170.634 254.259 170.952C254.843 171.265 255.299 171.767 255.628 172.459L255.721 172.668C255.964 173.214 256.077 173.751 256.06 174.28C256.042 174.806 255.89 175.276 255.603 175.689C255.319 176.098 254.918 176.417 254.401 176.648C253.609 177 252.86 177.019 252.156 176.704C251.453 176.384 250.91 175.792 250.525 174.928L250.495 174.858C250.233 174.27 250.164 173.665 250.29 173.045C250.416 172.424 250.708 171.937 251.167 171.584L251.15 171.559C250.734 171.577 250.375 171.504 250.071 171.34C249.771 171.174 249.548 170.929 249.404 170.604ZM251.546 174.525C251.825 175.154 252.189 175.586 252.636 175.823C253.085 176.055 253.555 176.062 254.044 175.845C254.529 175.629 254.834 175.277 254.959 174.79C255.085 174.302 254.99 173.705 254.676 172.998C254.46 172.513 254.113 172.143 253.637 171.889C253.163 171.63 252.682 171.555 252.197 171.664C251.711 171.88 251.404 172.237 251.275 172.735C251.144 173.229 251.234 173.826 251.546 174.525Z" fill="black"/>
<rect width="5" height="62" fill="black" fill-opacity="0" transform="translate(249.115 141.658) rotate(-23.9834)"/>
<path d="M278.742 197.263C279.289 197.341 279.796 196.962 279.874 196.415L281.154 187.507C281.233 186.96 280.853 186.453 280.306 186.375C279.76 186.296 279.253 186.676 279.174 187.222L278.037 195.141L270.118 194.003C269.571 193.925 269.065 194.304 268.986 194.851C268.908 195.398 269.287 195.905 269.834 195.983L278.742 197.263ZM252.687 139.708C253.545 150.136 255.497 158.576 259.454 167.357C263.402 176.118 269.33 185.181 278.084 196.872L279.685 195.674C270.956 184.016 265.134 175.093 261.278 166.535C257.431 157.999 255.523 149.789 254.68 139.544L252.687 139.708Z" fill="black"/>
<rect width="72" height="64" fill="black" fill-opacity="0" transform="translate(328 213.6) rotate(-22.5402)"/>
<rect width="65" height="15" fill="black" fill-opacity="0" transform="translate(335.597 226.687) rotate(-22.5402)"/>
<rect width="7" height="15" fill="black" fill-opacity="0" transform="translate(389.167 204.454) rotate(-22.5402)"/>
<path d="M396.596 206.416L398.386 210.73C398.603 211.232 398.852 211.424 399.133 211.308C399.202 211.279 399.259 211.245 399.306 211.204L399.738 211.894C399.616 212.088 399.421 212.241 399.154 212.352C398.624 212.572 398.167 212.413 397.783 211.874C397.644 212.63 397.197 213.164 396.443 213.477C395.75 213.765 395.093 213.739 394.47 213.401C393.846 213.06 393.352 212.449 392.986 211.569L392.953 211.487C392.557 210.535 392.445 209.689 392.616 208.95C392.786 208.207 393.224 207.689 393.931 207.395C394.664 207.091 395.344 207.15 395.971 207.57L395.746 206.769L396.596 206.416ZM394.001 211.185C394.263 211.817 394.599 212.255 395.009 212.499C395.418 212.74 395.866 212.759 396.353 212.557C396.977 212.298 397.298 211.771 397.315 210.977L396.313 208.564C395.725 208.013 395.128 207.863 394.522 208.115C394.038 208.315 393.747 208.677 393.647 209.201C393.549 209.719 393.667 210.381 394.001 211.185Z" fill="black"/>
<rect width="5" height="72" fill="black" fill-opacity="0" transform="translate(398.333 195.236) scale(-1 1) rotate(-67.4598)"/>
<path d="M329.364 219.051C328.904 218.746 328.778 218.125 329.083 217.665L334.059 210.166C334.365 209.706 334.985 209.58 335.446 209.885C335.906 210.191 336.031 210.811 335.726 211.272L331.303 217.938L337.969 222.361C338.429 222.666 338.555 223.287 338.249 223.747C337.944 224.207 337.323 224.333 336.863 224.027L329.364 219.051ZM397.05 191.392C378.496 206.578 363.183 212.51 330.115 219.198L329.718 217.238C362.627 210.582 377.583 204.741 395.783 189.844L397.05 191.392Z" fill="black"/>
<rect width="183.683" height="95.9095" fill="black" fill-opacity="0" transform="translate(331 228.051) rotate(-4.19297)"/>
<rect width="65" height="15" fill="black" fill-opacity="0" transform="translate(389.941 238.77) rotate(-4.19297)"/>
<rect width="7" height="15" fill="black" fill-opacity="0" transform="translate(447.786 234.53) rotate(-4.19297)"/>
<path d="M449.82 236.492C450.202 236.464 450.515 236.519 450.76 236.658C451.006 236.797 451.206 237.046 451.362 237.407L454.332 243.705C454.425 243.898 454.516 244.03 454.608 244.102C454.703 244.169 454.819 244.198 454.955 244.188L455.176 244.154L455.276 245.04C455.139 245.097 454.989 245.131 454.825 245.143C454.525 245.165 454.297 245.147 454.14 245.088C453.982 245.025 453.837 244.914 453.704 244.755C453.571 244.597 453.437 244.366 453.301 244.062L451.703 240.695L450.365 245.37L449.161 245.458L451.023 239.277L450.361 237.944C450.256 237.733 450.147 237.586 450.035 237.504C449.927 237.422 449.786 237.387 449.61 237.4L449.337 237.432L449.27 236.603C449.43 236.544 449.613 236.507 449.82 236.492Z" fill="black"/>
<rect width="5" height="183.683" fill="black" fill-opacity="0" transform="translate(514.923 224.594) scale(-1 1) rotate(-85.807)"/>
<path d="M330.656 233.743C330.267 233.351 330.269 232.717 330.661 232.328L337.048 225.987C337.44 225.598 338.073 225.601 338.462 225.992C338.851 226.384 338.849 227.018 338.457 227.407L332.78 233.043L338.416 238.72C338.805 239.112 338.803 239.745 338.411 240.135C338.019 240.524 337.386 240.521 336.997 240.129L330.656 233.743ZM514.747 220.59C457.303 231.678 415.897 234.343 331.362 234.038L331.369 232.038C415.841 232.343 457.103 229.68 514.368 218.626L514.747 220.59Z" fill="black"/>
<rect width="39" height="62" fill="black" fill-opacity="0" transform="translate(398 9)"/>
<rect width="65" height="15" fill="black" fill-opacity="0" transform="translate(357 32)"/>
<rect width="7" height="15" fill="black" fill-opacity="0" transform="translate(415 32)"/>
<path d="M419.047 41.3828L420.688 36.6602H421.795L419.574 42.666V45.4375H418.484V42.625L416.258 36.6602H417.365L419.047 41.3828Z" fill="black"/>
<rect width="5" height="62" fill="black" fill-opacity="0" transform="translate(428 9)"/>
<path d="M432.468 71.8466C432.935 72.1405 433.553 71.9998 433.847 71.5323L438.637 63.9131C438.931 63.4455 438.79 62.8282 438.323 62.5342C437.855 62.2403 437.238 62.381 436.944 62.8485L432.686 69.6212L425.913 65.363C425.446 65.0691 424.828 65.2098 424.534 65.6774C424.24 66.1449 424.381 66.7622 424.849 67.0562L432.468 71.8466ZM432.056 8.66987C428.602 18.5469 426.955 27.051 427.001 36.6828C427.047 46.2919 428.779 56.9823 432.025 71.2223L433.975 70.7777C430.738 56.5785 429.046 46.0592 429.001 36.6732C428.956 27.31 430.55 19.0338 433.944 9.33013L432.056 8.66987Z" fill="black"/>
<path d="M224.773 69.7383L226.818 66.4688H228.143L225.447 70.6992L228.207 75H226.871L224.773 71.6719L222.664 75H221.334L224.1 70.6992L221.398 66.4688H222.717L224.773 69.7383Z" fill="black"/>
<rect width="5" height="50" fill="black" fill-opacity="0" transform="translate(510.361 83.7941) scale(-1 1) rotate(-73.5001)"/>
<path d="M460.302 93.9166C459.906 93.531 459.898 92.8979 460.284 92.5025L466.568 86.0595C466.954 85.6641 467.587 85.6562 467.982 86.0418C468.377 86.4274 468.385 87.0605 468 87.4559L462.414 93.183L468.141 98.7687C468.537 99.1543 468.545 99.7874 468.159 100.183C467.773 100.578 467.14 100.586 466.745 100.2L460.302 93.9166ZM509.583 79.7667C502.903 85.3608 496.755 88.915 489.237 91.0932C481.748 93.2632 472.952 94.0513 461.013 94.2006L460.988 92.2008C472.879 92.0521 481.457 91.2653 488.681 89.1722C495.877 87.0872 501.783 83.69 508.299 78.2333L509.583 79.7667Z" fill="black"/>
<rect width="20.8149" height="137.879" fill="black" fill-opacity="0" transform="translate(242.287 11.8829) scale(-1 1) rotate(-32.2582)"/>
<path d="M150.914 118.355C150.37 118.255 150.01 117.734 150.11 117.191L151.729 108.338C151.829 107.795 152.35 107.435 152.893 107.534C153.436 107.634 153.796 108.155 153.697 108.698L152.257 116.567L160.127 118.007C160.67 118.106 161.03 118.627 160.93 119.171C160.831 119.714 160.31 120.074 159.767 119.974L150.914 118.355ZM225.685 0.756558C226.12 26.9055 221.844 46.4984 210.272 64.4737C198.726 82.4076 179.973 98.6395 151.662 118.194L150.525 116.548C178.793 97.0239 197.269 80.9765 208.59 63.391C219.885 45.8469 224.116 26.6802 223.685 0.789856L225.685 0.756558Z" fill="black"/>
<rect width="19.8497" height="102.235" fill="black" fill-opacity="0" transform="translate(209 19.1474) rotate(-36.9701)"/>
<path d="M245.976 94.8519C246.447 95.1411 247.063 94.9942 247.352 94.5237L252.065 86.8563C252.354 86.3858 252.207 85.7699 251.737 85.4807C251.266 85.1915 250.65 85.3385 250.361 85.809L246.172 92.6244L239.356 88.4351C238.886 88.1459 238.27 88.2929 237.981 88.7634C237.692 89.2339 237.838 89.8498 238.309 90.139L245.976 94.8519ZM223.866 8.0886C222.229 21.489 225.077 32.1149 229.593 44.8147C234.109 57.5145 240.294 72.3006 245.527 94.2321L247.473 93.7679C242.206 71.6994 235.962 56.7568 231.477 44.1446C226.993 31.5325 224.271 21.2633 225.852 8.33121L223.866 8.0886Z" fill="black"/>
<rect width="6.74761" height="97.2088" fill="black" fill-opacity="0" transform="translate(384.58 140.647) rotate(112.147)"/>
<path d="M291.441 109.42C290.983 109.729 290.862 110.35 291.17 110.808L296.197 118.274C296.506 118.732 297.127 118.853 297.585 118.545C298.043 118.236 298.165 117.615 297.856 117.157L293.388 110.521L300.024 106.053C300.482 105.744 300.603 105.123 300.295 104.665C299.986 104.206 299.365 104.085 298.907 104.394L291.441 109.42ZM382.664 146.118C357.536 125.842 336.869 117.99 292.192 109.268L291.808 111.231C336.326 119.922 356.635 127.685 381.408 147.675L382.664 146.118Z" fill="black"/>
<path d="M490.514 76.5391H488.34V80.4238C488.34 80.9434 488.545 81.2031 488.955 81.2031C489.123 81.2031 489.303 81.1523 489.494 81.0508L489.74 81.8125C489.443 82.0156 489.088 82.1172 488.674 82.1172C488.186 82.1172 487.826 81.9746 487.596 81.6895C487.369 81.4004 487.254 80.9707 487.25 80.4004V76.5391H485.217V75.6602H490.514V76.5391Z" fill="black"/>
<path d="M233.285 15.4531C232.77 15.3125 232.322 15.2422 231.943 15.2422C231.393 15.2422 230.961 15.3438 230.648 15.5469C230.336 15.7461 230.18 16.0117 230.18 16.3438C230.18 17.1992 230.83 17.627 232.131 17.627H232.91V18.5176H232.031C231.32 18.5254 230.77 18.6816 230.379 18.9863C229.992 19.291 229.799 19.7617 229.799 20.3984C229.799 20.8359 229.939 21.209 230.221 21.5176C230.502 21.8223 230.906 22.0391 231.434 22.168C231.965 22.293 232.352 22.3926 232.594 22.4668C232.836 22.5371 233.02 22.6113 233.145 22.6895C233.453 22.8809 233.607 23.1816 233.607 23.5918C233.607 23.8418 233.506 24.1289 233.303 24.4531C233.1 24.7812 232.857 25.0645 232.576 25.3027L231.949 24.8105L232.283 24.4355C232.475 24.2012 232.57 23.9629 232.57 23.7207C232.57 23.5684 232.496 23.4473 232.348 23.3574C232.199 23.2676 231.9 23.1719 231.451 23.0703C231.002 22.9727 230.611 22.8594 230.279 22.7305C229.951 22.6016 229.67 22.4355 229.436 22.2324C229.205 22.0254 229.025 21.7734 228.896 21.4766C228.771 21.1758 228.709 20.8086 228.709 20.375C228.709 19.8086 228.869 19.3281 229.189 18.9336C229.51 18.5352 229.963 18.2461 230.549 18.0664C230.088 17.9023 229.729 17.6719 229.471 17.375C229.217 17.0781 229.09 16.7422 229.09 16.3672C229.09 15.7461 229.342 15.2559 229.846 14.8965C230.35 14.5332 231.047 14.3516 231.938 14.3516C232.504 14.3516 233.006 14.4277 233.443 14.5801L233.285 15.4531Z" fill="black"/>
<rect width="72" height="50" fill="black" fill-opacity="0" transform="translate(18 223)"/>
<rect width="65" height="15" fill="black" fill-opacity="0" transform="translate(20 238)"/>
<rect width="10" height="15" fill="black" fill-opacity="0" transform="translate(75 238)"/>
<path d="M77.7578 242.66C77.2188 243.766 76.9355 244.785 76.9082 245.719C76.9082 246.512 77.0195 247.131 77.2422 247.576C77.4648 248.018 77.7832 248.238 78.1973 248.238C78.6191 248.238 78.9395 248.07 79.1582 247.734C79.3809 247.395 79.4922 246.9 79.4922 246.252V244.488H80.5879V246.281C80.5918 246.922 80.7031 247.408 80.9219 247.74C81.1445 248.072 81.4648 248.238 81.8828 248.238C82.2969 248.238 82.6152 248.018 82.8379 247.576C83.0605 247.135 83.1719 246.516 83.1719 245.719C83.1445 244.785 82.8613 243.766 82.3223 242.66H83.4648C83.9922 243.613 84.2559 244.633 84.2559 245.719C84.2559 246.793 84.0527 247.629 83.6465 248.227C83.2441 248.82 82.6758 249.117 81.9414 249.117C81.0039 249.117 80.3691 248.652 80.0371 247.723C79.877 248.18 79.6367 248.527 79.3164 248.766C78.9961 249 78.6035 249.117 78.1387 249.117C77.4043 249.117 76.834 248.82 76.4277 248.227C76.0254 247.629 75.8242 246.793 75.8242 245.719C75.8242 244.598 76.0879 243.578 76.6152 242.66H77.7578Z" fill="black"/>
<rect width="5" height="72" fill="black" fill-opacity="0" transform="translate(90 233) scale(-1 1) rotate(-90)"/>
<path d="M17.1699 228.558C16.8619 228.099 16.9839 227.478 17.4423 227.17L24.9129 222.151C25.3714 221.843 25.9927 221.965 26.3007 222.423C26.6087 222.882 26.4867 223.503 26.0283 223.811L19.3877 228.272L23.849 234.913C24.157 235.371 24.0351 235.993 23.5766 236.301C23.1182 236.609 22.4969 236.487 22.1889 236.028L17.1699 228.558ZM90.2884 228.958C67.3308 235.871 50.9136 235.48 17.8074 228.981L18.1926 227.019C51.1388 233.486 67.1916 233.825 89.7116 227.042L90.2884 228.958Z" fill="black"/>
<rect width="42" height="50" fill="black" fill-opacity="0" transform="translate(13 161)"/>
<rect width="65" height="15" fill="black" fill-opacity="0" transform="translate(0 176)"/>
<rect width="6" height="15" fill="black" fill-opacity="0" transform="translate(59 176)"/>
<path d="M59.8965 180.572C60.5762 180.572 61.0879 180.947 61.4316 181.697L62.3047 183.684L63.7988 180.66H64.8945L62.832 184.885L64.1094 187.803C64.3477 188.303 64.5996 188.559 64.8652 188.57H65.0176L65.4395 188.541L65.1641 189.467C65.0703 189.525 64.9512 189.555 64.8066 189.555C64.4512 189.555 64.1562 189.463 63.9219 189.279C63.6875 189.096 63.4492 188.742 63.207 188.219L62.2578 186.051L60.6113 189.432H59.4629L61.7305 184.838L60.7461 182.57C60.4609 181.855 60.1094 181.498 59.6914 181.498L59.293 181.527L59.2871 180.66C59.5527 180.602 59.7559 180.572 59.8965 180.572Z" fill="black"/>
<rect width="5" height="42" fill="black" fill-opacity="0" transform="translate(55 171) scale(-1 1) rotate(-90)"/>
<path d="M12.1043 166.445C11.8587 165.95 12.0607 165.35 12.5553 165.104L20.6166 161.102C21.1113 160.857 21.7114 161.059 21.957 161.553C22.2026 162.048 22.0006 162.648 21.506 162.894L14.3404 166.451L17.8977 173.617C18.1432 174.111 17.9413 174.711 17.4466 174.957C16.9519 175.203 16.3518 175.001 16.1063 174.506L12.1043 166.445ZM55.4587 166.889C48.7212 170.367 42.8776 172.046 36.2433 171.999C29.6454 171.952 22.3383 170.197 12.6811 166.948L13.3189 165.052C22.927 168.285 29.9878 169.955 36.2575 169.999C42.4908 170.043 48.0145 168.481 54.5413 165.111L55.4587 166.889Z" fill="black"/>
<path d="M143.82 318.057H140.123V321.08H144.418V322H138.998V313.469H144.359V314.395H140.123V317.137H143.82V318.057ZM147.775 317.975L149.182 315.66H150.447L148.373 318.795L150.512 322H149.258L147.793 319.627L146.328 322H145.068L147.207 318.795L145.133 315.66H146.387L147.775 317.975ZM155.516 322C155.453 321.875 155.402 321.652 155.363 321.332C154.859 321.855 154.258 322.117 153.559 322.117C152.934 322.117 152.42 321.941 152.018 321.59C151.619 321.234 151.42 320.785 151.42 320.242C151.42 319.582 151.67 319.07 152.17 318.707C152.674 318.34 153.381 318.156 154.291 318.156H155.346V317.658C155.346 317.279 155.232 316.979 155.006 316.756C154.779 316.529 154.445 316.416 154.004 316.416C153.617 316.416 153.293 316.514 153.031 316.709C152.77 316.904 152.639 317.141 152.639 317.418H151.549C151.549 317.102 151.66 316.797 151.883 316.504C152.109 316.207 152.414 315.973 152.797 315.801C153.184 315.629 153.607 315.543 154.068 315.543C154.799 315.543 155.371 315.727 155.785 316.094C156.199 316.457 156.414 316.959 156.43 317.6V320.518C156.43 321.1 156.504 321.562 156.652 321.906V322H155.516ZM153.717 321.174C154.057 321.174 154.379 321.086 154.684 320.91C154.988 320.734 155.209 320.506 155.346 320.225V318.924H154.496C153.168 318.924 152.504 319.312 152.504 320.09C152.504 320.43 152.617 320.695 152.844 320.887C153.07 321.078 153.361 321.174 153.717 321.174ZM159.148 315.66L159.178 316.363C159.643 315.816 160.27 315.543 161.059 315.543C161.945 315.543 162.549 315.883 162.869 316.562C163.08 316.258 163.354 316.012 163.689 315.824C164.029 315.637 164.43 315.543 164.891 315.543C166.281 315.543 166.988 316.279 167.012 317.752V322H165.928V317.816C165.928 317.363 165.824 317.025 165.617 316.803C165.41 316.576 165.062 316.463 164.574 316.463C164.172 316.463 163.838 316.584 163.572 316.826C163.307 317.064 163.152 317.387 163.109 317.793V322H162.02V317.846C162.02 316.924 161.568 316.463 160.666 316.463C159.955 316.463 159.469 316.766 159.207 317.371V322H158.123V315.66H159.148ZM174.008 318.9C174.008 319.865 173.787 320.643 173.346 321.232C172.904 321.822 172.307 322.117 171.553 322.117C170.783 322.117 170.178 321.873 169.736 321.385V324.438H168.652V315.66H169.643L169.695 316.363C170.137 315.816 170.75 315.543 171.535 315.543C172.297 315.543 172.898 315.83 173.34 316.404C173.785 316.979 174.008 317.777 174.008 318.801V318.9ZM172.924 318.777C172.924 318.062 172.771 317.498 172.467 317.084C172.162 316.67 171.744 316.463 171.213 316.463C170.557 316.463 170.064 316.754 169.736 317.336V320.365C170.061 320.943 170.557 321.232 171.225 321.232C171.744 321.232 172.156 321.027 172.461 320.617C172.77 320.203 172.924 319.59 172.924 318.777ZM176.568 322H175.484V313H176.568V322ZM180.939 322.117C180.08 322.117 179.381 321.836 178.842 321.273C178.303 320.707 178.033 319.951 178.033 319.006V318.807C178.033 318.178 178.152 317.617 178.391 317.125C178.633 316.629 178.969 316.242 179.398 315.965C179.832 315.684 180.301 315.543 180.805 315.543C181.629 315.543 182.27 315.814 182.727 316.357C183.184 316.9 183.412 317.678 183.412 318.689V319.141H179.117C179.133 319.766 179.314 320.271 179.662 320.658C180.014 321.041 180.459 321.232 180.998 321.232C181.381 321.232 181.705 321.154 181.971 320.998C182.236 320.842 182.469 320.635 182.668 320.377L183.33 320.893C182.799 321.709 182.002 322.117 180.939 322.117ZM180.805 316.434C180.367 316.434 180 316.594 179.703 316.914C179.406 317.23 179.223 317.676 179.152 318.25H182.328V318.168C182.297 317.617 182.148 317.191 181.883 316.891C181.617 316.586 181.258 316.434 180.805 316.434ZM184.637 321.432C184.637 321.244 184.691 321.088 184.801 320.963C184.914 320.838 185.082 320.775 185.305 320.775C185.527 320.775 185.695 320.838 185.809 320.963C185.926 321.088 185.984 321.244 185.984 321.432C185.984 321.611 185.926 321.762 185.809 321.883C185.695 322.004 185.527 322.064 185.305 322.064C185.082 322.064 184.914 322.004 184.801 321.883C184.691 321.762 184.637 321.611 184.637 321.432ZM184.643 316.258C184.643 316.07 184.697 315.914 184.807 315.789C184.92 315.664 185.088 315.602 185.311 315.602C185.533 315.602 185.701 315.664 185.814 315.789C185.932 315.914 185.99 316.07 185.99 316.258C185.99 316.438 185.932 316.588 185.814 316.709C185.701 316.83 185.533 316.891 185.311 316.891C185.088 316.891 184.92 316.83 184.807 316.709C184.697 316.588 184.643 316.438 184.643 316.258ZM196.385 314.395H193.643V322H192.523V314.395H189.787V313.469H196.385V314.395ZM198.564 316.428C199.045 315.838 199.67 315.543 200.439 315.543C201.779 315.543 202.455 316.299 202.467 317.811V322H201.383V317.805C201.379 317.348 201.273 317.01 201.066 316.791C200.863 316.572 200.545 316.463 200.111 316.463C199.76 316.463 199.451 316.557 199.186 316.744C198.92 316.932 198.713 317.178 198.564 317.482V322H197.48V313H198.564V316.428ZM205.268 322H204.184V315.66H205.268V322ZM204.096 313.979C204.096 313.803 204.148 313.654 204.254 313.533C204.363 313.412 204.523 313.352 204.734 313.352C204.945 313.352 205.105 313.412 205.215 313.533C205.324 313.654 205.379 313.803 205.379 313.979C205.379 314.154 205.324 314.301 205.215 314.418C205.105 314.535 204.945 314.594 204.734 314.594C204.523 314.594 204.363 314.535 204.254 314.418C204.148 314.301 204.096 314.154 204.096 313.979ZM210.699 320.318C210.699 320.025 210.588 319.799 210.365 319.639C210.146 319.475 209.762 319.334 209.211 319.217C208.664 319.1 208.229 318.959 207.904 318.795C207.584 318.631 207.346 318.436 207.189 318.209C207.037 317.982 206.961 317.713 206.961 317.4C206.961 316.881 207.18 316.441 207.617 316.082C208.059 315.723 208.621 315.543 209.305 315.543C210.023 315.543 210.605 315.729 211.051 316.1C211.5 316.471 211.725 316.945 211.725 317.523H210.635C210.635 317.227 210.508 316.971 210.254 316.756C210.004 316.541 209.688 316.434 209.305 316.434C208.91 316.434 208.602 316.52 208.379 316.691C208.156 316.863 208.045 317.088 208.045 317.365C208.045 317.627 208.148 317.824 208.355 317.957C208.562 318.09 208.936 318.217 209.475 318.338C210.018 318.459 210.457 318.604 210.793 318.771C211.129 318.939 211.377 319.143 211.537 319.381C211.701 319.615 211.783 319.902 211.783 320.242C211.783 320.809 211.557 321.264 211.104 321.607C210.65 321.947 210.062 322.117 209.34 322.117C208.832 322.117 208.383 322.027 207.992 321.848C207.602 321.668 207.295 321.418 207.072 321.098C206.854 320.773 206.744 320.424 206.744 320.049H207.828C207.848 320.412 207.992 320.701 208.262 320.916C208.535 321.127 208.895 321.232 209.34 321.232C209.75 321.232 210.078 321.15 210.324 320.986C210.574 320.818 210.699 320.596 210.699 320.318ZM217.35 322H216.266V315.66H217.35V322ZM216.178 313.979C216.178 313.803 216.23 313.654 216.336 313.533C216.445 313.412 216.605 313.352 216.816 313.352C217.027 313.352 217.188 313.412 217.297 313.533C217.406 313.654 217.461 313.803 217.461 313.979C217.461 314.154 217.406 314.301 217.297 314.418C217.188 314.535 217.027 314.594 216.816 314.594C216.605 314.594 216.445 314.535 216.336 314.418C216.23 314.301 216.178 314.154 216.178 313.979ZM222.781 320.318C222.781 320.025 222.67 319.799 222.447 319.639C222.229 319.475 221.844 319.334 221.293 319.217C220.746 319.1 220.311 318.959 219.986 318.795C219.666 318.631 219.428 318.436 219.271 318.209C219.119 317.982 219.043 317.713 219.043 317.4C219.043 316.881 219.262 316.441 219.699 316.082C220.141 315.723 220.703 315.543 221.387 315.543C222.105 315.543 222.688 315.729 223.133 316.1C223.582 316.471 223.807 316.945 223.807 317.523H222.717C222.717 317.227 222.59 316.971 222.336 316.756C222.086 316.541 221.77 316.434 221.387 316.434C220.992 316.434 220.684 316.52 220.461 316.691C220.238 316.863 220.127 317.088 220.127 317.365C220.127 317.627 220.23 317.824 220.438 317.957C220.645 318.09 221.018 318.217 221.557 318.338C222.1 318.459 222.539 318.604 222.875 318.771C223.211 318.939 223.459 319.143 223.619 319.381C223.783 319.615 223.865 319.902 223.865 320.242C223.865 320.809 223.639 321.264 223.186 321.607C222.732 321.947 222.145 322.117 221.422 322.117C220.914 322.117 220.465 322.027 220.074 321.848C219.684 321.668 219.377 321.418 219.154 321.098C218.936 320.773 218.826 320.424 218.826 320.049H219.91C219.93 320.412 220.074 320.701 220.344 320.916C220.617 321.127 220.977 321.232 221.422 321.232C221.832 321.232 222.16 321.15 222.406 320.986C222.656 320.818 222.781 320.596 222.781 320.318ZM232.168 322C232.105 321.875 232.055 321.652 232.016 321.332C231.512 321.855 230.91 322.117 230.211 322.117C229.586 322.117 229.072 321.941 228.67 321.59C228.271 321.234 228.072 320.785 228.072 320.242C228.072 319.582 228.322 319.07 228.822 318.707C229.326 318.34 230.033 318.156 230.943 318.156H231.998V317.658C231.998 317.279 231.885 316.979 231.658 316.756C231.432 316.529 231.098 316.416 230.656 316.416C230.27 316.416 229.945 316.514 229.684 316.709C229.422 316.904 229.291 317.141 229.291 317.418H228.201C228.201 317.102 228.312 316.797 228.535 316.504C228.762 316.207 229.066 315.973 229.449 315.801C229.836 315.629 230.26 315.543 230.721 315.543C231.451 315.543 232.023 315.727 232.438 316.094C232.852 316.457 233.066 316.959 233.082 317.6V320.518C233.082 321.1 233.156 321.562 233.305 321.906V322H232.168ZM230.369 321.174C230.709 321.174 231.031 321.086 231.336 320.91C231.641 320.734 231.861 320.506 231.998 320.225V318.924H231.148C229.82 318.924 229.156 319.312 229.156 320.09C229.156 320.43 229.27 320.695 229.496 320.887C229.723 321.078 230.014 321.174 230.369 321.174ZM240.822 316.633C240.658 316.605 240.48 316.592 240.289 316.592C239.578 316.592 239.096 316.895 238.842 317.5V322H237.758V315.66H238.812L238.83 316.393C239.186 315.826 239.689 315.543 240.342 315.543C240.553 315.543 240.713 315.57 240.822 315.625V316.633ZM244.338 322.117C243.479 322.117 242.779 321.836 242.24 321.273C241.701 320.707 241.432 319.951 241.432 319.006V318.807C241.432 318.178 241.551 317.617 241.789 317.125C242.031 316.629 242.367 316.242 242.797 315.965C243.23 315.684 243.699 315.543 244.203 315.543C245.027 315.543 245.668 315.814 246.125 316.357C246.582 316.9 246.811 317.678 246.811 318.689V319.141H242.516C242.531 319.766 242.713 320.271 243.061 320.658C243.412 321.041 243.857 321.232 244.396 321.232C244.779 321.232 245.104 321.154 245.369 320.998C245.635 320.842 245.867 320.635 246.066 320.377L246.729 320.893C246.197 321.709 245.4 322.117 244.338 322.117ZM244.203 316.434C243.766 316.434 243.398 316.594 243.102 316.914C242.805 317.23 242.621 317.676 242.551 318.25H245.727V318.168C245.695 317.617 245.547 317.191 245.281 316.891C245.016 316.586 244.656 316.434 244.203 316.434ZM250.326 318.818H247.467V317.934H250.326V318.818ZM253.93 321.232C254.316 321.232 254.654 321.115 254.943 320.881C255.232 320.646 255.393 320.354 255.424 320.002H256.449C256.43 320.365 256.305 320.711 256.074 321.039C255.844 321.367 255.535 321.629 255.148 321.824C254.766 322.02 254.359 322.117 253.93 322.117C253.066 322.117 252.379 321.83 251.867 321.256C251.359 320.678 251.105 319.889 251.105 318.889V318.707C251.105 318.09 251.219 317.541 251.445 317.061C251.672 316.58 251.996 316.207 252.418 315.941C252.844 315.676 253.346 315.543 253.924 315.543C254.635 315.543 255.225 315.756 255.693 316.182C256.166 316.607 256.418 317.16 256.449 317.84H255.424C255.393 317.43 255.236 317.094 254.955 316.832C254.678 316.566 254.334 316.434 253.924 316.434C253.373 316.434 252.945 316.633 252.641 317.031C252.34 317.426 252.189 317.998 252.189 318.748V318.953C252.189 319.684 252.34 320.246 252.641 320.641C252.941 321.035 253.371 321.232 253.93 321.232ZM260.732 316.633C260.568 316.605 260.391 316.592 260.199 316.592C259.488 316.592 259.006 316.895 258.752 317.5V322H257.668V315.66H258.723L258.74 316.393C259.096 315.826 259.6 315.543 260.252 315.543C260.463 315.543 260.623 315.57 260.732 315.625V316.633ZM264.248 322.117C263.389 322.117 262.689 321.836 262.15 321.273C261.611 320.707 261.342 319.951 261.342 319.006V318.807C261.342 318.178 261.461 317.617 261.699 317.125C261.941 316.629 262.277 316.242 262.707 315.965C263.141 315.684 263.609 315.543 264.113 315.543C264.938 315.543 265.578 315.814 266.035 316.357C266.492 316.9 266.721 317.678 266.721 318.689V319.141H262.426C262.441 319.766 262.623 320.271 262.971 320.658C263.322 321.041 263.768 321.232 264.307 321.232C264.689 321.232 265.014 321.154 265.279 320.998C265.545 320.842 265.777 320.635 265.977 320.377L266.639 320.893C266.107 321.709 265.311 322.117 264.248 322.117ZM264.113 316.434C263.676 316.434 263.309 316.594 263.012 316.914C262.715 317.23 262.531 317.676 262.461 318.25H265.637V318.168C265.605 317.617 265.457 317.191 265.191 316.891C264.926 316.586 264.566 316.434 264.113 316.434ZM271.895 322C271.832 321.875 271.781 321.652 271.742 321.332C271.238 321.855 270.637 322.117 269.938 322.117C269.312 322.117 268.799 321.941 268.396 321.59C267.998 321.234 267.799 320.785 267.799 320.242C267.799 319.582 268.049 319.07 268.549 318.707C269.053 318.34 269.76 318.156 270.67 318.156H271.725V317.658C271.725 317.279 271.611 316.979 271.385 316.756C271.158 316.529 270.824 316.416 270.383 316.416C269.996 316.416 269.672 316.514 269.41 316.709C269.148 316.904 269.018 317.141 269.018 317.418H267.928C267.928 317.102 268.039 316.797 268.262 316.504C268.488 316.207 268.793 315.973 269.176 315.801C269.562 315.629 269.986 315.543 270.447 315.543C271.178 315.543 271.75 315.727 272.164 316.094C272.578 316.457 272.793 316.959 272.809 317.6V320.518C272.809 321.1 272.883 321.562 273.031 321.906V322H271.895ZM270.096 321.174C270.436 321.174 270.758 321.086 271.062 320.91C271.367 320.734 271.588 320.506 271.725 320.225V318.924H270.875C269.547 318.924 268.883 319.312 268.883 320.09C268.883 320.43 268.996 320.695 269.223 320.887C269.449 321.078 269.74 321.174 270.096 321.174ZM275.979 314.125V315.66H277.162V316.498H275.979V320.43C275.979 320.684 276.031 320.875 276.137 321.004C276.242 321.129 276.422 321.191 276.676 321.191C276.801 321.191 276.973 321.168 277.191 321.121V322C276.906 322.078 276.629 322.117 276.359 322.117C275.875 322.117 275.51 321.971 275.264 321.678C275.018 321.385 274.895 320.969 274.895 320.43V316.498H273.74V315.66H274.895V314.125H275.979ZM279.611 322H278.527V315.66H279.611V322ZM278.439 313.979C278.439 313.803 278.492 313.654 278.598 313.533C278.707 313.412 278.867 313.352 279.078 313.352C279.289 313.352 279.449 313.412 279.559 313.533C279.668 313.654 279.723 313.803 279.723 313.979C279.723 314.154 279.668 314.301 279.559 314.418C279.449 314.535 279.289 314.594 279.078 314.594C278.867 314.594 278.707 314.535 278.598 314.418C278.492 314.301 278.439 314.154 278.439 313.979ZM281.064 318.771C281.064 318.15 281.186 317.592 281.428 317.096C281.674 316.6 282.014 316.217 282.447 315.947C282.885 315.678 283.383 315.543 283.941 315.543C284.805 315.543 285.502 315.842 286.033 316.439C286.568 317.037 286.836 317.832 286.836 318.824V318.9C286.836 319.518 286.717 320.072 286.479 320.564C286.244 321.053 285.906 321.434 285.465 321.707C285.027 321.98 284.523 322.117 283.953 322.117C283.094 322.117 282.396 321.818 281.861 321.221C281.33 320.623 281.064 319.832 281.064 318.848V318.771ZM282.154 318.9C282.154 319.604 282.316 320.168 282.641 320.594C282.969 321.02 283.406 321.232 283.953 321.232C284.504 321.232 284.941 321.018 285.266 320.588C285.59 320.154 285.752 319.549 285.752 318.771C285.752 318.076 285.586 317.514 285.254 317.084C284.926 316.65 284.488 316.434 283.941 316.434C283.406 316.434 282.975 316.646 282.646 317.072C282.318 317.498 282.154 318.107 282.154 318.9ZM289.221 315.66L289.256 316.457C289.74 315.848 290.373 315.543 291.154 315.543C292.494 315.543 293.17 316.299 293.182 317.811V322H292.098V317.805C292.094 317.348 291.988 317.01 291.781 316.791C291.578 316.572 291.26 316.463 290.826 316.463C290.475 316.463 290.166 316.557 289.9 316.744C289.635 316.932 289.428 317.178 289.279 317.482V322H288.195V315.66H289.221ZM297.506 318.771C297.506 318.15 297.627 317.592 297.869 317.096C298.115 316.6 298.455 316.217 298.889 315.947C299.326 315.678 299.824 315.543 300.383 315.543C301.246 315.543 301.943 315.842 302.475 316.439C303.01 317.037 303.277 317.832 303.277 318.824V318.9C303.277 319.518 303.158 320.072 302.92 320.564C302.686 321.053 302.348 321.434 301.906 321.707C301.469 321.98 300.965 322.117 300.395 322.117C299.535 322.117 298.838 321.818 298.303 321.221C297.771 320.623 297.506 319.832 297.506 318.848V318.771ZM298.596 318.9C298.596 319.604 298.758 320.168 299.082 320.594C299.41 321.02 299.848 321.232 300.395 321.232C300.945 321.232 301.383 321.018 301.707 320.588C302.031 320.154 302.193 319.549 302.193 318.771C302.193 318.076 302.027 317.514 301.695 317.084C301.367 316.65 300.93 316.434 300.383 316.434C299.848 316.434 299.416 316.646 299.088 317.072C298.76 317.498 298.596 318.107 298.596 318.9ZM305.17 322V316.498H304.168V315.66H305.17V315.01C305.17 314.33 305.352 313.805 305.715 313.434C306.078 313.062 306.592 312.877 307.256 312.877C307.506 312.877 307.754 312.91 308 312.977L307.941 313.855C307.758 313.82 307.562 313.803 307.355 313.803C307.004 313.803 306.732 313.906 306.541 314.113C306.35 314.316 306.254 314.609 306.254 314.992V315.66H307.607V316.498H306.254V322H305.17ZM315.699 322C315.637 321.875 315.586 321.652 315.547 321.332C315.043 321.855 314.441 322.117 313.742 322.117C313.117 322.117 312.604 321.941 312.201 321.59C311.803 321.234 311.604 320.785 311.604 320.242C311.604 319.582 311.854 319.07 312.354 318.707C312.857 318.34 313.564 318.156 314.475 318.156H315.529V317.658C315.529 317.279 315.416 316.979 315.189 316.756C314.963 316.529 314.629 316.416 314.188 316.416C313.801 316.416 313.477 316.514 313.215 316.709C312.953 316.904 312.822 317.141 312.822 317.418H311.732C311.732 317.102 311.844 316.797 312.066 316.504C312.293 316.207 312.598 315.973 312.98 315.801C313.367 315.629 313.791 315.543 314.252 315.543C314.982 315.543 315.555 315.727 315.969 316.094C316.383 316.457 316.598 316.959 316.613 317.6V320.518C316.613 321.1 316.688 321.562 316.836 321.906V322H315.699ZM313.9 321.174C314.24 321.174 314.562 321.086 314.867 320.91C315.172 320.734 315.393 320.506 315.529 320.225V318.924H314.68C313.352 318.924 312.688 319.312 312.688 320.09C312.688 320.43 312.801 320.695 313.027 320.887C313.254 321.078 313.545 321.174 313.9 321.174ZM319.338 315.66L319.373 316.457C319.857 315.848 320.49 315.543 321.271 315.543C322.611 315.543 323.287 316.299 323.299 317.811V322H322.215V317.805C322.211 317.348 322.105 317.01 321.898 316.791C321.695 316.572 321.377 316.463 320.943 316.463C320.592 316.463 320.283 316.557 320.018 316.744C319.752 316.932 319.545 317.178 319.396 317.482V322H318.312V315.66H319.338ZM330.541 322.117C329.682 322.117 328.982 321.836 328.443 321.273C327.904 320.707 327.635 319.951 327.635 319.006V318.807C327.635 318.178 327.754 317.617 327.992 317.125C328.234 316.629 328.57 316.242 329 315.965C329.434 315.684 329.902 315.543 330.406 315.543C331.23 315.543 331.871 315.814 332.328 316.357C332.785 316.9 333.014 317.678 333.014 318.689V319.141H328.719C328.734 319.766 328.916 320.271 329.264 320.658C329.615 321.041 330.061 321.232 330.6 321.232C330.982 321.232 331.307 321.154 331.572 320.998C331.838 320.842 332.07 320.635 332.27 320.377L332.932 320.893C332.4 321.709 331.604 322.117 330.541 322.117ZM330.406 316.434C329.969 316.434 329.602 316.594 329.305 316.914C329.008 317.23 328.824 317.676 328.754 318.25H331.93V318.168C331.898 317.617 331.75 317.191 331.484 316.891C331.219 316.586 330.859 316.434 330.406 316.434ZM336.4 317.975L337.807 315.66H339.072L336.998 318.795L339.137 322H337.883L336.418 319.627L334.953 322H333.693L335.832 318.795L333.758 315.66H335.012L336.4 317.975ZM344.141 322C344.078 321.875 344.027 321.652 343.988 321.332C343.484 321.855 342.883 322.117 342.184 322.117C341.559 322.117 341.045 321.941 340.643 321.59C340.244 321.234 340.045 320.785 340.045 320.242C340.045 319.582 340.295 319.07 340.795 318.707C341.299 318.34 342.006 318.156 342.916 318.156H343.971V317.658C343.971 317.279 343.857 316.979 343.631 316.756C343.404 316.529 343.07 316.416 342.629 316.416C342.242 316.416 341.918 316.514 341.656 316.709C341.395 316.904 341.264 317.141 341.264 317.418H340.174C340.174 317.102 340.285 316.797 340.508 316.504C340.734 316.207 341.039 315.973 341.422 315.801C341.809 315.629 342.232 315.543 342.693 315.543C343.424 315.543 343.996 315.727 344.41 316.094C344.824 316.457 345.039 316.959 345.055 317.6V320.518C345.055 321.1 345.129 321.562 345.277 321.906V322H344.141ZM342.342 321.174C342.682 321.174 343.004 321.086 343.309 320.91C343.613 320.734 343.834 320.506 343.971 320.225V318.924H343.121C341.793 318.924 341.129 319.312 341.129 320.09C341.129 320.43 341.242 320.695 341.469 320.887C341.695 321.078 341.986 321.174 342.342 321.174ZM347.773 315.66L347.803 316.363C348.268 315.816 348.895 315.543 349.684 315.543C350.57 315.543 351.174 315.883 351.494 316.562C351.705 316.258 351.979 316.012 352.314 315.824C352.654 315.637 353.055 315.543 353.516 315.543C354.906 315.543 355.613 316.279 355.637 317.752V322H354.553V317.816C354.553 317.363 354.449 317.025 354.242 316.803C354.035 316.576 353.688 316.463 353.199 316.463C352.797 316.463 352.463 316.584 352.197 316.826C351.932 317.064 351.777 317.387 351.734 317.793V322H350.645V317.846C350.645 316.924 350.193 316.463 349.291 316.463C348.58 316.463 348.094 316.766 347.832 317.371V322H346.748V315.66H347.773ZM362.633 318.9C362.633 319.865 362.412 320.643 361.971 321.232C361.529 321.822 360.932 322.117 360.178 322.117C359.408 322.117 358.803 321.873 358.361 321.385V324.438H357.277V315.66H358.268L358.32 316.363C358.762 315.816 359.375 315.543 360.16 315.543C360.922 315.543 361.523 315.83 361.965 316.404C362.41 316.979 362.633 317.777 362.633 318.801V318.9ZM361.549 318.777C361.549 318.062 361.396 317.498 361.092 317.084C360.787 316.67 360.369 316.463 359.838 316.463C359.182 316.463 358.689 316.754 358.361 317.336V320.365C358.686 320.943 359.182 321.232 359.85 321.232C360.369 321.232 360.781 321.027 361.086 320.617C361.395 320.203 361.549 319.59 361.549 318.777ZM365.193 322H364.109V313H365.193V322ZM369.564 322.117C368.705 322.117 368.006 321.836 367.467 321.273C366.928 320.707 366.658 319.951 366.658 319.006V318.807C366.658 318.178 366.777 317.617 367.016 317.125C367.258 316.629 367.594 316.242 368.023 315.965C368.457 315.684 368.926 315.543 369.43 315.543C370.254 315.543 370.895 315.814 371.352 316.357C371.809 316.9 372.037 317.678 372.037 318.689V319.141H367.742C367.758 319.766 367.939 320.271 368.287 320.658C368.639 321.041 369.084 321.232 369.623 321.232C370.006 321.232 370.33 321.154 370.596 320.998C370.861 320.842 371.094 320.635 371.293 320.377L371.955 320.893C371.424 321.709 370.627 322.117 369.564 322.117ZM369.43 316.434C368.992 316.434 368.625 316.594 368.328 316.914C368.031 317.23 367.848 317.676 367.777 318.25H370.953V318.168C370.922 317.617 370.773 317.191 370.508 316.891C370.242 316.586 369.883 316.434 369.43 316.434ZM377.451 322H376.367V315.66H377.451V322ZM376.279 313.979C376.279 313.803 376.332 313.654 376.438 313.533C376.547 313.412 376.707 313.352 376.918 313.352C377.129 313.352 377.289 313.412 377.398 313.533C377.508 313.654 377.562 313.803 377.562 313.979C377.562 314.154 377.508 314.301 377.398 314.418C377.289 314.535 377.129 314.594 376.918 314.594C376.707 314.594 376.547 314.535 376.438 314.418C376.332 314.301 376.279 314.154 376.279 313.979ZM380.217 315.66L380.252 316.457C380.736 315.848 381.369 315.543 382.15 315.543C383.49 315.543 384.166 316.299 384.178 317.811V322H383.094V317.805C383.09 317.348 382.984 317.01 382.777 316.791C382.574 316.572 382.256 316.463 381.822 316.463C381.471 316.463 381.162 316.557 380.896 316.744C380.631 316.932 380.424 317.178 380.275 317.482V322H379.191V315.66H380.217ZM65.1816 330.428C65.6621 329.838 66.2871 329.543 67.0566 329.543C68.3965 329.543 69.0723 330.299 69.084 331.811V336H68V331.805C67.9961 331.348 67.8906 331.01 67.6836 330.791C67.4805 330.572 67.1621 330.463 66.7285 330.463C66.377 330.463 66.0684 330.557 65.8027 330.744C65.5371 330.932 65.3301 331.178 65.1816 331.482V336H64.0977V327H65.1816V330.428ZM72.1777 328.125V329.66H73.3613V330.498H72.1777V334.43C72.1777 334.684 72.2305 334.875 72.3359 335.004C72.4414 335.129 72.6211 335.191 72.875 335.191C73 335.191 73.1719 335.168 73.3906 335.121V336C73.1055 336.078 72.8281 336.117 72.5586 336.117C72.0742 336.117 71.709 335.971 71.4629 335.678C71.2168 335.385 71.0938 334.969 71.0938 334.43V330.498H69.9395V329.66H71.0938V328.125H72.1777ZM76.1035 328.125V329.66H77.2871V330.498H76.1035V334.43C76.1035 334.684 76.1562 334.875 76.2617 335.004C76.3672 335.129 76.5469 335.191 76.8008 335.191C76.9258 335.191 77.0977 335.168 77.3164 335.121V336C77.0312 336.078 76.7539 336.117 76.4844 336.117C76 336.117 75.6348 335.971 75.3887 335.678C75.1426 335.385 75.0195 334.969 75.0195 334.43V330.498H73.8652V329.66H75.0195V328.125H76.1035ZM83.9141 332.9C83.9141 333.865 83.6934 334.643 83.252 335.232C82.8105 335.822 82.2129 336.117 81.459 336.117C80.6895 336.117 80.084 335.873 79.6426 335.385V338.438H78.5586V329.66H79.5488L79.6016 330.363C80.043 329.816 80.6562 329.543 81.4414 329.543C82.2031 329.543 82.8047 329.83 83.2461 330.404C83.6914 330.979 83.9141 331.777 83.9141 332.801V332.9ZM82.8301 332.777C82.8301 332.062 82.6777 331.498 82.373 331.084C82.0684 330.67 81.6504 330.463 81.1191 330.463C80.4629 330.463 79.9707 330.754 79.6426 331.336V334.365C79.9668 334.943 80.4629 335.232 81.1309 335.232C81.6504 335.232 82.0625 335.027 82.3672 334.617C82.6758 334.203 82.8301 333.59 82.8301 332.777ZM85.2617 335.432C85.2617 335.244 85.3164 335.088 85.4258 334.963C85.5391 334.838 85.707 334.775 85.9297 334.775C86.1523 334.775 86.3203 334.838 86.4336 334.963C86.5508 335.088 86.6094 335.244 86.6094 335.432C86.6094 335.611 86.5508 335.762 86.4336 335.883C86.3203 336.004 86.1523 336.064 85.9297 336.064C85.707 336.064 85.5391 336.004 85.4258 335.883C85.3164 335.762 85.2617 335.611 85.2617 335.432ZM85.2676 330.258C85.2676 330.07 85.3223 329.914 85.4316 329.789C85.5449 329.664 85.7129 329.602 85.9355 329.602C86.1582 329.602 86.3262 329.664 86.4395 329.789C86.5566 329.914 86.6152 330.07 86.6152 330.258C86.6152 330.438 86.5566 330.588 86.4395 330.709C86.3262 330.83 86.1582 330.891 85.9355 330.891C85.7129 330.891 85.5449 330.83 85.4316 330.709C85.3223 330.588 85.2676 330.438 85.2676 330.258ZM88.4199 336.732H87.4883L91.0508 327.469H91.9766L88.4199 336.732ZM92.0527 336.732H91.1211L94.6836 327.469H95.6094L92.0527 336.732ZM102.395 334.506L103.613 329.66H104.697L102.852 336H101.973L100.432 331.195L98.9316 336H98.0527L96.2129 329.66H97.291L98.5391 334.406L100.016 329.66H100.889L102.395 334.506ZM111.418 334.506L112.637 329.66H113.721L111.875 336H110.996L109.455 331.195L107.955 336H107.076L105.236 329.66H106.314L107.562 334.406L109.039 329.66H109.912L111.418 334.506ZM120.441 334.506L121.66 329.66H122.744L120.898 336H120.02L118.479 331.195L116.979 336H116.1L114.26 329.66H115.338L116.586 334.406L118.062 329.66H118.936L120.441 334.506ZM123.148 335.432C123.148 335.244 123.203 335.088 123.312 334.963C123.426 334.838 123.594 334.775 123.816 334.775C124.039 334.775 124.207 334.838 124.32 334.963C124.438 335.088 124.496 335.244 124.496 335.432C124.496 335.611 124.438 335.762 124.32 335.883C124.207 336.004 124.039 336.064 123.816 336.064C123.594 336.064 123.426 336.004 123.312 335.883C123.203 335.762 123.148 335.611 123.148 335.432ZM131.902 334.506L133.121 329.66H134.205L132.359 336H131.48L129.939 331.195L128.439 336H127.561L125.721 329.66H126.799L128.047 334.406L129.523 329.66H130.396L131.902 334.506ZM136.49 336H135.406V329.66H136.49V336ZM135.318 327.979C135.318 327.803 135.371 327.654 135.477 327.533C135.586 327.412 135.746 327.352 135.957 327.352C136.168 327.352 136.328 327.412 136.438 327.533C136.547 327.654 136.602 327.803 136.602 327.979C136.602 328.154 136.547 328.301 136.438 328.418C136.328 328.535 136.168 328.594 135.957 328.594C135.746 328.594 135.586 328.535 135.477 328.418C135.371 328.301 135.318 328.154 135.318 327.979ZM141.922 334.318C141.922 334.025 141.811 333.799 141.588 333.639C141.369 333.475 140.984 333.334 140.434 333.217C139.887 333.1 139.451 332.959 139.127 332.795C138.807 332.631 138.568 332.436 138.412 332.209C138.26 331.982 138.184 331.713 138.184 331.4C138.184 330.881 138.402 330.441 138.84 330.082C139.281 329.723 139.844 329.543 140.527 329.543C141.246 329.543 141.828 329.729 142.273 330.1C142.723 330.471 142.947 330.945 142.947 331.523H141.857C141.857 331.227 141.73 330.971 141.477 330.756C141.227 330.541 140.91 330.434 140.527 330.434C140.133 330.434 139.824 330.52 139.602 330.691C139.379 330.863 139.268 331.088 139.268 331.365C139.268 331.627 139.371 331.824 139.578 331.957C139.785 332.09 140.158 332.217 140.697 332.338C141.24 332.459 141.68 332.604 142.016 332.771C142.352 332.939 142.6 333.143 142.76 333.381C142.924 333.615 143.006 333.902 143.006 334.242C143.006 334.809 142.779 335.264 142.326 335.607C141.873 335.947 141.285 336.117 140.562 336.117C140.055 336.117 139.605 336.027 139.215 335.848C138.824 335.668 138.518 335.418 138.295 335.098C138.076 334.773 137.967 334.424 137.967 334.049H139.051C139.07 334.412 139.215 334.701 139.484 334.916C139.758 335.127 140.117 335.232 140.562 335.232C140.973 335.232 141.301 335.15 141.547 334.986C141.797 334.818 141.922 334.596 141.922 334.318ZM144.154 332.777C144.154 331.805 144.385 331.023 144.846 330.434C145.307 329.84 145.91 329.543 146.656 329.543C147.398 329.543 147.986 329.797 148.42 330.305V327H149.504V336H148.508L148.455 335.32C148.021 335.852 147.418 336.117 146.645 336.117C145.91 336.117 145.311 335.816 144.846 335.215C144.385 334.613 144.154 333.828 144.154 332.859V332.777ZM145.238 332.9C145.238 333.619 145.387 334.182 145.684 334.588C145.98 334.994 146.391 335.197 146.914 335.197C147.602 335.197 148.104 334.889 148.42 334.271V331.359C148.096 330.762 147.598 330.463 146.926 330.463C146.395 330.463 145.98 330.668 145.684 331.078C145.387 331.488 145.238 332.096 145.238 332.9ZM150.904 332.771C150.904 332.15 151.025 331.592 151.268 331.096C151.514 330.6 151.854 330.217 152.287 329.947C152.725 329.678 153.223 329.543 153.781 329.543C154.645 329.543 155.342 329.842 155.873 330.439C156.408 331.037 156.676 331.832 156.676 332.824V332.9C156.676 333.518 156.557 334.072 156.318 334.564C156.084 335.053 155.746 335.434 155.305 335.707C154.867 335.98 154.363 336.117 153.793 336.117C152.934 336.117 152.236 335.818 151.701 335.221C151.17 334.623 150.904 333.832 150.904 332.848V332.771ZM151.994 332.9C151.994 333.604 152.156 334.168 152.48 334.594C152.809 335.02 153.246 335.232 153.793 335.232C154.344 335.232 154.781 335.018 155.105 334.588C155.43 334.154 155.592 333.549 155.592 332.771C155.592 332.076 155.426 331.514 155.094 331.084C154.766 330.65 154.328 330.434 153.781 330.434C153.246 330.434 152.814 330.646 152.486 331.072C152.158 331.498 151.994 332.107 151.994 332.9ZM159.055 329.66L159.084 330.363C159.549 329.816 160.176 329.543 160.965 329.543C161.852 329.543 162.455 329.883 162.775 330.562C162.986 330.258 163.26 330.012 163.596 329.824C163.936 329.637 164.336 329.543 164.797 329.543C166.188 329.543 166.895 330.279 166.918 331.752V336H165.834V331.816C165.834 331.363 165.73 331.025 165.523 330.803C165.316 330.576 164.969 330.463 164.48 330.463C164.078 330.463 163.744 330.584 163.479 330.826C163.213 331.064 163.059 331.387 163.016 331.793V336H161.926V331.846C161.926 330.924 161.475 330.463 160.572 330.463C159.861 330.463 159.375 330.766 159.113 331.371V336H158.029V329.66H159.055ZM168.582 335.432C168.582 335.244 168.637 335.088 168.746 334.963C168.859 334.838 169.027 334.775 169.25 334.775C169.473 334.775 169.641 334.838 169.754 334.963C169.871 335.088 169.93 335.244 169.93 335.432C169.93 335.611 169.871 335.762 169.754 335.883C169.641 336.004 169.473 336.064 169.25 336.064C169.027 336.064 168.859 336.004 168.746 335.883C168.637 335.762 168.582 335.611 168.582 335.432ZM177.336 334.506L178.555 329.66H179.639L177.793 336H176.914L175.373 331.195L173.873 336H172.994L171.154 329.66H172.232L173.48 334.406L174.957 329.66H175.83L177.336 334.506ZM183.377 336.117C182.518 336.117 181.818 335.836 181.279 335.273C180.74 334.707 180.471 333.951 180.471 333.006V332.807C180.471 332.178 180.59 331.617 180.828 331.125C181.07 330.629 181.406 330.242 181.836 329.965C182.27 329.684 182.738 329.543 183.242 329.543C184.066 329.543 184.707 329.814 185.164 330.357C185.621 330.9 185.85 331.678 185.85 332.689V333.141H181.555C181.57 333.766 181.752 334.271 182.1 334.658C182.451 335.041 182.896 335.232 183.436 335.232C183.818 335.232 184.143 335.154 184.408 334.998C184.674 334.842 184.906 334.635 185.105 334.377L185.768 334.893C185.236 335.709 184.439 336.117 183.377 336.117ZM183.242 330.434C182.805 330.434 182.438 330.594 182.141 330.914C181.844 331.23 181.66 331.676 181.59 332.25H184.766V332.168C184.734 331.617 184.586 331.191 184.32 330.891C184.055 330.586 183.695 330.434 183.242 330.434ZM188.287 336H187.203V329.66H188.287V336ZM187.115 327.979C187.115 327.803 187.168 327.654 187.273 327.533C187.383 327.412 187.543 327.352 187.754 327.352C187.965 327.352 188.125 327.412 188.234 327.533C188.344 327.654 188.398 327.803 188.398 327.979C188.398 328.154 188.344 328.301 188.234 328.418C188.125 328.535 187.965 328.594 187.754 328.594C187.543 328.594 187.383 328.535 187.273 328.418C187.168 328.301 187.115 328.154 187.115 327.979ZM191.047 335.115H194.756V336H189.723V335.203L193.221 330.557H189.775V329.66H194.58V330.428L191.047 335.115ZM197 329.66L197.029 330.363C197.494 329.816 198.121 329.543 198.91 329.543C199.797 329.543 200.4 329.883 200.721 330.562C200.932 330.258 201.205 330.012 201.541 329.824C201.881 329.637 202.281 329.543 202.742 329.543C204.133 329.543 204.84 330.279 204.863 331.752V336H203.779V331.816C203.779 331.363 203.676 331.025 203.469 330.803C203.262 330.576 202.914 330.463 202.426 330.463C202.023 330.463 201.689 330.584 201.424 330.826C201.158 331.064 201.004 331.387 200.961 331.793V336H199.871V331.846C199.871 330.924 199.42 330.463 198.518 330.463C197.807 330.463 197.32 330.766 197.059 331.371V336H195.975V329.66H197ZM210.418 336C210.355 335.875 210.305 335.652 210.266 335.332C209.762 335.855 209.16 336.117 208.461 336.117C207.836 336.117 207.322 335.941 206.92 335.59C206.521 335.234 206.322 334.785 206.322 334.242C206.322 333.582 206.572 333.07 207.072 332.707C207.576 332.34 208.283 332.156 209.193 332.156H210.248V331.658C210.248 331.279 210.135 330.979 209.908 330.756C209.682 330.529 209.348 330.416 208.906 330.416C208.52 330.416 208.195 330.514 207.934 330.709C207.672 330.904 207.541 331.141 207.541 331.418H206.451C206.451 331.102 206.562 330.797 206.785 330.504C207.012 330.207 207.316 329.973 207.699 329.801C208.086 329.629 208.51 329.543 208.971 329.543C209.701 329.543 210.273 329.727 210.688 330.094C211.102 330.457 211.316 330.959 211.332 331.6V334.518C211.332 335.1 211.406 335.562 211.555 335.906V336H210.418ZM208.619 335.174C208.959 335.174 209.281 335.086 209.586 334.91C209.891 334.734 210.111 334.506 210.248 334.225V332.924H209.398C208.07 332.924 207.406 333.312 207.406 334.09C207.406 334.43 207.52 334.695 207.746 334.887C207.973 335.078 208.264 335.174 208.619 335.174ZM214.057 329.66L214.092 330.457C214.576 329.848 215.209 329.543 215.99 329.543C217.33 329.543 218.006 330.299 218.018 331.811V336H216.934V331.805C216.93 331.348 216.824 331.01 216.617 330.791C216.414 330.572 216.096 330.463 215.662 330.463C215.311 330.463 215.002 330.557 214.736 330.744C214.471 330.932 214.264 331.178 214.115 331.482V336H213.031V329.66H214.057ZM220.678 329.66L220.713 330.457C221.197 329.848 221.83 329.543 222.611 329.543C223.951 329.543 224.627 330.299 224.639 331.811V336H223.555V331.805C223.551 331.348 223.445 331.01 223.238 330.791C223.035 330.572 222.717 330.463 222.283 330.463C221.932 330.463 221.623 330.557 221.357 330.744C221.092 330.932 220.885 331.178 220.736 331.482V336H219.652V329.66H220.678ZM226.297 335.432C226.297 335.244 226.352 335.088 226.461 334.963C226.574 334.838 226.742 334.775 226.965 334.775C227.188 334.775 227.355 334.838 227.469 334.963C227.586 335.088 227.645 335.244 227.645 335.432C227.645 335.611 227.586 335.762 227.469 335.883C227.355 336.004 227.188 336.064 226.965 336.064C226.742 336.064 226.574 336.004 226.461 335.883C226.352 335.762 226.297 335.611 226.297 335.432ZM233.352 336C233.289 335.875 233.238 335.652 233.199 335.332C232.695 335.855 232.094 336.117 231.395 336.117C230.77 336.117 230.256 335.941 229.854 335.59C229.455 335.234 229.256 334.785 229.256 334.242C229.256 333.582 229.506 333.07 230.006 332.707C230.51 332.34 231.217 332.156 232.127 332.156H233.182V331.658C233.182 331.279 233.068 330.979 232.842 330.756C232.615 330.529 232.281 330.416 231.84 330.416C231.453 330.416 231.129 330.514 230.867 330.709C230.605 330.904 230.475 331.141 230.475 331.418H229.385C229.385 331.102 229.496 330.797 229.719 330.504C229.945 330.207 230.25 329.973 230.633 329.801C231.02 329.629 231.443 329.543 231.904 329.543C232.635 329.543 233.207 329.727 233.621 330.094C234.035 330.457 234.25 330.959 234.266 331.6V334.518C234.266 335.1 234.34 335.562 234.488 335.906V336H233.352ZM231.553 335.174C231.893 335.174 232.215 335.086 232.52 334.91C232.824 334.734 233.045 334.506 233.182 334.225V332.924H232.332C231.004 332.924 230.34 333.312 230.34 334.09C230.34 334.43 230.453 334.695 230.68 334.887C230.906 335.078 231.197 335.174 231.553 335.174ZM238.508 335.232C238.895 335.232 239.232 335.115 239.521 334.881C239.811 334.646 239.971 334.354 240.002 334.002H241.027C241.008 334.365 240.883 334.711 240.652 335.039C240.422 335.367 240.113 335.629 239.727 335.824C239.344 336.02 238.938 336.117 238.508 336.117C237.645 336.117 236.957 335.83 236.445 335.256C235.938 334.678 235.684 333.889 235.684 332.889V332.707C235.684 332.09 235.797 331.541 236.023 331.061C236.25 330.58 236.574 330.207 236.996 329.941C237.422 329.676 237.924 329.543 238.502 329.543C239.213 329.543 239.803 329.756 240.271 330.182C240.744 330.607 240.996 331.16 241.027 331.84H240.002C239.971 331.43 239.814 331.094 239.533 330.832C239.256 330.566 238.912 330.434 238.502 330.434C237.951 330.434 237.523 330.633 237.219 331.031C236.918 331.426 236.768 331.998 236.768 332.748V332.953C236.768 333.684 236.918 334.246 237.219 334.641C237.52 335.035 237.949 335.232 238.508 335.232ZM242.27 335.432C242.27 335.244 242.324 335.088 242.434 334.963C242.547 334.838 242.715 334.775 242.938 334.775C243.16 334.775 243.328 334.838 243.441 334.963C243.559 335.088 243.617 335.244 243.617 335.432C243.617 335.611 243.559 335.762 243.441 335.883C243.328 336.004 243.16 336.064 242.938 336.064C242.715 336.064 242.547 336.004 242.434 335.883C242.324 335.762 242.27 335.611 242.27 335.432ZM246.588 336H245.504V329.66H246.588V336ZM245.416 327.979C245.416 327.803 245.469 327.654 245.574 327.533C245.684 327.412 245.844 327.352 246.055 327.352C246.266 327.352 246.426 327.412 246.535 327.533C246.645 327.654 246.699 327.803 246.699 327.979C246.699 328.154 246.645 328.301 246.535 328.418C246.426 328.535 246.266 328.594 246.055 328.594C245.844 328.594 245.684 328.535 245.574 328.418C245.469 328.301 245.416 328.154 245.416 327.979ZM249.506 336H248.422V327H249.506V336ZM251.463 336.732H250.531L254.094 327.469H255.02L251.463 336.732ZM262.771 331.447C262.771 332.064 262.588 332.586 262.221 333.012C261.857 333.434 261.408 333.645 260.873 333.645C260.592 333.645 260.326 333.594 260.076 333.492C259.826 333.387 259.535 333.189 259.203 332.9C258.875 332.611 258.639 332.432 258.494 332.361C258.35 332.291 258.195 332.256 258.031 332.256C257.727 332.256 257.492 332.361 257.328 332.572C257.164 332.779 257.082 333.066 257.082 333.434L256.139 333.445C256.139 332.82 256.318 332.307 256.678 331.904C257.037 331.502 257.488 331.301 258.031 331.301C258.328 331.301 258.613 331.363 258.887 331.488C259.16 331.613 259.469 331.834 259.812 332.15C260.156 332.463 260.453 332.639 260.703 332.678L260.873 332.689C261.17 332.689 261.41 332.576 261.594 332.35C261.781 332.123 261.875 331.824 261.875 331.453L262.771 331.447ZM265.443 330.428C265.924 329.838 266.549 329.543 267.318 329.543C268.658 329.543 269.334 330.299 269.346 331.811V336H268.262V331.805C268.258 331.348 268.152 331.01 267.945 330.791C267.742 330.572 267.424 330.463 266.99 330.463C266.639 330.463 266.33 330.557 266.064 330.744C265.799 330.932 265.592 331.178 265.443 331.482V336H264.359V327H265.443V330.428ZM274.883 336C274.82 335.875 274.77 335.652 274.73 335.332C274.227 335.855 273.625 336.117 272.926 336.117C272.301 336.117 271.787 335.941 271.385 335.59C270.986 335.234 270.787 334.785 270.787 334.242C270.787 333.582 271.037 333.07 271.537 332.707C272.041 332.34 272.748 332.156 273.658 332.156H274.713V331.658C274.713 331.279 274.6 330.979 274.373 330.756C274.146 330.529 273.812 330.416 273.371 330.416C272.984 330.416 272.66 330.514 272.398 330.709C272.137 330.904 272.006 331.141 272.006 331.418H270.916C270.916 331.102 271.027 330.797 271.25 330.504C271.477 330.207 271.781 329.973 272.164 329.801C272.551 329.629 272.975 329.543 273.436 329.543C274.166 329.543 274.738 329.727 275.152 330.094C275.566 330.457 275.781 330.959 275.797 331.6V334.518C275.797 335.1 275.871 335.562 276.02 335.906V336H274.883ZM273.084 335.174C273.424 335.174 273.746 335.086 274.051 334.91C274.355 334.734 274.576 334.506 274.713 334.225V332.924H273.863C272.535 332.924 271.871 333.312 271.871 334.09C271.871 334.43 271.984 334.695 272.211 334.887C272.438 335.078 272.729 335.174 273.084 335.174ZM280.561 330.633C280.396 330.605 280.219 330.592 280.027 330.592C279.316 330.592 278.834 330.895 278.58 331.5V336H277.496V329.66H278.551L278.568 330.393C278.924 329.826 279.428 329.543 280.08 329.543C280.291 329.543 280.451 329.57 280.561 329.625V330.633ZM284.076 336.117C283.217 336.117 282.518 335.836 281.979 335.273C281.439 334.707 281.17 333.951 281.17 333.006V332.807C281.17 332.178 281.289 331.617 281.527 331.125C281.77 330.629 282.105 330.242 282.535 329.965C282.969 329.684 283.438 329.543 283.941 329.543C284.766 329.543 285.406 329.814 285.863 330.357C286.32 330.9 286.549 331.678 286.549 332.689V333.141H282.254C282.27 333.766 282.451 334.271 282.799 334.658C283.15 335.041 283.596 335.232 284.135 335.232C284.518 335.232 284.842 335.154 285.107 334.998C285.373 334.842 285.605 334.635 285.805 334.377L286.467 334.893C285.936 335.709 285.139 336.117 284.076 336.117ZM283.941 330.434C283.504 330.434 283.137 330.594 282.84 330.914C282.543 331.23 282.359 331.676 282.289 332.25H285.465V332.168C285.434 331.617 285.285 331.191 285.02 330.891C284.754 330.586 284.395 330.434 283.941 330.434ZM288.986 336H287.902V327H288.986V336ZM290.943 336.732H290.012L293.574 327.469H294.5L290.943 336.732ZM301.027 332.9C301.027 333.865 300.807 334.643 300.365 335.232C299.924 335.822 299.326 336.117 298.572 336.117C297.803 336.117 297.197 335.873 296.756 335.385V338.438H295.672V329.66H296.662L296.715 330.363C297.156 329.816 297.77 329.543 298.555 329.543C299.316 329.543 299.918 329.83 300.359 330.404C300.805 330.979 301.027 331.777 301.027 332.801V332.9ZM299.943 332.777C299.943 332.062 299.791 331.498 299.486 331.084C299.182 330.67 298.764 330.463 298.232 330.463C297.576 330.463 297.084 330.754 296.756 331.336V334.365C297.08 334.943 297.576 335.232 298.244 335.232C298.764 335.232 299.176 335.027 299.48 334.617C299.789 334.203 299.943 333.59 299.943 332.777ZM306.324 336C306.262 335.875 306.211 335.652 306.172 335.332C305.668 335.855 305.066 336.117 304.367 336.117C303.742 336.117 303.229 335.941 302.826 335.59C302.428 335.234 302.229 334.785 302.229 334.242C302.229 333.582 302.479 333.07 302.979 332.707C303.482 332.34 304.189 332.156 305.1 332.156H306.154V331.658C306.154 331.279 306.041 330.979 305.814 330.756C305.588 330.529 305.254 330.416 304.812 330.416C304.426 330.416 304.102 330.514 303.84 330.709C303.578 330.904 303.447 331.141 303.447 331.418H302.357C302.357 331.102 302.469 330.797 302.691 330.504C302.918 330.207 303.223 329.973 303.605 329.801C303.992 329.629 304.416 329.543 304.877 329.543C305.607 329.543 306.18 329.727 306.594 330.094C307.008 330.457 307.223 330.959 307.238 331.6V334.518C307.238 335.1 307.312 335.562 307.461 335.906V336H306.324ZM304.525 335.174C304.865 335.174 305.188 335.086 305.492 334.91C305.797 334.734 306.018 334.506 306.154 334.225V332.924H305.305C303.977 332.924 303.312 333.312 303.312 334.09C303.312 334.43 303.426 334.695 303.652 334.887C303.879 335.078 304.17 335.174 304.525 335.174ZM314.293 332.9C314.293 333.865 314.072 334.643 313.631 335.232C313.189 335.822 312.592 336.117 311.838 336.117C311.068 336.117 310.463 335.873 310.021 335.385V338.438H308.938V329.66H309.928L309.98 330.363C310.422 329.816 311.035 329.543 311.82 329.543C312.582 329.543 313.184 329.83 313.625 330.404C314.07 330.979 314.293 331.777 314.293 332.801V332.9ZM313.209 332.777C313.209 332.062 313.057 331.498 312.752 331.084C312.447 330.67 312.029 330.463 311.498 330.463C310.842 330.463 310.35 330.754 310.021 331.336V334.365C310.346 334.943 310.842 335.232 311.51 335.232C312.029 335.232 312.441 335.027 312.746 334.617C313.055 334.203 313.209 333.59 313.209 332.777ZM318.307 336.117C317.447 336.117 316.748 335.836 316.209 335.273C315.67 334.707 315.4 333.951 315.4 333.006V332.807C315.4 332.178 315.52 331.617 315.758 331.125C316 330.629 316.336 330.242 316.766 329.965C317.199 329.684 317.668 329.543 318.172 329.543C318.996 329.543 319.637 329.814 320.094 330.357C320.551 330.9 320.779 331.678 320.779 332.689V333.141H316.484C316.5 333.766 316.682 334.271 317.029 334.658C317.381 335.041 317.826 335.232 318.365 335.232C318.748 335.232 319.072 335.154 319.338 334.998C319.604 334.842 319.836 334.635 320.035 334.377L320.697 334.893C320.166 335.709 319.369 336.117 318.307 336.117ZM318.172 330.434C317.734 330.434 317.367 330.594 317.07 330.914C316.773 331.23 316.59 331.676 316.52 332.25H319.695V332.168C319.664 331.617 319.516 331.191 319.25 330.891C318.984 330.586 318.625 330.434 318.172 330.434ZM325.104 330.633C324.939 330.605 324.762 330.592 324.57 330.592C323.859 330.592 323.377 330.895 323.123 331.5V336H322.039V329.66H323.094L323.111 330.393C323.467 329.826 323.971 329.543 324.623 329.543C324.834 329.543 324.994 329.57 325.104 329.625V330.633ZM329.797 334.318C329.797 334.025 329.686 333.799 329.463 333.639C329.244 333.475 328.859 333.334 328.309 333.217C327.762 333.1 327.326 332.959 327.002 332.795C326.682 332.631 326.443 332.436 326.287 332.209C326.135 331.982 326.059 331.713 326.059 331.4C326.059 330.881 326.277 330.441 326.715 330.082C327.156 329.723 327.719 329.543 328.402 329.543C329.121 329.543 329.703 329.729 330.148 330.1C330.598 330.471 330.822 330.945 330.822 331.523H329.732C329.732 331.227 329.605 330.971 329.352 330.756C329.102 330.541 328.785 330.434 328.402 330.434C328.008 330.434 327.699 330.52 327.477 330.691C327.254 330.863 327.143 331.088 327.143 331.365C327.143 331.627 327.246 331.824 327.453 331.957C327.66 332.09 328.033 332.217 328.572 332.338C329.115 332.459 329.555 332.604 329.891 332.771C330.227 332.939 330.475 333.143 330.635 333.381C330.799 333.615 330.881 333.902 330.881 334.242C330.881 334.809 330.654 335.264 330.201 335.607C329.748 335.947 329.16 336.117 328.438 336.117C327.93 336.117 327.48 336.027 327.09 335.848C326.699 335.668 326.393 335.418 326.17 335.098C325.951 334.773 325.842 334.424 325.842 334.049H326.926C326.945 334.412 327.09 334.701 327.359 334.916C327.633 335.127 327.992 335.232 328.438 335.232C328.848 335.232 329.176 335.15 329.422 334.986C329.672 334.818 329.797 334.596 329.797 334.318ZM332.51 336.732H331.578L335.141 327.469H336.066L332.51 336.732ZM339.922 332.197C338.957 331.92 338.254 331.58 337.812 331.178C337.375 330.771 337.156 330.271 337.156 329.678C337.156 329.006 337.424 328.451 337.959 328.014C338.498 327.572 339.197 327.352 340.057 327.352C340.643 327.352 341.164 327.465 341.621 327.691C342.082 327.918 342.438 328.23 342.688 328.629C342.941 329.027 343.068 329.463 343.068 329.936H341.938C341.938 329.42 341.773 329.016 341.445 328.723C341.117 328.426 340.654 328.277 340.057 328.277C339.502 328.277 339.068 328.4 338.756 328.646C338.447 328.889 338.293 329.227 338.293 329.66C338.293 330.008 338.439 330.303 338.732 330.545C339.029 330.783 339.531 331.002 340.238 331.201C340.949 331.4 341.504 331.621 341.902 331.863C342.305 332.102 342.602 332.381 342.793 332.701C342.988 333.021 343.086 333.398 343.086 333.832C343.086 334.523 342.816 335.078 342.277 335.496C341.738 335.91 341.018 336.117 340.115 336.117C339.529 336.117 338.982 336.006 338.475 335.783C337.967 335.557 337.574 335.248 337.297 334.857C337.023 334.467 336.887 334.023 336.887 333.527H338.018C338.018 334.043 338.207 334.451 338.586 334.752C338.969 335.049 339.479 335.197 340.115 335.197C340.709 335.197 341.164 335.076 341.48 334.834C341.797 334.592 341.955 334.262 341.955 333.844C341.955 333.426 341.809 333.104 341.516 332.877C341.223 332.646 340.691 332.42 339.922 332.197ZM345.834 328.125V329.66H347.018V330.498H345.834V334.43C345.834 334.684 345.887 334.875 345.992 335.004C346.098 335.129 346.277 335.191 346.531 335.191C346.656 335.191 346.828 335.168 347.047 335.121V336C346.762 336.078 346.484 336.117 346.215 336.117C345.73 336.117 345.365 335.971 345.119 335.678C344.873 335.385 344.75 334.969 344.75 334.43V330.498H343.596V329.66H344.75V328.125H345.834ZM352.203 336C352.141 335.875 352.09 335.652 352.051 335.332C351.547 335.855 350.945 336.117 350.246 336.117C349.621 336.117 349.107 335.941 348.705 335.59C348.307 335.234 348.107 334.785 348.107 334.242C348.107 333.582 348.357 333.07 348.857 332.707C349.361 332.34 350.068 332.156 350.979 332.156H352.033V331.658C352.033 331.279 351.92 330.979 351.693 330.756C351.467 330.529 351.133 330.416 350.691 330.416C350.305 330.416 349.98 330.514 349.719 330.709C349.457 330.904 349.326 331.141 349.326 331.418H348.236C348.236 331.102 348.348 330.797 348.57 330.504C348.797 330.207 349.102 329.973 349.484 329.801C349.871 329.629 350.295 329.543 350.756 329.543C351.486 329.543 352.059 329.727 352.473 330.094C352.887 330.457 353.102 330.959 353.117 331.6V334.518C353.117 335.1 353.191 335.562 353.34 335.906V336H352.203ZM350.404 335.174C350.744 335.174 351.066 335.086 351.371 334.91C351.676 334.734 351.896 334.506 352.033 334.225V332.924H351.184C349.855 332.924 349.191 333.312 349.191 334.09C349.191 334.43 349.305 334.695 349.531 334.887C349.758 335.078 350.049 335.174 350.404 335.174ZM356.287 328.125V329.66H357.471V330.498H356.287V334.43C356.287 334.684 356.34 334.875 356.445 335.004C356.551 335.129 356.73 335.191 356.984 335.191C357.109 335.191 357.281 335.168 357.5 335.121V336C357.215 336.078 356.938 336.117 356.668 336.117C356.184 336.117 355.818 335.971 355.572 335.678C355.326 335.385 355.203 334.969 355.203 334.43V330.498H354.049V329.66H355.203V328.125H356.287ZM361.373 336.117C360.514 336.117 359.814 335.836 359.275 335.273C358.736 334.707 358.467 333.951 358.467 333.006V332.807C358.467 332.178 358.586 331.617 358.824 331.125C359.066 330.629 359.402 330.242 359.832 329.965C360.266 329.684 360.734 329.543 361.238 329.543C362.062 329.543 362.703 329.814 363.16 330.357C363.617 330.9 363.846 331.678 363.846 332.689V333.141H359.551C359.566 333.766 359.748 334.271 360.096 334.658C360.447 335.041 360.893 335.232 361.432 335.232C361.814 335.232 362.139 335.154 362.404 334.998C362.67 334.842 362.902 334.635 363.102 334.377L363.764 334.893C363.232 335.709 362.436 336.117 361.373 336.117ZM361.238 330.434C360.801 330.434 360.434 330.594 360.137 330.914C359.84 331.23 359.656 331.676 359.586 332.25H362.762V332.168C362.73 331.617 362.582 331.191 362.316 330.891C362.051 330.586 361.691 330.434 361.238 330.434ZM367.648 335.232C368.035 335.232 368.373 335.115 368.662 334.881C368.951 334.646 369.111 334.354 369.143 334.002H370.168C370.148 334.365 370.023 334.711 369.793 335.039C369.562 335.367 369.254 335.629 368.867 335.824C368.484 336.02 368.078 336.117 367.648 336.117C366.785 336.117 366.098 335.83 365.586 335.256C365.078 334.678 364.824 333.889 364.824 332.889V332.707C364.824 332.09 364.938 331.541 365.164 331.061C365.391 330.58 365.715 330.207 366.137 329.941C366.562 329.676 367.064 329.543 367.643 329.543C368.354 329.543 368.943 329.756 369.412 330.182C369.885 330.607 370.137 331.16 370.168 331.84H369.143C369.111 331.43 368.955 331.094 368.674 330.832C368.396 330.566 368.053 330.434 367.643 330.434C367.092 330.434 366.664 330.633 366.359 331.031C366.059 331.426 365.908 331.998 365.908 332.748V332.953C365.908 333.684 366.059 334.246 366.359 334.641C366.66 335.035 367.09 335.232 367.648 335.232ZM372.471 330.428C372.951 329.838 373.576 329.543 374.346 329.543C375.686 329.543 376.361 330.299 376.373 331.811V336H375.289V331.805C375.285 331.348 375.18 331.01 374.973 330.791C374.77 330.572 374.451 330.463 374.018 330.463C373.666 330.463 373.357 330.557 373.092 330.744C372.826 330.932 372.619 331.178 372.471 331.482V336H371.387V327H372.471V330.428ZM381.91 336C381.848 335.875 381.797 335.652 381.758 335.332C381.254 335.855 380.652 336.117 379.953 336.117C379.328 336.117 378.814 335.941 378.412 335.59C378.014 335.234 377.814 334.785 377.814 334.242C377.814 333.582 378.064 333.07 378.564 332.707C379.068 332.34 379.775 332.156 380.686 332.156H381.74V331.658C381.74 331.279 381.627 330.979 381.4 330.756C381.174 330.529 380.84 330.416 380.398 330.416C380.012 330.416 379.688 330.514 379.426 330.709C379.164 330.904 379.033 331.141 379.033 331.418H377.943C377.943 331.102 378.055 330.797 378.277 330.504C378.504 330.207 378.809 329.973 379.191 329.801C379.578 329.629 380.002 329.543 380.463 329.543C381.193 329.543 381.766 329.727 382.18 330.094C382.594 330.457 382.809 330.959 382.824 331.6V334.518C382.824 335.1 382.898 335.562 383.047 335.906V336H381.91ZM380.111 335.174C380.451 335.174 380.773 335.086 381.078 334.91C381.383 334.734 381.604 334.506 381.74 334.225V332.924H380.891C379.562 332.924 378.898 333.312 378.898 334.09C378.898 334.43 379.012 334.695 379.238 334.887C379.465 335.078 379.756 335.174 380.111 335.174ZM387.588 330.633C387.424 330.605 387.246 330.592 387.055 330.592C386.344 330.592 385.861 330.895 385.607 331.5V336H384.523V329.66H385.578L385.596 330.393C385.951 329.826 386.455 329.543 387.107 329.543C387.318 329.543 387.479 329.57 387.588 329.625V330.633ZM390.354 328.125V329.66H391.537V330.498H390.354V334.43C390.354 334.684 390.406 334.875 390.512 335.004C390.617 335.129 390.797 335.191 391.051 335.191C391.176 335.191 391.348 335.168 391.566 335.121V336C391.281 336.078 391.004 336.117 390.734 336.117C390.25 336.117 389.885 335.971 389.639 335.678C389.393 335.385 389.27 334.969 389.27 334.43V330.498H388.115V329.66H389.27V328.125H390.354ZM396.5 334.318C396.5 334.025 396.389 333.799 396.166 333.639C395.947 333.475 395.562 333.334 395.012 333.217C394.465 333.1 394.029 332.959 393.705 332.795C393.385 332.631 393.146 332.436 392.99 332.209C392.838 331.982 392.762 331.713 392.762 331.4C392.762 330.881 392.98 330.441 393.418 330.082C393.859 329.723 394.422 329.543 395.105 329.543C395.824 329.543 396.406 329.729 396.852 330.1C397.301 330.471 397.525 330.945 397.525 331.523H396.436C396.436 331.227 396.309 330.971 396.055 330.756C395.805 330.541 395.488 330.434 395.105 330.434C394.711 330.434 394.402 330.52 394.18 330.691C393.957 330.863 393.846 331.088 393.846 331.365C393.846 331.627 393.949 331.824 394.156 331.957C394.363 332.09 394.736 332.217 395.275 332.338C395.818 332.459 396.258 332.604 396.594 332.771C396.93 332.939 397.178 333.143 397.338 333.381C397.502 333.615 397.584 333.902 397.584 334.242C397.584 334.809 397.357 335.264 396.904 335.607C396.451 335.947 395.863 336.117 395.141 336.117C394.633 336.117 394.184 336.027 393.793 335.848C393.402 335.668 393.096 335.418 392.873 335.098C392.654 334.773 392.545 334.424 392.545 334.049H393.629C393.648 334.412 393.793 334.701 394.062 334.916C394.336 335.127 394.695 335.232 395.141 335.232C395.551 335.232 395.879 335.15 396.125 334.986C396.375 334.818 396.5 334.596 396.5 334.318ZM399.02 335.432C399.02 335.244 399.074 335.088 399.184 334.963C399.297 334.838 399.465 334.775 399.688 334.775C399.91 334.775 400.078 334.838 400.191 334.963C400.309 335.088 400.367 335.244 400.367 335.432C400.367 335.611 400.309 335.762 400.191 335.883C400.078 336.004 399.91 336.064 399.688 336.064C399.465 336.064 399.297 336.004 399.184 335.883C399.074 335.762 399.02 335.611 399.02 335.432ZM408.887 336H407.756V332.057H403.455V336H402.33V327.469H403.455V331.137H407.756V327.469H408.887V336ZM411.893 336H410.809V329.66H411.893V336ZM410.721 327.979C410.721 327.803 410.773 327.654 410.879 327.533C410.988 327.412 411.148 327.352 411.359 327.352C411.57 327.352 411.73 327.412 411.84 327.533C411.949 327.654 412.004 327.803 412.004 327.979C412.004 328.154 411.949 328.301 411.84 328.418C411.73 328.535 411.57 328.594 411.359 328.594C411.148 328.594 410.988 328.535 410.879 328.418C410.773 328.301 410.721 328.154 410.721 327.979ZM417.324 334.318C417.324 334.025 417.213 333.799 416.99 333.639C416.771 333.475 416.387 333.334 415.836 333.217C415.289 333.1 414.854 332.959 414.529 332.795C414.209 332.631 413.971 332.436 413.814 332.209C413.662 331.982 413.586 331.713 413.586 331.4C413.586 330.881 413.805 330.441 414.242 330.082C414.684 329.723 415.246 329.543 415.93 329.543C416.648 329.543 417.23 329.729 417.676 330.1C418.125 330.471 418.35 330.945 418.35 331.523H417.26C417.26 331.227 417.133 330.971 416.879 330.756C416.629 330.541 416.312 330.434 415.93 330.434C415.535 330.434 415.227 330.52 415.004 330.691C414.781 330.863 414.67 331.088 414.67 331.365C414.67 331.627 414.773 331.824 414.98 331.957C415.188 332.09 415.561 332.217 416.1 332.338C416.643 332.459 417.082 332.604 417.418 332.771C417.754 332.939 418.002 333.143 418.162 333.381C418.326 333.615 418.408 333.902 418.408 334.242C418.408 334.809 418.182 335.264 417.729 335.607C417.275 335.947 416.688 336.117 415.965 336.117C415.457 336.117 415.008 336.027 414.617 335.848C414.227 335.668 413.92 335.418 413.697 335.098C413.479 334.773 413.369 334.424 413.369 334.049H414.453C414.473 334.412 414.617 334.701 414.887 334.916C415.16 335.127 415.52 335.232 415.965 335.232C416.375 335.232 416.703 335.15 416.949 334.986C417.199 334.818 417.324 334.596 417.324 334.318ZM421.291 328.125V329.66H422.475V330.498H421.291V334.43C421.291 334.684 421.344 334.875 421.449 335.004C421.555 335.129 421.734 335.191 421.988 335.191C422.113 335.191 422.285 335.168 422.504 335.121V336C422.219 336.078 421.941 336.117 421.672 336.117C421.188 336.117 420.822 335.971 420.576 335.678C420.33 335.385 420.207 334.969 420.207 334.43V330.498H419.053V329.66H420.207V328.125H421.291ZM423.342 332.771C423.342 332.15 423.463 331.592 423.705 331.096C423.951 330.6 424.291 330.217 424.725 329.947C425.162 329.678 425.66 329.543 426.219 329.543C427.082 329.543 427.779 329.842 428.311 330.439C428.846 331.037 429.113 331.832 429.113 332.824V332.9C429.113 333.518 428.994 334.072 428.756 334.564C428.521 335.053 428.184 335.434 427.742 335.707C427.305 335.98 426.801 336.117 426.23 336.117C425.371 336.117 424.674 335.818 424.139 335.221C423.607 334.623 423.342 333.832 423.342 332.848V332.771ZM424.432 332.9C424.432 333.604 424.594 334.168 424.918 334.594C425.246 335.02 425.684 335.232 426.23 335.232C426.781 335.232 427.219 335.018 427.543 334.588C427.867 334.154 428.029 333.549 428.029 332.771C428.029 332.076 427.863 331.514 427.531 331.084C427.203 330.65 426.766 330.434 426.219 330.434C425.684 330.434 425.252 330.646 424.924 331.072C424.596 331.498 424.432 332.107 424.432 332.9ZM433.537 330.633C433.373 330.605 433.195 330.592 433.004 330.592C432.293 330.592 431.811 330.895 431.557 331.5V336H430.473V329.66H431.527L431.545 330.393C431.9 329.826 432.404 329.543 433.057 329.543C433.268 329.543 433.428 329.57 433.537 329.625V330.633ZM436.719 334.412L438.195 329.66H439.355L436.807 336.979C436.412 338.033 435.785 338.561 434.926 338.561L434.721 338.543L434.316 338.467V337.588L434.609 337.611C434.977 337.611 435.262 337.537 435.465 337.389C435.672 337.24 435.842 336.969 435.975 336.574L436.215 335.93L433.953 329.66H435.137L436.719 334.412ZM439.719 335.432C439.719 335.244 439.773 335.088 439.883 334.963C439.996 334.838 440.164 334.775 440.387 334.775C440.609 334.775 440.777 334.838 440.891 334.963C441.008 335.088 441.066 335.244 441.066 335.432C441.066 335.611 441.008 335.762 440.891 335.883C440.777 336.004 440.609 336.064 440.387 336.064C440.164 336.064 439.996 336.004 439.883 335.883C439.773 335.762 439.719 335.611 439.719 335.432ZM448.215 332.9C448.215 333.865 447.994 334.643 447.553 335.232C447.111 335.822 446.514 336.117 445.76 336.117C444.99 336.117 444.385 335.873 443.943 335.385V338.438H442.859V329.66H443.85L443.902 330.363C444.344 329.816 444.957 329.543 445.742 329.543C446.504 329.543 447.105 329.83 447.547 330.404C447.992 330.979 448.215 331.777 448.215 332.801V332.9ZM447.131 332.777C447.131 332.062 446.979 331.498 446.674 331.084C446.369 330.67 445.951 330.463 445.42 330.463C444.764 330.463 444.271 330.754 443.943 331.336V334.365C444.268 334.943 444.764 335.232 445.432 335.232C445.951 335.232 446.363 335.027 446.668 334.617C446.977 334.203 447.131 333.59 447.131 332.777ZM449.334 332.777C449.334 331.805 449.564 331.023 450.025 330.434C450.486 329.84 451.09 329.543 451.836 329.543C452.578 329.543 453.166 329.797 453.6 330.305V327H454.684V336H453.688L453.635 335.32C453.201 335.852 452.598 336.117 451.824 336.117C451.09 336.117 450.49 335.816 450.025 335.215C449.564 334.613 449.334 333.828 449.334 332.859V332.777ZM450.418 332.9C450.418 333.619 450.566 334.182 450.863 334.588C451.16 334.994 451.57 335.197 452.094 335.197C452.781 335.197 453.283 334.889 453.6 334.271V331.359C453.275 330.762 452.777 330.463 452.105 330.463C451.574 330.463 451.16 330.668 450.863 331.078C450.566 331.488 450.418 332.096 450.418 332.9ZM456.904 336V330.498H455.902V329.66H456.904V329.01C456.904 328.33 457.086 327.805 457.449 327.434C457.812 327.062 458.326 326.877 458.99 326.877C459.24 326.877 459.488 326.91 459.734 326.977L459.676 327.855C459.492 327.82 459.297 327.803 459.09 327.803C458.738 327.803 458.467 327.906 458.275 328.113C458.084 328.316 457.988 328.609 457.988 328.992V329.66H459.342V330.498H457.988V336H456.904Z" fill="black"/>
</svg>
